<?xml version="1.0" encoding="UTF-8"?>
<svg id="Lag_1" xmlns="http://www.w3.org/2000/svg" version="1.1" viewBox="0 0 120 120">
  <!-- Generator: Adobe Illustrator 29.8.2, SVG Export Plug-In . SVG Version: 2.1.1 Build 3)  -->
  <defs>
    <style>
      .st0 {
        stroke: #85bdb3;
        stroke-linecap: round;
        stroke-linejoin: round;
      }

      .st0, .st1, .st2, .st3, .st4 {
        fill: none;
      }

      .st0, .st4 {
        stroke-width: 3px;
      }

      .st1 {
        stroke-width: 5px;
      }

      .st1, .st3 {
        stroke: #d37983;
      }

      .st1, .st3, .st4 {
        stroke-miterlimit: 10;
      }

      .st3 {
        stroke-width: 2px;
      }

      .st4 {
        stroke: #862e38;
      }
    </style>
  </defs>
  <rect class="st2" y="0" width="120" height="120"/>
  <g id="Lag_1-2">
    <path class="st1" d="M14.2,60.9c0-4.3.3-8.5.9-12.7.6-4.5,2-8.8,4.2-12.8,2.1-3.8,5-7.2,8.4-9.9,3.4-2.7,7.6-4.1,12.6-4.1,7.5,0,15,.3,22.4.8,7.3.5,14.5,1.8,21.5,3.7,6.8,1.9,12.5,4.9,16.9,9,4.4,4.1,6.6,10,6.5,17.7,0,13.2-5.6,24.8-16.9,35s-25,15.2-41.1,15.2-21.5-4.2-27.1-12.7-8.3-18.3-8.3-29.2Z"/>
    <path class="st0" d="M75.1,36.7c2.1,2.1,3.2,6.1,2.5,7.8s-3.5,5.3-5.4,5.1-5.6-4-5.1-6.4c.6-2.4.9-3,2.4-3.9,1.5-1,5.6-2.6,5.6-2.6Z"/>
    <path class="st0" d="M37.8,40.5c1.3,1.1,3.2,2.8,3.8,4.4.6,1.6.8,3.9-.7,4.6-1.5.7-4.2,1.3-5.1,1-.9-.3-3.9-1.9-4.4-3.6s-.1-4.5,1.2-4.9c1.3-.4,5.2-1.5,5.2-1.5Z"/>
    <path class="st3" d="M60.6,57.6c1.4.7,1.6,3.4.7,4.2s-1.3,3.9-3.8,3.3-7.7-3.9-7.4-5.5,2.1-4.2,3.4-4.3"/>
    <path class="st4" d="M71.2,58c1.3,1.1,4.3,5.7,4.4,7.6.2,1.9-2.5,15.2-5.3,17.8-2.9,2.6-7.6,4-10.3,3.7-3.6-.6-7-2.1-9.9-4.2-2.4-2-6.6-12.5-7.5-14.4s-2.3-4.1-1.6-5.9"/>
  </g>
</svg>