<svg xmlns="http://www.w3.org/2000/svg" viewBox="0 0 369.98 536.41"><defs><style>.cls-1,.cls-4,.cls-6,.cls-7,.cls-8{fill:none;stroke-linecap:round;stroke-linejoin:round;}.cls-1{stroke:#406171;}.cls-1,.cls-4{stroke-width:3px;}.cls-2{fill:#65a5bc;}.cls-3{fill:#187f8d;}.cls-4,.cls-6{stroke:#756673;}.cls-5{fill:#756673;}.cls-6,.cls-7{stroke-width:4px;}.cls-7{stroke:#427b8f;}.cls-8{stroke:#e24a0e;stroke-width:5px;}</style></defs><g id="Lag_2" data-name="Lag 2"><g id="nye_streger" data-name="nye streger"><path class="cls-1" d="M18.3,56.23c4.83,15,28.54,54.82,32.59,60.1,9.53,12.43,44.15,52,58.35,60.1"/><path class="cls-2" d="M255.35.5c-6.52.4-13,1-19.48,1.94S223,4.62,216.65,6.12A203.54,203.54,0,0,0,146,38.47,223.72,223.72,0,0,0,116.35,63.8a261.58,261.58,0,0,0-45.53,63,231.75,231.75,0,0,0-15.1,35.86,116.64,116.64,0,0,0-4.47,18.75,34.73,34.73,0,0,0-.13,9.33,58.42,58.42,0,0,0,1.92,9.3,147.17,147.17,0,0,0,6.7,18.14c2.58,6,5.37,11.85,8.17,17.75,5.6,11.81,11.33,23.64,16,36a133.25,133.25,0,0,1,5.73,19.11,68.42,68.42,0,0,1,1.53,20.24,42.66,42.66,0,0,1-2.08,10.17c-.28.82-.57,1.65-.92,2.45s-.7,1.6-1.08,2.39c-.76,1.56-1.56,3-2.39,4.46-3.32,5.79-7,11.26-10.75,16.67C58.8,369,42.4,389.32,27.66,410.81c-3.7,5.37-7.28,10.8-10.65,16.36a165.07,165.07,0,0,0-9.18,17.14c-2.64,5.88-4.95,12-5.64,18.39A22.46,22.46,0,0,0,3,472.14a15.92,15.92,0,0,0,5.47,7.68l-.3.41A16.74,16.74,0,0,1,2,472.49,23.71,23.71,0,0,1,.7,462.58c.43-6.69,2.5-13.09,5-19.2a168.52,168.52,0,0,1,8.76-17.72c3.22-5.73,6.67-11.34,10.21-16.86,7.12-11,14.73-21.71,22.36-32.34s15.38-21.16,22.78-31.85c3.68-5.36,7.27-10.77,10.42-16.34.78-1.39,1.56-2.81,2.22-4.2.33-.68.66-1.37.93-2.08s.55-1.42.79-2.14a39.4,39.4,0,0,0,1.89-9,64,64,0,0,0-1.3-18.75,137.21,137.21,0,0,0-5.32-18.48c-4.38-12.17-9.91-24-15.36-35.87-2.73-5.95-5.46-11.91-8-18a152.72,152.72,0,0,1-6.68-18.71,62.7,62.7,0,0,1-1.94-9.91,38.82,38.82,0,0,1,.24-10.22,119.36,119.36,0,0,1,4.78-19.32,235.77,235.77,0,0,1,15.63-36.24,262.93,262.93,0,0,1,46.61-63.25A225.51,225.51,0,0,1,144.9,36.91,205,205,0,0,1,216.43,5.18c6.39-1.44,12.85-2.58,19.34-3.47S248.79.33,255.33,0Z"/><path class="cls-2" d="M228.14,11.06a75.27,75.27,0,0,0-17.87,2.75,102.38,102.38,0,0,0-16.84,6.44A166,166,0,0,0,163.07,39.7c-18.94,15-35.57,32.71-51.15,51.22a547.89,547.89,0,0,0-43.21,58.5q-4.89,7.7-9.41,15.6c-3,5.26-5.92,10.61-8.69,16s-5.38,10.88-7.81,16.43a162.37,162.37,0,0,0-6.38,17,58.45,58.45,0,0,0-2.06,8.68,29.46,29.46,0,0,0,.16,8.69,41.42,41.42,0,0,0,6.66,16.1,158.64,158.64,0,0,0,10.93,14.32A102.47,102.47,0,0,1,63,277.35a44.05,44.05,0,0,1,3.77,8.86,34,34,0,0,1,1.39,9.69,37.42,37.42,0,0,1-1.34,9.67,50.5,50.5,0,0,1-3.46,9c-2.74,5.51-5.66,10.84-8.53,16.21l-8.66,16.05c-11.51,21.38-22.79,42.89-32,65.26-4.53,11.19-8.68,22.61-10.87,34.44a60.9,60.9,0,0,0-1,17.85,27.25,27.25,0,0,0,2.39,8.54,19.45,19.45,0,0,0,5.51,6.94l-.3.41a20.07,20.07,0,0,1-6.19-6.85,28.62,28.62,0,0,1-3-8.8,59.1,59.1,0,0,1,.09-18.49,135.88,135.88,0,0,1,4-18q2.52-8.85,5.76-17.45C14.77,399.16,19.7,388,24.94,377s10.84-21.87,16.51-32.65,11.63-21.43,17.16-32.13a46.36,46.36,0,0,0,3.24-8,30.88,30.88,0,0,0-3-24.61c-5.55-10.29-14.37-19-20.85-29.71a44.68,44.68,0,0,1-6.41-17.67,34,34,0,0,1,.2-9.5,60.88,60.88,0,0,1,2.42-9,180,180,0,0,1,6.94-17c2.53-5.56,5.28-11,8.07-16.42S55,169.57,58,164.25,64,153.7,67.16,148.46A530.5,530.5,0,0,1,108.6,88.18,346,346,0,0,1,133.12,60.9a260.87,260.87,0,0,1,27.63-24.22,156.53,156.53,0,0,1,31.61-18.79,95.6,95.6,0,0,1,17.52-5.69,69.32,69.32,0,0,1,18.26-1.64Z"/><path class="cls-2" d="M245.26,6.9c-6.15.86-12.38,1.3-18.57,1.75s-12.34,1.09-18.48,1.88l-4.61.61c-1.54.18-3,.46-4.56.72-3,.56-6.06.93-9,1.77s-5.95,1.39-8.84,2.42l-4.35,1.42c-1.47.41-2.85,1.09-4.28,1.6s-2.85,1.1-4.28,1.61-2.82,1.17-4.23,1.74l-4.2,1.81c-1.39.63-2.73,1.37-4.1,2.05l-4.08,2.09c-1.33.75-2.64,1.53-4,2.3l-4,2.32-3.83,2.52a198.31,198.31,0,0,0-28.56,23.11C93.7,75.72,78.74,95.57,66.21,116.77a266.26,266.26,0,0,0-16.62,32.91,122.34,122.34,0,0,0-5.91,17.24l-.5,2.17-.33,2.12c-.13.7-.12,1.44-.18,2.16a17.82,17.82,0,0,0-.08,2.19,40.89,40.89,0,0,0,.92,8.72,76.56,76.56,0,0,0,6.1,16.93c2.61,5.53,5.57,11,8.22,16.74A72.66,72.66,0,0,1,63.9,236.2a42.49,42.49,0,0,1-1.17,19.56L62,258.1c-.24.78-.61,1.51-.91,2.27s-.6,1.53-1,2.25L59,264.79l-.56,1.08-.63,1L56.51,269c-.83,1.36-1.63,2.57-2.41,3.9a183.14,183.14,0,0,0-8.47,16.29c-5.19,11.16-9.69,22.68-13.77,34.33S24.2,347,21.1,359c-1.55,6-3,12-4.23,18-.62,3-1.26,6-1.76,9.08s-1,6.08-1.53,9.11c-2.16,12.1-3.69,24.39-3.33,36.67A71.58,71.58,0,0,0,12.89,450a36.93,36.93,0,0,0,3.58,8.44,24.6,24.6,0,0,0,6,7,24.88,24.88,0,0,1-6.62-6.56,38.18,38.18,0,0,1-4.33-8.37A73.61,73.61,0,0,1,7.64,432c-1.17-12.54-.41-25.13,1-37.58.39-3.11.92-6.19,1.51-9.27s1.18-6.14,1.82-9.2q1.92-9.18,4.29-18.25Q21,339.56,27.14,321.86c4.12-11.79,8.67-23.43,14-34.8,2.65-5.69,5.48-11.29,8.72-16.75.79-1.35,1.7-2.73,2.49-4l1.15-1.91.58-.95.51-1,1-2c.35-.66.59-1.35.89-2s.6-1.34.81-2l.69-2.08A37.18,37.18,0,0,0,59,237a67.55,67.55,0,0,0-5.68-17c-2.55-5.54-5.5-11-8.19-16.7a81.36,81.36,0,0,1-6.48-18,46.14,46.14,0,0,1-1-9.76,20.32,20.32,0,0,1,.09-2.47c.07-.82.06-1.64.21-2.47l.39-2.48.54-2.37a125.64,125.64,0,0,1,6.15-18A269.38,269.38,0,0,1,61.9,114.23c12.74-21.54,27.94-41.72,46-59.2a203.48,203.48,0,0,1,29.28-23.69l4-2.6,4.08-2.39c1.36-.79,2.71-1.6,4.09-2.37l4.21-2.15c1.41-.71,2.79-1.47,4.23-2.12l4.33-1.93,2.16-1a21.9,21.9,0,0,1,2.19-.9c1.48-.56,3-1.08,4.47-1.59,3-1.1,6.06-1.8,9.12-2.6s6.17-1.34,9.26-1.93,6.24-.87,9.36-1.26S204.84,8,208,7.8c6.21-.37,12.45-.6,18.68-.6S239.05,7.28,245.26,6.9Z"/><path class="cls-2" d="M225.23,3.35a81.08,81.08,0,0,1,14.49,3.78,74.88,74.88,0,0,1,13.63,6.47,79.66,79.66,0,0,1,22.33,20.34,99.11,99.11,0,0,1,8.19,12.79,122,122,0,0,1,6.28,13.78,147.85,147.85,0,0,1,7.78,29.12,227.35,227.35,0,0,1,2.68,29.88c.14,5,.13,10,0,15s-.3,9.95-.59,14.92c-.58,9.94-1.49,19.85-2.94,29.72-.18,1.23-.38,2.46-.59,3.7s-.52,2.49-.84,3.71-.7,2.45-1.17,3.62c-.22.59-.43,1.19-.66,1.78l-.75,1.74A108.73,108.73,0,0,1,286,206.92c-5.24,8.52-11,16.68-16.41,24.92s-10.72,16.58-14.76,25.4a70.52,70.52,0,0,0-4.71,13.58,42.53,42.53,0,0,0-1,14l.18,1.72.3,1.79.68,3.58c.47,2.39,1,4.78,1.58,7.17,1.13,4.79,2.42,9.56,3.69,14.34,5.1,19.12,10.75,38.22,14.88,57.75q1.59,7.32,2.72,14.74c.75,4.95,1.36,9.93,1.63,14.95A59.23,59.23,0,0,1,274,415.9a23.85,23.85,0,0,1-2.62,7.18,14,14,0,0,1-2.43,3,11.89,11.89,0,0,1-3.24,2,.25.25,0,0,1-.33-.13.26.26,0,0,1,.11-.32h0a11.58,11.58,0,0,0,2.88-2.15,14.46,14.46,0,0,0,2-2.95,22.52,22.52,0,0,0,2-6.91,63.85,63.85,0,0,0-.12-14.62c-1-9.77-3.29-19.41-5.66-29-4.87-19.16-10.82-38.07-16.19-57.24q-2-7.2-3.74-14.51c-.57-2.44-1.12-4.89-1.61-7.37q-.36-1.86-.66-3.75l-.28-1.89-.19-2a47.69,47.69,0,0,1,1.32-15.6,75.53,75.53,0,0,1,5.28-14.42c8.82-18.38,22-33.52,33.12-49.82a105.84,105.84,0,0,0,7.47-12.68l.79-1.65c.24-.56.46-1.12.7-1.69.5-1.11.85-2.27,1.25-3.42s.62-2.32.88-3.52.46-2.42.67-3.64a239.38,239.38,0,0,0,3-29.53c.2-4.95.24-9.9.16-14.85s-.36-9.88-.74-14.81a239.35,239.35,0,0,0-4-29.28A184.21,184.21,0,0,0,286,62.08a118,118,0,0,0-5.9-13.37,98.7,98.7,0,0,0-7.55-12.47,88.23,88.23,0,0,0-9.4-11.11,80.84,80.84,0,0,0-11.25-9.29,82.58,82.58,0,0,0-12.82-7.13,97.68,97.68,0,0,0-14-4.87.25.25,0,0,1,.1-.49Z"/><path class="cls-2" d="M225.24,9.41a73.38,73.38,0,0,1,27,12.45A94.15,94.15,0,0,1,273,43.31a142.79,142.79,0,0,1,14.55,26.14,211.78,211.78,0,0,1,9.82,28.26,293.74,293.74,0,0,1,9.4,59c.28,5,.45,10,.43,15a149.18,149.18,0,0,1-.71,15c-.15,1.27-.3,2.53-.53,3.8-.09.64-.26,1.28-.4,1.92s-.27,1.29-.47,1.9c-.39,1.23-.75,2.49-1.24,3.68-.23.59-.45,1.2-.7,1.79l-.77,1.75A110.56,110.56,0,0,1,295,214.86c-5.37,8.47-11.23,16.51-16.75,24.7s-10.81,16.51-14.84,25.33a71.72,71.72,0,0,0-4.76,13.54,43.55,43.55,0,0,0-1,13.94l.17,1.73.27,1.79c.2,1.19.42,2.39.65,3.59.46,2.39,1,4.79,1.55,7.18,1.12,4.79,2.36,9.57,3.65,14.35,5,19.15,10.68,38.25,14.82,57.76a209.22,209.22,0,0,1,4.44,29.64,62.36,62.36,0,0,1-.77,15.06,23.7,23.7,0,0,1-2.58,7.17,14.46,14.46,0,0,1-2.4,3,12.19,12.19,0,0,1-3.23,2.05.26.26,0,0,1-.33-.13.25.25,0,0,1,.12-.32h0a11.68,11.68,0,0,0,2.89-2.13,13.66,13.66,0,0,0,2-2.95,22.32,22.32,0,0,0,2-6.91,59.78,59.78,0,0,0-.08-14.64,207.86,207.86,0,0,0-5.56-29c-4.87-19.17-10.82-38.08-16.25-57.24-1.32-4.8-2.61-9.61-3.78-14.49q-.89-3.65-1.64-7.36c-.25-1.23-.48-2.48-.7-3.73l-.3-1.89-.21-2a47,47,0,0,1,1.25-15.62A75.33,75.33,0,0,1,259,262.8c4.38-9.19,9.94-17.59,15.63-25.77s11.68-16.11,17.07-24.33A104.79,104.79,0,0,0,298.9,200l.76-1.64c.23-.55.44-1.11.67-1.66.47-1.11.8-2.24,1.17-3.37a17,17,0,0,0,.45-1.7c.13-.57.3-1.13.39-1.72.22-1.17.38-2.37.54-3.57a145.85,145.85,0,0,0,.87-14.67c.08-4.93,0-9.86-.24-14.79a290.24,290.24,0,0,0-8.57-58.55,208.59,208.59,0,0,0-9.24-28.11,142.4,142.4,0,0,0-13.93-26.06,92.9,92.9,0,0,0-20.14-21.5A72.72,72.72,0,0,0,225.12,9.89a.24.24,0,0,1-.18-.3A.24.24,0,0,1,225.24,9.41Z"/><path class="cls-2" d="M214.32,4.54a119.71,119.71,0,0,1,48,31.37,132.9,132.9,0,0,1,17.12,23.46,161.2,161.2,0,0,1,12.12,26.41,196,196,0,0,1,7.7,28,232.67,232.67,0,0,1,3.84,28.8,212.3,212.3,0,0,1,.15,29.09c-.17,2.43-.38,4.86-.69,7.3a56.39,56.39,0,0,1-1.37,7.39,59.48,59.48,0,0,1-5.75,13.83c-4.86,8.62-11,16-15,24.37A54.23,54.23,0,0,0,277.9,231a47.31,47.31,0,0,0-1.57,6.63,51.33,51.33,0,0,0-.11,13.68c.15,1.14.34,2.29.51,3.43s.4,2.42.58,3.63c.35,2.41.63,4.83.87,7.24.5,4.82.83,9.64,1.08,14.46.51,9.64.64,19.28.51,28.91a451.24,451.24,0,0,1-4.13,57.59,210.12,210.12,0,0,1-5.91,28.28,84.34,84.34,0,0,1-5.12,13.53,37.88,37.88,0,0,1-3.85,6.14,17,17,0,0,1-5.45,4.67,16.85,16.85,0,0,0,5.15-4.9,37.26,37.26,0,0,0,3.46-6.24,82.28,82.28,0,0,0,4.53-13.55,208.77,208.77,0,0,0,4.76-28.25c1.07-9.5,1.74-19,2.14-28.6s.61-19.12.52-28.68-.39-19.12-1-28.64c-.31-4.76-.7-9.52-1.24-14.23-.27-2.36-.57-4.71-.93-7-.19-1.16-.39-2.32-.6-3.47s-.42-2.45-.6-3.68a54.68,54.68,0,0,1,0-15,52.91,52.91,0,0,1,1.72-7.37,56.6,56.6,0,0,1,2.77-7c4.3-9,10.52-16.59,15-24.71a54.63,54.63,0,0,0,5.34-12.65,78.63,78.63,0,0,0,2-13.77c.33-4.72.47-9.46.48-14.21s-.16-9.49-.47-14.23a217.89,217.89,0,0,0-10.5-55.85c-6.05-18-14.94-35.12-27.39-49.53a117,117,0,0,0-21.07-19.17c-1-.69-1.91-1.44-2.93-2.07l-3-1.89-3-1.9c-1-.62-2.1-1.13-3.15-1.71l-3.16-1.7-1.59-.85c-.53-.26-1.08-.49-1.63-.74Z"/><path class="cls-3" d="M176.92,62.61a6,6,0,0,1,2.44-4.42,6.06,6.06,0,0,0,.87-1.16c.91-1.27,1.47-2.89,3.21-3.39.58-.17,1.05-.44,1.22.46.13.72.69.85,1.27.58,1.44-.66,3-.43,4.45-.41a3.74,3.74,0,0,1,3.5,3.88c0,2.71-1.45,4.46-3.62,5.73a20.72,20.72,0,0,0-2.48,1.62c-2.06,1.63-4.58,1.51-6.94,2a1.62,1.62,0,0,1-.8-.19C177.72,66.46,176.87,65.17,176.92,62.61Zm12.81-2.5A2.08,2.08,0,0,0,191,57.7c-.23-.9-1.24-1-2.09-.92-.4,0-.86-.17-1.22.29C188.5,58,189.91,58.38,189.73,60.11Zm-7.22.62c0,.18,0,.35,0,.52,0,.33,0,.7.39.82s.61-.16.83-.43a2.7,2.7,0,0,0,.35-2.24c-.1-.53-.58-.65-1-.31A1.66,1.66,0,0,0,182.51,60.73Z"/><path class="cls-3" d="M219.23,67l.33-.27,1.39,0a1.77,1.77,0,0,1,1.41,2.09l-.06,0c-.46,0-.85,0-1,.54a3.61,3.61,0,0,0-.31,1.41l0,0-.29.32c-.15.41-.29.82-.45,1.22s-.4.79.06,1,.79-.16,1-.55c.06-.1.1-.2.15-.3,1.12-1.86,2.43-3.44,4.89-3.36,0,.22.09.44.32.55,1.62.81,1.7,1.17.65,2.65-.28.4-.72.83-.48,1.33.41.87-.07,1.47-.46,2.12l0,0c-.65,0-1,.33-1,1A4.06,4.06,0,0,1,223.27,78c-.58.08-1.27-.4-1.45-.09-.34.56-.93.79-1.24,1.32-.22.38-.58,0-.89,0-1.06-.11-1.32-1.31-2.21-1.58a1.72,1.72,0,0,1-1.24-1.56,6.83,6.83,0,0,0-.51-2.48c1.28.09,1.15.07,1.34-1a5,5,0,0,1,1.7-3.47C219.78,68.35,219.77,68.34,219.23,67Z"/><path class="cls-3" d="M219.23,67c.54,1.33.55,1.34-.46,2.11a5,5,0,0,0-1.7,3.47c-.19,1.1-.06,1.12-1.34,1a6.83,6.83,0,0,1,.51,2.48,1.72,1.72,0,0,0,1.24,1.56c.89.27,1.15,1.47,2.21,1.58.31,0,.67.36.89,0,.31-.53.9-.76,1.24-1.32.18-.31.87.17,1.45.09a4.06,4.06,0,0,0,2.07-1.17c.73.09,1.08-.2,1-1l0,0c.27,0,.6.06.78-.18,1-1.29,2-2.57,2.86-3.91a2.46,2.46,0,0,0,.05-2.67,3.2,3.2,0,0,1-.69-1.64,2,2,0,0,1,1.48,1.84,5.7,5.7,0,0,1-1.47,4.93,13.89,13.89,0,0,0-1.44,1.62,14.84,14.84,0,0,1-6.54,4.41c-1.82.71-3.33-.31-4.61-1.61a5.75,5.75,0,0,1-.86-6.89c.8-1.39,1.75-2.68,2.59-4C218.7,67.39,218.86,67.09,219.23,67Z"/><path class="cls-3" d="M229.37,67.42a3.2,3.2,0,0,0,.69,1.64,2.46,2.46,0,0,1-.05,2.67c-.9,1.34-1.89,2.62-2.86,3.91-.18.24-.51.18-.78.18.39-.65.87-1.25.46-2.12-.24-.5.2-.93.48-1.33,1.05-1.48,1-1.84-.65-2.65-.23-.11-.27-.33-.32-.55.25-.07.56,0,.79-.29a2.92,2.92,0,0,0-3-.6c-.59.13-1.16.34-1.74.52A1.75,1.75,0,0,0,221,66.72,4.86,4.86,0,0,1,223,64.45c.84-.54,1.23-.37,1.26.59s.45,1.17,1.24,1.11c.33,0,.65-.08,1-.12l.82.06a.94.94,0,0,0,1.15.63A1.13,1.13,0,0,1,229.37,67.42Z"/><path class="cls-3" d="M226.5,66c-.33,0-.65.1-1,.12-.79.06-1.2-.2-1.24-1.11s-.42-1.13-1.26-.59A4.86,4.86,0,0,0,221,66.72l-1.39,0a8.81,8.81,0,0,1,3.55-2.88c1.12-.57,1.52-.38,1.8.89C225.12,65.72,226.12,65.43,226.5,66Z"/><path class="cls-3" d="M228.47,66.72a.94.94,0,0,1-1.15-.63C228,65.81,228.13,66.43,228.47,66.72Z"/><path class="cls-3" d="M222.3,68.84a2.31,2.31,0,0,1-1.31,2,3.61,3.61,0,0,1,.31-1.41C221.45,68.82,221.84,68.79,222.3,68.84Z"/><path class="cls-3" d="M226.33,75.86c.09.76-.26,1-1,1C225.38,76.19,225.68,75.85,226.33,75.86Z"/><path class="cls-3" d="M221,70.82l-.29.32Z"/><path class="cls-4" d="M139.92,86.86c-8,6-11.49,21.61-9.74,40,1.34,14.07,19.4,20.77,29.49,17.53,17.77-5.7,42.05-17.89,44.2-28.19"/><path class="cls-5" d="M273.3,39.87c6.07,8.87,9,19.56,9.7,30.2a87.28,87.28,0,0,1-4,31.72,85.67,85.67,0,0,1-15,28.43,68.23,68.23,0,0,1-11.69,11.34c-.55.41-1.07.85-1.64,1.23l-1.71,1.14c-1.12.79-2.32,1.46-3.51,2.14a40.79,40.79,0,0,1-3.66,1.89c-1.26.62-2.43,1.16-3.62,1.72-4.75,2.22-9.34,4.78-13.89,7.49s-9.07,5.57-13.88,8.15a63.09,63.09,0,0,1-15.51,6.09c-1.38.31-2.78.54-4.18.77s-2.85.32-4.22.39-2.74.12-4.11.15l-4.11,0a111.39,111.39,0,0,1-16.37-1.63,93.25,93.25,0,0,1-16-4.21,67.47,67.47,0,0,1-15-7.49c-1.2-.77-2.33-1.67-3.47-2.57a21,21,0,0,1-1.66-1.5,20,20,0,0,1-1.6-1.59,43.52,43.52,0,0,1-2.76-3.39l-1.26-1.75c-.4-.6-.76-1.21-1.13-1.81a79.49,79.49,0,0,1-7-15.19,96.2,96.2,0,0,1-4-16.07,64.88,64.88,0,0,1-.65-16.8,65.17,65.17,0,0,1,4-16.29,66.09,66.09,0,0,1,8-14.62A89.77,89.77,0,0,1,130.2,55.44,130,130,0,0,1,142.63,45c4.32-3.25,8.72-6.3,13.29-9.18a134.27,134.27,0,0,1,29.14-13.87,114.4,114.4,0,0,1,31.58-6,79.76,79.76,0,0,1,31.61,4.63,56.13,56.13,0,0,1,14,7.72A49.87,49.87,0,0,1,273.3,39.87Zm-.33.23a49.25,49.25,0,0,0-11-11.43,55.43,55.43,0,0,0-13.94-7.58,77.84,77.84,0,0,0-31.36-4.23,110.83,110.83,0,0,0-31.11,6.5,131.76,131.76,0,0,0-28.45,14.26c-4.44,2.92-8.77,6-12.95,9.32a128.79,128.79,0,0,0-12,10.52,86.22,86.22,0,0,0-10.28,12.13,65.54,65.54,0,0,0-7.39,14,62.42,62.42,0,0,0-3.6,15.43,63.61,63.61,0,0,0,.79,15.82,92.08,92.08,0,0,0,4,15.4,75,75,0,0,0,6.7,14.38c.35.56.69,1.13,1,1.69l1.15,1.61a36.56,36.56,0,0,0,2.48,3.07,16.7,16.7,0,0,0,1.39,1.4,18.28,18.28,0,0,0,1.45,1.33c1,.82,2.07,1.65,3.18,2.36a63.68,63.68,0,0,0,14.15,7.13,102.52,102.52,0,0,0,31.16,6l4,.08,4-.08c1.32,0,2.63-.2,4-.29s2.62-.38,3.92-.64a60.5,60.5,0,0,0,14.85-5.51c4.74-2.42,9.29-5.18,13.94-7.81s9.36-5.14,14.24-7.3c1.22-.54,2.45-1.07,3.65-1.63s2.42-1.09,3.56-1.76,2.34-1.26,3.44-2l1.67-1.07c.56-.36,1.08-.78,1.62-1.16a66.87,66.87,0,0,0,11.61-10.82,83.22,83.22,0,0,0,15.33-27.72,85.34,85.34,0,0,0,4.31-31.39C281.84,59.53,279,48.92,273,40.1Z"/><path class="cls-6" d="M218.27,292.69q-15,13.06-29.79,26.34t-29.39,26.78l-2,1.85q8-8.54,16.26-16.75c9.14-9.05,18.82-17.63,27.08-27.52a89.62,89.62,0,0,0,11.69-17.5.84.84,0,0,0-1.14-1.14,203.72,203.72,0,0,0-27.58,18.83c-7.45,6-14.58,12.31-21.54,18.83q5.35-6,10.67-12.09c8.64-9.9,17.26-19.84,25.59-30a115.77,115.77,0,0,0,12-17.13A.84.84,0,0,0,209,262a376,376,0,0,0-35.18,20.06l-1.79,1.17a.84.84,0,0,0-1.41-.49c-1.63,1.62-3.28,3.22-4.93,4.81q-7.83,5.48-15.23,11.54,4.26-4.75,8.46-9.58C169.15,277.84,179.12,265.93,189,254l8.31-10.05a65.52,65.52,0,0,0,7.29-10.15.84.84,0,0,0-1.15-1.14Q186.91,242.76,170,252.39t-33.89,18.66l-6.09,3.21c.83-1.34,1.69-2.67,2.58-4l.9-1.29c5.68-3.29,11.79-6,17.47-8.88q20.58-10.45,40.16-22.75,8.66-5.43,17.08-11.22a16.9,16.9,0,0,0,4.77-3.32c.64-.66-.21-1.88-1-1.32q-2.3,1.62-4.61,3.19a26.45,26.45,0,0,1-3.33,1.31c-3.21,1.05-6.51,1.88-9.78,2.7Q184,231.29,173.47,233c-.91.15-1.81.29-2.72.42q3.47-1.29,6.9-2.65a.84.84,0,0,0-.44-1.61,213,213,0,0,0-27.11,6.38c-5.38.35-10.77.65-16.11,1.46a56.12,56.12,0,0,0-10.4,2.51q3.51-1.78,7.09-3.4a175.31,175.31,0,0,1,24-8.79q7-2,14.21-3.44c1.06-.21.61-1.82-.44-1.61a178.47,178.47,0,0,0-49.94,18c-3.6,1.95-7.51,4.09-9,8.14-.25.66.46,1.12,1,1q8.92-1.49,17.77-3.47a190,190,0,0,0,29.9-4.59A115.37,115.37,0,0,0,141,257a118.27,118.27,0,0,0-8.69,10.9c-6.07,3.54-11.73,7.82-15.87,13.58-.52.73.47,1.48,1.15,1.14q4.05-2.07,8.09-4.16c-.22.41-.45.82-.67,1.24a115.63,115.63,0,0,0-6.49,14.3.84.84,0,0,0,1,1,77,77,0,0,0,26.79-15.78,241.72,241.72,0,0,0-19.12,32A156.2,156.2,0,0,0,121,325.77c-.23.66.65,1.38,1.23,1q1.92-1.44,3.81-2.89a.78.78,0,0,0,1.24.11c1.43-1.46,2.86-2.92,4.27-4.4q15.48-12.19,29.91-25.65,2.69-2.5,5.34-5.05l.5-.36c-6.75,11.81-13.42,23.68-19.64,35.78a372.77,372.77,0,0,0-19.07,42.86,249.55,249.55,0,0,0-7.74,25.26.84.84,0,0,0,1.4.81q20.25-19,40.06-38.43t38.94-39.11c6.65-6.83,13.38-13.72,18.3-21.95C220.09,292.86,219,292.09,218.27,292.69Zm-63.67,5.25q-7,6.3-14.21,12.32Q147.22,303.79,154.6,297.94Zm13.62-65.42c-1.75.63-3.52,1.26-5.29,1.86-1.48.17-3,.32-4.46.46q3.81-1,7.65-1.86Zm-16.89,4.57c1.49-.1,3-.22,4.47-.34q-10.62,3.38-21.45,6,7.92-3.15,16.06-5.64Zm-39.56,10.39a11,11,0,0,1,3-3.06.79.79,0,0,0,1.22.68c8.18-5.5,18-6.82,27.69-7.52q-3.45,1.18-6.85,2.47-5.44,2.07-10.77,4.44a.61.61,0,0,0-.33.3l-.51.11Q118.51,246.33,111.77,247.48Zm38.83,2.21a113.63,113.63,0,0,1,12.12-9.53.84.84,0,0,0-.65-1.53,187.68,187.68,0,0,1-21.53,4.31q11.49-3,22.72-6.89l.16-.06a243.7,243.7,0,0,0,29.86-5.31c2.87-.7,5.76-1.41,8.6-2.25q-14.37,9.58-29.37,18.18-10.12,5.79-20.5,11.12c-5.4,2.77-10.91,5.32-16.25,8.19A114.71,114.71,0,0,1,150.6,249.69Zm-30.39,29.67a47.51,47.51,0,0,1,9.88-8.26c-1,1.53-2,3.08-2.9,4.65Q123.71,277.56,120.21,279.36Zm29.34-1.89q2.47-3.53,5-7,2.2-2.76,4.16-5.71c.61-.91-.82-1.69-1.44-.84q-2,2.7-4,5.43A75.55,75.55,0,0,1,129,289.17a72,72,0,0,1-8.3,3.64,112.87,112.87,0,0,1,7.67-15.8q11.82-6.17,23.52-12.57,17-9.28,33.64-19.1,8-4.69,15.86-9.5a74.29,74.29,0,0,1-4.76,6.3c-2.4,2.93-4.82,5.84-7.24,8.76q-7.41,8.94-14.86,17.84c-10,11.84-20.06,23.57-30.48,35q-2.59,2.85-5.22,5.67-5,4.77-9.67,9.9-2.76,2.16-5.55,4.28C130,307.08,139.42,291.93,149.55,277.47ZM182.85,332q-19.44,19.58-39.33,38.71-10.1,9.7-20.31,19.3a276.28,276.28,0,0,1,14.61-41.29c6.3-14.34,13.54-28.25,21.12-42,3.79-6.86,7.67-13.67,11.57-20.47,6.3-4.25,12.77-8.24,19.35-12,5.74-3.31,11.56-6.45,17.45-9.48a116.21,116.21,0,0,1-9.18,12.88c-4,5-8.24,9.91-12.41,14.81q-12.85,15.11-26.06,29.9-7.42,8.33-15,16.56a.84.84,0,0,0,1.19,1.18c8-7.77,15.93-15.54,24.2-23a276,276,0,0,1,25.94-21q6.48-4.56,13.33-8.56c-5.58,10.18-13.45,18.88-21.66,27-4.54,4.5-9.19,8.88-13.75,13.35q-7.65,7.51-15,15.29-8.27,8.73-16.18,17.8a.83.83,0,0,0,1.18,1.18q14.47-13.62,29.16-27t29.57-26.59q6-5.32,12.06-10.61a138.7,138.7,0,0,1-12.6,14.38Q192.54,322.27,182.85,332Z"/><path class="cls-7" d="M224.32,211.75a17.64,17.64,0,0,0-7.45-2.63c-3.3-.53-6.72-.78-10.07-1.09L206,208a60,60,0,0,0,6.91-2.24c3-1.23,6.13-2.83,8-4.91s2.23-4.66-1-6a24.73,24.73,0,0,0-5.26-1.19q-3.28-.56-6.6-1.06t-6.71-.95a7.13,7.13,0,0,0-2.23-1.77,27.52,27.52,0,0,0-7.68-2.34l1.84-.25c.84-.12.76-.95,0-1.1q-7.78-1.54-15.37-3.5a6.62,6.62,0,0,0,2.94-4.12c.38-2.32-1.42-4.54-3.94-6-3-1.73-6.78-2.44-10.56-2.83A186.27,186.27,0,0,0,140.1,169l-1.9.09-.43-.18q-7.25-3.18-14.1-6.74c-.86-.45-1.69.54-.85,1q6.18,3.21,12.69,6.12a73.64,73.64,0,0,0-17.94,3.28c-3.11,1.05-7,2.39-7.31,5a4.78,4.78,0,0,0,1.69,3.82c-.74.15-.91,1,0,1.09l1.67.24a11.43,11.43,0,0,0,1.12.67c5.43,2.92,13,3.24,19.62,3.84q5.63.49,11.3.91-7.19.13-14.3.7A152.13,152.13,0,0,0,108,192.39a101.19,101.19,0,0,0-11,3.22c-1.34.48-2.85,1.21-2.87,2.35s1.1,1.72,2.34,2.11a41.64,41.64,0,0,0,5.66,1.09l6.5,1.08,4.86.79c-5.24,0-.45,0-5.69.07-8.13.1-9.09.39-16.77,2.39-.71.19-.87,1,0,1.11,14.7,2.34,18.78,4.51,33.73,5.94-1.28.57-9.18,1.2-10.25,1.92-1.86,1.23-2.88,3.07-1.28,4.66,1.35,1.35,3.8,2.07,6.06,2.45.37.07.75.12,1.13.18a11.69,11.69,0,0,0-.12,1.19,10.26,10.26,0,0,0,.32,3c-3.33.82-6.63,2-8.4,4.14a4.63,4.63,0,0,0-1.06,2.09c-.07.3.1.62.58.7l2,.32a5.76,5.76,0,0,0-2.13,1.84c-.19.28-.13.61.3.78a22.67,22.67,0,0,0,8.2,1.13c3.18,0,6.36-.18,9.52-.36,1.75-.1,3.49-.23,5.23-.36a42.31,42.31,0,0,0,5.05.47,110.4,110.4,0,0,0,17.93-1.34q9.72-1.25,19.27-3A255.07,255.07,0,0,0,214,222.61c1.44-.51,2.87-1,4.3-1.56.7-.26.41-1.11-.43-1.06q-6.63.38-13.27.86c7.08-2.16,14-4.67,19.7-8.3A.45.45,0,0,0,224.32,211.75Zm-15.8-18q3.15.48,6.29,1a14.5,14.5,0,0,1,4.74,1.23c2.93,1.74-.3,4.69-2.3,6a34.34,34.34,0,0,1-8.8,4c-1.94.62-3.95,1.15-6,1.63-5.46-.47-10.93-.87-16.42-1.15a6.81,6.81,0,0,0-2.23-1,69.06,69.06,0,0,0,10.3-5q2.15-1.25,4.2-2.55a9.9,9.9,0,0,0,3.32-2.95,2.76,2.76,0,0,0,.32-2.21C204.16,193.11,206.34,193.42,208.52,193.76Zm-81.23,18.41c-1.3-.09-2.6-.19-3.89-.3a60.25,60.25,0,0,1,7.24-1.77A31.56,31.56,0,0,0,127.29,212.17Zm.69,1.2a290.54,290.54,0,0,0,47.93-.25c-1.39.61-2.82,1.17-4.28,1.69a108.6,108.6,0,0,1-17.83,4.61,121.38,121.38,0,0,1-19.12,1.78c-3.24.05-6.48,0-9.7-.23l-2.63-.18A15,15,0,0,1,128,213.37Zm9-.61q-3.78-.18-7.55-.43a32.34,32.34,0,0,1,5.64-3c1.17-.17,2.35-.33,3.53-.48q5.46-.67,11-1.08c8,.77,16.35,1.46,24.33.27,1.36-.21,2.68-.47,4-.78l2.34.07,4.85.21a31.35,31.35,0,0,1-6.12,4.08A269.86,269.86,0,0,1,137,212.76Zm14.7-9.51q-14-2-27.75-4.91c-3.71-.79-8.58-1.48-11-3.75,8.37-3.14,18.6-3,27.88-3q16.32-.08,32.57,1c3.34.23,6.68.5,10,.8a77,77,0,0,0,8.62.87c.93,0,1.16-1,.22-1.13q-4.2-.47-8.41-.85a69.93,69.93,0,0,1-9.73-2.25q11.12.71,22.1,2c1.32.16,2.65.33,4,.51a2.06,2.06,0,0,1-.24,2.33,12.71,12.71,0,0,1-3.57,2.78c-1.35.84-2.73,1.67-4.14,2.47a65.57,65.57,0,0,1-9.17,4.33c-.51.2-1,.38-1.55.55l-.29,0a.87.87,0,0,0-.77-.43c-6.35-.48-12.76-.68-19.14-.56l-5.54-.2Zm6.39-19.34,1.37.89-3.57-.08q-6.21-.1-12.4-.41c-8-.39-16-1-23.89-2A365.53,365.53,0,0,1,158.09,183.91Zm3.94.91c-.36-.2-.71-.41-1.06-.63l1.65.18c1.1.11,2.19.24,3.28.36C164.62,184.8,163.32,184.83,162,184.82Zm2.62,1.09a42.65,42.65,0,0,0,6.19-.57q6.19.81,12.31,1.83c-5,.4-10.11.59-15.2.61q-2-.87-3.93-1.86Zm11.84-2.44q6.44,1.67,13,3.06l-1.94.22q-5.16-.92-10.36-1.69l-3.35-.47c.59-.2,1.17-.42,1.72-.67C175.89,183.78,176.2,183.63,176.49,183.47Zm-18.72,21.78c2.14.26,4.28.5,6.42.7l1,.09c-5.24.06-10.48.27-15.69.64l-3.29-.32a89.3,89.3,0,0,1,9.11-1ZM172,207.18a74.41,74.41,0,0,1-12.13.26l-1.71-.09Q165.06,207.08,172,207.18Zm5.33-1,.65-.07-.31.08Zm4.48.05.69.13-.95,0Zm-39.51-.26c-2.52-.3-5-.61-7.54-.94l-5.08-.68q9.89.13,19.75.43A72.11,72.11,0,0,0,142.28,205.93Zm1.22,1.27-2.46.25-.22,0c.54-.14,1.08-.28,1.63-.4Zm40.39,3.05a27.2,27.2,0,0,0,3-2.37.31.31,0,0,0,.11-.2q5.91.31,11.8.79l-1.09.23c-3.91.82-7.88,1.51-11.88,2.09-1.16.17-2.32.32-3.49.47C182.86,210.93,183.38,210.6,183.89,210.25ZM197,190.18a9.53,9.53,0,0,1,1.95,1.07q-8.41-1.06-16.91-1.78c-2.82-.24-5.67-.45-8.52-.64,4.49-.13,9-.4,13.42-.85l.58-.07A45.44,45.44,0,0,1,197,190.18Zm-38.3-20c6.78.36,16.28.58,19.73,5.39,1.46,2,.72,4.32-1.42,6-.26.2-.54.39-.83.57q-5.84-1.53-11.52-3.3c-8.28-2.58-16.33-5.52-24.06-8.79C146.59,169.82,152.67,169.91,158.67,170.22Zm-44.61,5a42,42,0,0,1,9.66-3.21,80.67,80.67,0,0,1,10.95-1.59c1-.09,2.06-.16,3.09-.23q5.3,2.31,10.79,4.39A271.7,271.7,0,0,0,174.62,183a18.1,18.1,0,0,1-3.88,1.2q-5.91-.76-11.86-1.33c-1-.66-1.88-1.34-2.76-2.05-.7-.56-1.87.26-1.18.81.42.34.85.67,1.28,1-10.37-.91-20.82-1.39-31.28-1.43-3.66,0-7.33,0-11,.13a5.23,5.23,0,0,1-2-2.92C111.73,177.05,112.54,176,114.06,175.24Zm16.82,10.5a78,78,0,0,1-9.36-1.27,27.12,27.12,0,0,1-4.24-1.28c7,.89,14,1.53,21,2q6.67.42,13.36.61c3.25.09,6.51.19,9.77.18,1.13.64,2.31,1.25,3.52,1.83-7.22-.06-14.44-.44-21.6-1Q137.09,186.35,130.88,185.74Zm-21.3,15.47c-2.11-.34-4.23-.69-6.34-1.05-1.84-.31-3.81-.52-5.58-1-1.33-.35-2.56-1.12-1.18-2a10.74,10.74,0,0,1,2-.84c.91-.31,1.84-.62,2.77-.91a128.6,128.6,0,0,1,22-4.65c15.23-2,31-1.85,46.35-1,1.77.67,3.61,1.27,5.48,1.8-5.38-.38-10.78-.68-16.18-.87s-11.09-.29-16.63-.29c-5.2,0-10.44,0-15.61.39a51,51,0,0,0-15.37,3.1c-.39.16-.53.51-.3.78,2,2.34,5.86,3.31,9.43,4.1q7.2,1.59,14.52,2.93,5.11.93,10.31,1.78h-.19q-11.94-.31-23.88-.42Q115.38,202.18,109.58,201.21Zm-6,6.16q-4.62-.69-9.24-1.43c5.86-1.2,4.65-1.54,10.75-1.65,7.59-.15,5.15-.14,12.74-.1l3.24,0,.79.12c5.76.87,11.53,1.68,17.33,2.37a46.07,46.07,0,0,0-4.6,1.57c-4.24.62-1.72,1.44-5.64,2.71q-.92.3-1.83.63C115.6,210.57,114.89,209.06,103.56,207.37Zm13.59,12.47c-2-.67-3.87-1.94-2.65-3.52a9.32,9.32,0,0,1,3-2.09,34,34,0,0,1,3.25-1.44l5.16.43a15.07,15.07,0,0,0-5.24,7.39A18.56,18.56,0,0,1,117.15,219.84Zm13.37,14c1.67-.06,3.33-.15,5-.26,7.77-.54,15.5-1.43,23.14-2.55q8.29-1.2,16.45-2.83-3.9,1-7.85,1.9A230.53,230.53,0,0,1,135,235,24.85,24.85,0,0,1,130.52,233.87Zm53-8.64a321.12,321.12,0,0,1-45.18,7c-3.38.28-6.78.48-10.18.54a14,14,0,0,1-2.1-1.41l3.11-.51q10.6-1.74,21.3-3.21,19.64-2.7,39.52-4.49c-.87.41-1.77.8-2.69,1.17Zm-58.26,7.29.41.29c-2.13,0-4.26-.08-6.38-.23,1.63-.34,3.28-.63,4.94-.9A12.51,12.51,0,0,0,125.27,232.52Zm67.43-10.73q-9.49.83-19,1.85-22,2.4-43.73,5.93l-5,.8a10.67,10.67,0,0,1-2.38-3.72c2.36-.52,4.8-.91,7.2-1.33,3.09-.52,6.18-1,9.29-1.48,12.52-1.87,25.2-3.19,38-4q5.31-.31,10.64-.51c1.78-.06,3.56-.12,5.34-.16.64,0,2.62-.13,3,.43A31.14,31.14,0,0,1,192.7,221.79ZM113,231.85c1-2.51,4.6-3.93,8-4.82a11.54,11.54,0,0,0,2.22,3.63c-1.52.26-3,.54-4.53.85a24.53,24.53,0,0,0-2.83.75C114.9,232.14,113.93,232,113,231.85Zm8.9,3.87a26.27,26.27,0,0,1-8.34-.69,7,7,0,0,1,2.61-1.59,92.9,92.9,0,0,0,11.45.5,21,21,0,0,0,3.48,1.37C128,235.51,124.94,235.64,121.87,235.72ZM164,233.31c-5.91.87-11.91,1.72-17.94,2.09-1.45.09-2.93.15-4.42.14,2.39-.25,4.78-.55,7.15-.88q9.44-1.31,18.6-3.36a170.42,170.42,0,0,0,17.14-4.64c1.2-.41,2.39-.84,3.55-1.3q5.7-1.4,11.29-3,7.23-.57,14.5-1a245.53,245.53,0,0,1-31.47,8.68C176.35,231.31,170.2,232.39,164,233.31Zm35-12-3.34.27c.35-.23.7-.46,1-.7s1.07-.64,1.08-1.09c0-1.83-3.84-1.71-5.55-1.66q-4.94.12-9.85.36c-13.3.64-26.54,1.88-39.61,3.69-6.44.9-12.88,1.89-19.21,3.12l-1.29.27a8.93,8.93,0,0,1-.15-3.59c2.19.21,4.44.28,6.61.35a126,126,0,0,0,20.29-1,117.28,117.28,0,0,0,19.25-4.13,70.79,70.79,0,0,0,11.44-4.46,192,192,0,0,0,23-3.93q4.51.39,9,.85a42.51,42.51,0,0,1,8.21,1.33,11.72,11.72,0,0,1,2.64,1.16c-5.15,3.14-11.28,5.41-17.54,7.36C203,220.11,201,220.7,199,221.27Z"/><path class="cls-1" d="M213.88,197.22c18.57-2.89,73.35-27.49,81.35-30.93,7.28-3.13,61-42,73.25-57.21"/><path class="cls-8" d="M123.27,411.42c27.38-22.34,107-125.76,93.13-101.08S115.27,437.63,128.51,426.69s107-131,87.24-99S119,458.39,136.38,439.18s123-129.38,68.85-68.94C184.45,393.42,145,416.57,131.65,483c-5,24.84,67.78-95.79,67.78-95.79S137.91,494,137.5,506.94s63.76-97.4,63.76-97.4S155.2,502,153,525.36s49.77-86.48,49.77-86.48l-24.41,91.67L206,469.78l-4.61,64.13"/></g></g></svg>