<?xml version="1.0" encoding="utf-8"?>
<!-- Generator: Adobe Illustrator 25.0.0, SVG Export Plug-In . SVG Version: 6.00 Build 0)  -->
<svg version="1.1" id="Lag_1" xmlns="http://www.w3.org/2000/svg" xmlns:xlink="http://www.w3.org/1999/xlink" x="0px" y="0px"
	 viewBox="0 0 534.7 426" style="enable-background:new 0 0 534.7 426;" xml:space="preserve">
<style type="text/css">
	.st0{fill:#F76566;}
	.st1{fill:#30809C;}
</style>
<g id="Lag_1-2">
	<path class="st0" d="M6.5,421.5c-0.1-2-0.3-5-0.6-9.2s-0.7-8.8-1.1-13.9S4,387.8,3.7,382S3,370.7,2.6,365.6s-0.6-9.8-0.9-13.9
		s-0.5-7.2-0.6-9.2c-0.1-1.5-0.2-3-0.2-4.5c0-2.1-0.1-4.4-0.2-6.8s-0.2-4.7-0.2-6.8s-0.1-3.6-0.1-4.5c1.2,0,2.5,0.3,3.6,0.8
		c1.1,0.6,2,1.5,2.6,2.6c0.2,2,0.4,4.8,0.6,8.5s0.5,7.8,0.8,12.6c0.3,4.8,0.6,9.8,0.9,15.2s0.6,10.8,0.9,16.1
		c0.3-0.4,0.6-0.9,0.9-1.3c0.2-0.2,0.4-0.5,0.6-0.7c1-1.1,2.3-2.5,3.7-4s2.9-3.1,4.5-4.7s3.1-3.2,4.7-4.8l4.3-4.3
		c1.3-1.3,2.3-2.3,3.2-3.1s1.4-1.1,1.6-1.1l5.4,2.7c-1.6,1.4-3.5,3.1-5.5,5s-4.1,3.9-6.1,6s-3.9,4.4-5.8,6.7
		c-1.7,2.2-3.2,4.5-4.5,6.9c0,0.2,0,0.4-0.1,0.6c0,0.3-0.1,0.6-0.1,0.8c0,0.2,0,0.4,0.1,0.6c0,0.2,0,0.4,0.1,0.6l32.8,38.2
		c0,0.2,0,0.4,0.1,0.6c0,0.3,0.1,0.5,0.1,0.7c0,1.8-1.1,3.5-2.8,4.1l-35.5-40.9c-0.1-0.2-0.3-0.3-0.4-0.5c-0.2-0.3-0.3-0.5-0.5-0.8
		l1.6,27.6c0,0.5,0,1.4,0.1,2.7s0.1,2.8,0.1,4.3s0.1,3,0.1,4.4s0.1,2.3,0.1,2.8c-1.2,0-2.3-0.3-3.4-0.8
		C7.9,423.6,6.9,422.7,6.5,421.5z"/>
	<path class="st0" d="M70.9,370.2c0-0.5,0.3-0.9,0.9-1.4c0.7-0.5,1.5-0.9,2.3-1.1c0.8-0.3,1.7-0.5,2.6-0.6s1.5,0,1.8,0.4
		c0.6,11.8,1.7,21.1,3.3,28.1s3.6,12.1,5.7,15.3s4.4,4.9,6.9,4.9c2.7-0.1,5.3-1.2,7.3-3.1c2.7-2.5,4.9-5.4,6.6-8.7
		c2-3.8,3.7-7.8,5-11.9c1.3-4.2,2.1-8.5,2.3-12.8c0.3-3.8,0-7.7-1.1-11.4l8.5-1c0.1,1.4,0.4,3.8,0.8,7s0.9,7,1.4,11.1
		s1.1,8.4,1.8,12.9s1.2,8.6,1.7,12.4s0.9,7.1,1.3,9.8s0.6,4.4,0.6,5h-6.1l-6.7-24.6c-1.3,3.3-2.9,6.5-4.8,9.5
		c-1.8,2.9-3.9,5.5-6.2,8c-2,2.2-4.4,3.9-7,5.3c-2.2,1.2-4.8,1.8-7.3,1.6c-2.6-0.3-5.1-1.5-7-3.3c-2.3-2-4.4-5.1-6.3-9.5
		c-2.2-5.4-3.9-11-5-16.7C72.4,387.1,71.3,378.7,70.9,370.2z"/>
	<path class="st0" d="M152.7,424.7c-0.2-1.5-0.4-3.7-0.5-6.6s-0.3-6.2-0.4-9.8s-0.3-7.5-0.4-11.4s-0.2-7.8-0.3-11.4
		s-0.2-6.8-0.4-9.7c-0.1-2.2-0.3-4.4-0.6-6.6c0-0.2,0-0.5-0.1-0.7c0-0.4-0.1-0.8-0.1-1.3s-0.1-0.9-0.1-1.2v-0.8
		c1.4-1.1,2.6-1.5,3.6-1.1c1.1,0.5,2,1.4,2.5,2.5c0.7,1.5,1.2,3.1,1.4,4.8c0.3,1.9,0.5,3.8,0.6,5.7c0.1,1.9,0.2,3.6,0.2,5.2v3.3
		c0.2-1.6,0.5-3.5,0.9-5.7c0.4-2.3,1-4.5,1.7-6.7c0.8-2.3,1.7-4.6,2.8-6.8c1-2.2,2.4-4.2,4.1-5.9c1.6-1.7,3.4-3,5.5-4
		c2.2-0.9,4.6-1.3,7-1.1c3.7,0,7.3,1.2,10.3,3.4c2.8,2.2,5,5.1,6.4,8.4c1.7,3.9,2.8,7.9,3.4,12.1c0.7,4.8,1.2,9.6,1.4,14.5
		c0.2,5.1,0.3,10.3,0.2,15.6s-0.1,10.3-0.1,15.1c-0.9,0.2-1.8,0.5-2.6,0.9c-0.7,0.3-1.4,0.5-2.1,0.6c-0.6,0-1-0.5-1.2-1.3
		c-0.2-1.6-0.2-3.2,0.2-4.8c0.1-1.7,0.3-4.3,0.5-7.9s0.3-7.5,0.3-11.9c0-4.5-0.3-9-0.8-13.5c-0.4-4.3-1.3-8.6-2.6-12.7
		c-1.1-3.5-3-6.7-5.5-9.4c-2.4-2.4-5.8-3.7-9.2-3.6c-3.9,1.6-7.1,4.6-9.7,9.1c-2.8,4.9-4.9,10.1-6.3,15.6
		c-1.7,6.4-2.8,12.9-3.4,19.4c-0.7,7-1.1,13.8-1.2,20.4c-0.4-0.1-0.7-0.1-1.1-0.1c-0.6,0-1.1,0-1.7-0.1c-0.6,0-1.1-0.1-1.7-0.2
		C153.3,424.9,153,424.8,152.7,424.7z"/>
	<path class="st0" d="M230.2,413.8c1.7,0,3.3,0.3,4.8,1s2.9,1.4,4.3,2.2c1.4,0.8,2.8,1.5,4.3,2.1s3.2,0.9,4.8,0.9
		c2.1,0,4.2-0.4,6.2-1.1c2.1-0.7,4.1-1.7,5.9-3c1.8-1.2,3.3-2.8,4.4-4.7c1.1-1.8,1.7-3.9,1.7-6c0.1-0.8,0.1-1.6,0.1-2.4
		c-0.1-1-0.4-2-0.9-2.9c-0.7-1.1-1.7-2.1-2.8-2.8c-1.8-1.1-3.7-1.8-5.8-2.1c-3.1-0.5-6.3-0.8-9.5-0.8c-4.7,0-9.4,0.4-14.1,1.1
		c-1.5,0-2.9-0.4-4.1-1.2c-1.3-0.8-2.5-1.8-3.6-3c-1-1.2-1.9-2.5-2.6-3.8c-0.6-1.2-1-2.5-1-3.9c-0.1-3.2,0.7-6.3,2.3-9
		c1.5-2.3,3.6-4.2,6-5.5c2.6-1.4,5.3-2.4,8.2-2.9c3-0.6,6.1-0.9,9.2-0.9c1.4,0,3.1,0.1,4.9,0.2c1.7,0.1,3.5,0.5,5.1,1.1
		c1.6,0.6,2.9,1.6,4,2.9c1.2,1.6,1.7,3.5,1.6,5.5c0,1-0.3,2-0.8,2.9c-0.3,0.3-0.8,0.2-1.4-0.3c-0.8-0.7-1.5-1.4-2.2-2.2
		c-1-1-2-1.9-3.1-2.8c-1.3-1-2.8-1.7-4.3-2.1c-1.8-0.5-3.8-0.5-5.6,0c-2.2,0-4.4,0.2-6.5,0.6s-4.1,1.1-5.9,2.2
		c-1.8,1-3.3,2.5-4.3,4.3c-1.1,2.1-1.7,4.4-1.6,6.8c-0.1,1.3,0.7,2.5,1.9,2.9c1.6,0.6,3.4,0.8,5.1,0.8c2.1,0,4.5-0.1,7.3-0.2
		s5.5-0.2,8.3-0.2c2.7,0,5.5,0.2,8.2,0.6c2.5,0.3,4.9,1.2,7,2.6s3.7,3.3,4.8,5.5c1.2,2.9,1.7,6.1,1.3,9.2c0,2.8-0.8,5.5-2.3,7.8
		c-1.6,2.5-3.6,4.7-6,6.5s-5.1,3.3-8,4.3c-2.7,1-5.6,1.4-8.5,1.1c-1.6-0.2-3.1-0.5-4.6-0.9c-2-0.6-3.9-1.3-5.7-2.2
		c-1.8-0.9-3.4-2.1-4.8-3.5C230.8,417.2,230.1,415.6,230.2,413.8z"/>
	<path class="st0" d="M310.7,373.8c-1.1-0.3-2.3-0.5-3.5-0.4c-1.6,0-3.1,0.1-4.7,0.3c-1.7,0.1-3.2,0.3-4.8,0.5
		c-1.3,0.2-2.5,0.3-3.8,0.3c-0.5,0-0.8-0.7-0.9-2.1s-0.4-3.2-0.6-5.6l20-1.4c0.3-3.3,0.5-5.7,0.6-7.1s0.1-2.6,0.1-3.6
		s-0.1-2.1-0.1-3.4s-0.1-3.3-0.1-6c1.8-0.3,3.7-0.5,5.6-0.4c1,0,1.9,0.4,2.6,1.1c0.5,0.7,0.8,1.6,0.6,2.5c-0.1,1.4-0.2,2.7-0.4,4.1
		c-0.2,1.6-0.4,3.6-0.6,5.8c-0.1,2.6-0.1,5.1,0.2,7.7l17.1-0.6v7c-0.8,0-1.9,0-3.6,0.1l-5.2,0.3c-1.8,0.1-3.6,0.2-5.1,0.3
		c-1.2,0-2.4,0.2-3.5,0.6c-0.8,3.4-1.6,7.1-2.4,10.9c-0.9,3.8-1.4,7.6-1.7,11.5c-0.3,3.5-0.2,7.1,0.3,10.6
		c0.6,6.3,5.4,11.5,11.7,12.5c3.5,0.8,8.2,0.5,13.9-0.8c-0.1,1.3-0.7,2.5-1.6,3.5c-0.9,0.9-1.9,1.6-3.1,2.1s-2.5,0.9-3.8,1.1
		c-1.2,0.2-2.4,0.4-3.6,0.4c-4.8,0-8.7-0.9-11.5-2.6c-2.7-1.7-4.9-4.1-6.4-6.9c-1.5-3.1-2.4-6.3-2.7-9.7c-0.4-3.7-0.5-7.5-0.4-11.2
		c0.1-3.8,0.4-7.5,0.8-11.2C310.4,380.7,310.6,377.2,310.7,373.8z"/>
	<path class="st0" d="M364,424.7c-0.2-1.5-0.4-3.7-0.5-6.6s-0.3-6.2-0.4-9.8s-0.3-7.5-0.4-11.4s-0.2-7.8-0.3-11.4s-0.2-6.8-0.4-9.7
		c-0.1-2.2-0.3-4.4-0.6-6.6c0-0.2,0-0.5-0.1-0.7c0-0.4-0.1-0.8-0.1-1.3s-0.1-0.9-0.1-1.2v-0.8c1.4-1.1,2.6-1.5,3.6-1.1
		c1.1,0.5,2,1.4,2.5,2.5c0.7,1.5,1.2,3.1,1.4,4.8c0.3,1.9,0.5,3.8,0.6,5.7c0.1,1.9,0.2,3.6,0.2,5.2v3.3c0.2-1.6,0.5-3.5,0.9-5.7
		c0.4-2.3,1-4.5,1.7-6.7c0.8-2.3,1.7-4.6,2.8-6.8c1-2.2,2.4-4.2,4.1-5.9c1.6-1.7,3.4-3,5.5-4c2.2-0.9,4.6-1.3,7-1.1
		c3.7,0,7.3,1.2,10.3,3.4c2.8,2.2,5,5.1,6.4,8.4c1.7,3.9,2.8,7.9,3.4,12.1c0.7,4.8,1.2,9.6,1.4,14.5c0.2,5.1,0.3,10.3,0.2,15.6
		s-0.1,10.3-0.1,15.1c-0.9,0.2-1.8,0.5-2.6,0.9c-0.7,0.3-1.4,0.5-2.1,0.6c-0.6,0-1-0.5-1.2-1.3c-0.2-1.6-0.2-3.2,0.2-4.8
		c0.1-1.7,0.3-4.3,0.5-7.9s0.3-7.5,0.3-11.9c0-4.5-0.3-9-0.8-13.5c-0.4-4.3-1.3-8.6-2.6-12.7c-1.1-3.5-3-6.7-5.5-9.4
		c-2.4-2.4-5.8-3.7-9.2-3.6c-3.9,1.6-7.1,4.6-9.7,9.1c-2.8,4.9-4.9,10.1-6.3,15.6c-1.7,6.4-2.8,12.9-3.4,19.4
		c-0.7,7-1.1,13.8-1.2,20.4c-0.4-0.1-0.7-0.1-1.1-0.1c-0.6,0-1.1,0-1.7-0.1c-0.6,0-1.1-0.1-1.7-0.2
		C364.6,424.9,364.3,424.8,364,424.7z"/>
	<path class="st0" d="M435,392c0.1-3.2,0.7-6.5,1.8-9.5c1.2-3.5,2.9-6.7,5-9.7c2-2.9,4.5-5.4,7.3-7.5c2.4-1.9,5.4-3,8.5-3.1
		c1.7,0,3.3,0.3,4.8,1c1.6,0.7,3.1,1.5,4.5,2.6c1.5,1.1,2.8,2.3,4,3.7c1.1,1.3,2.1,2.7,2.8,4.3c0.6,1.4,1,2.9,1.1,4.4
		c0,1.3-0.4,2.6-1.2,3.7l-30,5.5c-0.4,0.1-0.7,0.5-1,1.4c-0.3,1-0.6,2-0.7,3.1c-0.2,1.2-0.4,2.6-0.5,4.1s-0.3,2.9-0.4,4.3
		s-0.1,2.6-0.1,3.7v2.5c-0.1,2.3,0.5,4.6,1.9,6.5c1.3,1.7,3,3,4.9,3.8c2.2,0.9,4.5,1.5,6.8,1.7c2.5,0.3,5,0.4,7.5,0.4s4.8-0.1,7-0.3
		s4-0.3,5.4-0.3c0,0.5-0.1,0.9-0.4,1.3c-0.3,0.5-0.6,1-1,1.4l-1.1,1.1c-0.2,0.2-0.5,0.4-0.7,0.6c-0.8,0.2-1.9,0.5-3.5,0.8
		s-3.2,0.6-5,0.9s-3.4,0.5-4.9,0.7c-1,0.2-2.1,0.3-3.1,0.3c-2.5,0.6-5.2,0.5-7.7-0.1c-2.1-0.6-4-1.8-5.5-3.4
		c-1.6-1.7-2.8-3.7-3.7-5.9c-1-2.4-1.7-4.9-2.1-7.5c-0.5-2.7-0.7-5.5-0.8-8.2C434.6,397.5,434.6,394.8,435,392z M455.6,367.6
		c-1.2,0.1-2.3,0.6-3.3,1.3c-1.4,0.9-2.7,2.1-3.8,3.4c-1.2,1.3-2.2,2.8-3,4.4c-0.8,1.2-1,2.7-0.8,4.1c2.6,0.3,5.1,0.2,7.7-0.1
		c2.5-0.4,4.9-1,7.3-1.8c1.9-0.7,3.7-1.6,5.4-2.8c1.4-1.1,2.1-2.2,2.1-3.3s-0.9-2.2-2.7-3.1C461.6,368.6,458.6,367.9,455.6,367.6
		L455.6,367.6z"/>
	<path class="st0" d="M495.6,369.9c0.9-0.5,2-0.6,3-0.3c0.9,0.3,1.6,0.8,2.1,1.6c0.6,0.8,1,1.7,1.3,2.6c0.3,1,0.5,2,0.7,2.9
		c1.2-2.1,3.1-3.9,5.3-5c2.3-1.3,4.9-2.2,7.5-2.6s5.3-0.5,8-0.3c2.4,0.1,4.7,0.7,6.8,1.7c1.7,0.8,3,2.1,3.9,3.7
		c0.8,1.6,0.6,3.4-0.6,5.5c-2.4-1.4-5-2.6-7.7-3.4c-2.5-0.8-5.2-1.1-7.9-0.9c-2.6,0.3-5,1.3-7.1,2.9c-2.5,2.1-4.4,4.8-5.4,7.9
		c-1.6,4.6-2.5,9.4-2.6,14.3c-0.2,7.4,0.2,14.8,1.2,22.1h-5.4c-0.3-3.1-0.5-6-0.6-8.5s-0.3-5.4-0.6-8.5s-0.5-6.3-0.6-9.5
		s-0.4-6.3-0.5-9.3s-0.3-5.6-0.5-7.7c0-0.6,0-1.1-0.1-1.7c0-0.9-0.1-1.8-0.1-2.8v-2.8C495.6,371.2,495.6,370.6,495.6,369.9z"/>
	<path class="st1" d="M1.6,0.4C5.2,0.8,8.7,1.7,12,3.2c3.1,1.5,5.6,4.1,7,7.3c0,4.7,0.2,11.3,0.6,19.7s0.8,18,1.3,29
		s0.9,22.8,1.5,35.6s1.1,25.6,1.7,38.6s1.1,25.8,1.5,38.6s0.8,24.6,1.3,35.6s0.8,20.7,1.1,29.2s0.6,15,0.9,19.5
		c0,0.5-0.1,1.4-0.2,2.6s-0.3,2.8-0.4,4.5s-0.3,3.4-0.4,5.1s-0.2,2.8-0.2,3.6c-0.3,1.8-0.4,3.6-0.4,5.4c0,2.1-0.3,4.2-0.9,6.2
		s-1.5,3.8-2.8,5.4s-3.3,2.6-6.2,2.8l-7.2-7.9c-0.3-0.2-0.6-4.9-1.1-14s-1-21-1.7-35.6S6.1,203.3,5.5,185s-1.2-36.9-1.9-55.6
		S2.3,92.7,1.7,75.5s-1-32.1-1.3-44.6c0-1,0.1-3,0.2-6s0.3-6.1,0.4-9.2s0.3-6.1,0.4-9S1.6,1.7,1.6,0.4z"/>
	<path class="st1" d="M116.8,146.1c2.9,0,5.8-0.1,8.7-0.4c2.4-0.2,4.5,1,6.2,3.7c0.9,11.2,1.8,22.7,3,34.3s2.3,23.3,3.4,35
		s1.9,23.5,2.3,35.4s0.5,23.4,0.2,34.6c0,1.5-0.4,2.4-1.3,2.8c-1.2,0.4-2.4,0.6-3.6,0.4c-1.6-0.1-3.4-0.3-5.5-0.4
		c-2.3-0.1-4.7,0.1-7,0.6L116.8,146.1z"/>
	<path class="st1" d="M219.7,0.4c3.6,0.4,7.1,1.3,10.4,2.8c3.1,1.6,5.6,4.1,7,7.3c0,4.7,0.2,11.3,0.6,19.7s0.8,18,1.3,29
		s0.9,22.8,1.5,35.6s1.1,25.6,1.7,38.6s1.1,25.8,1.5,38.6s0.8,24.6,1.3,35.6s0.8,20.7,1.1,29.2s0.6,15,0.9,19.5
		c0,0.5-0.1,1.4-0.2,2.6s-0.3,2.8-0.4,4.5s-0.3,3.4-0.4,5.1s-0.2,2.8-0.2,3.6c-0.3,1.8-0.4,3.6-0.4,5.4c0,2.1-0.3,4.2-0.9,6.2
		c-0.6,2-1.5,3.8-2.8,5.4s-3.3,2.6-6.2,2.8l-7.2-7.9c-0.3-0.2-0.6-4.9-1.1-14s-1-21-1.7-35.6s-1.3-31.1-1.9-49.4s-1.2-36.9-1.9-55.6
		s-1.3-36.7-1.9-53.9s-1-32.1-1.3-44.6c0-1,0.1-3,0.2-6s0.3-6.1,0.4-9.2s0.3-6.1,0.4-9S219.7,1.7,219.7,0.4z"/>
	<path class="st1" d="M317.7,0.4c3.6,0.4,7.1,1.3,10.4,2.8c3.1,1.6,5.6,4.1,7,7.3c0,4.7,0.2,11.3,0.6,19.7s0.8,18,1.3,29
		s0.9,22.8,1.5,35.6s1.1,25.6,1.7,38.6s1.1,25.8,1.5,38.6s0.8,24.6,1.3,35.6s0.8,20.7,1.1,29.2s0.6,15,0.9,19.5
		c0,0.5-0.1,1.4-0.2,2.6s-0.3,2.8-0.4,4.5s-0.3,3.4-0.4,5.1s-0.2,2.8-0.2,3.6c-0.3,1.8-0.4,3.6-0.4,5.4c0,2.1-0.3,4.2-0.9,6.2
		s-1.5,3.8-2.8,5.4s-3.3,2.6-6.2,2.8l-7.2-7.9c-0.3-0.2-0.6-4.9-1.1-14s-1-21-1.7-35.6s-1.3-31.1-1.9-49.4s-1.2-36.9-1.9-55.6
		s-1.3-36.7-1.9-53.9s-1-32.1-1.3-44.6c0-1,0.1-3,0.2-6s0.3-6.1,0.4-9.2s0.3-6.1,0.4-9S317.7,1.7,317.7,0.4z"/>
	<path class="st1" d="M415.4,203.5c0-7.5,1.8-15.8,5.5-24.9c3.7-9.2,8.8-17.8,15.1-25.5c6.2-7.7,13.5-14.4,21.7-19.9
		c8.1-5.4,16.5-8.1,25.3-8.1c4.9,0,9.7,0.9,14.3,2.6c4.8,1.8,9.3,4.1,13.6,6.9c4.3,2.8,8.3,6,11.9,9.7c3.3,3.4,6.1,7.2,8.3,11.4
		c1.9,3.6,2.9,7.6,3.2,11.6c0.2,3.6-1.1,7.1-3.6,9.7l-89.9,14.6c-1.1,0.3-2.1,1.4-3,3.6c-1,2.6-1.7,5.3-2.1,8.1
		c-0.6,3.2-1.1,6.8-1.5,10.7s-0.8,7.6-1.1,11.2s-0.4,6.9-0.4,9.7v6.6c0,7,1.9,12.7,5.8,17c4,4.5,9,7.9,14.7,9.9
		c6.5,2.3,13.3,3.8,20.2,4.5c7.5,0.7,15,1.1,22.4,1.1s14.3-0.2,20.9-0.8c6.6-0.6,11.9-0.7,16.2-0.7c-0.1,1.2-0.5,2.4-1.3,3.4
		c-0.9,1.3-1.9,2.5-3,3.6s-2.3,2.1-3.4,3s-1.8,1.4-2.1,1.7c-2.3,0.5-5.8,1.2-10.4,2.1s-9.7,1.7-14.9,2.4s-10.2,1.4-14.7,1.9
		s-7.7,0.8-9.4,0.8c-8.8,1.5-16.5,1.4-23-0.4c-6.2-1.5-11.9-4.6-16.6-9c-4.6-4.4-8.4-9.7-11.1-15.5c-2.9-6.3-5-12.9-6.4-19.7
		c-1.4-7.1-2.2-14.4-2.3-21.7C414.2,217.9,414.6,210.7,415.4,203.5z M477.2,139.4c-2.6,0-5.9,1.2-10,3.6c-4.2,2.5-8.1,5.5-11.5,9
		c-3.5,3.5-6.4,7.4-8.9,11.6c-2.4,4.1-3.2,7.7-2.3,10.7c7.7,0.8,15.4,0.6,23-0.4c7.4-0.9,14.6-2.5,21.7-4.7
		c5.7-1.7,11.2-4.3,16.2-7.5c4.3-2.9,6.3-5.8,6.2-8.8s-2.8-5.7-8.1-8.1S489.4,140.6,477.2,139.4L477.2,139.4z"/>
	<path class="st0" d="M107.4,82.3c0-1.9,0.1-3.8,0.4-5.7c0.2-2,0.8-3.9,1.7-5.7c0.8-1.7,1.9-3.2,3.3-4.4c1.4-1.2,3.2-1.9,5-1.8
		c3,0,5.9,0.1,8.9,0.4c2.9,0.2,5.7,0.8,8.5,1.7c2.5,0.8,4.8,2.2,6.7,4.1c1.7,1.8,2.6,4.5,2.6,8c-0.3,12.5-10.5,22.5-22.9,22.5
		c-4.9,0-8.5-1.9-10.7-5.7C108.5,91.5,107.3,86.9,107.4,82.3z"/>
</g>
<path class="st1" d="M-228.5,174.8c43.2,5.8,106.4,14.7,126.4,23.1c20,8.4,26.6,20.5-23.3,24.2c-49.9,3.7-139.7,6.8-169.6,5.3
	c-29.9-1.6-129.7-10-146.4-18.9s-3.3-23.7,39.9-25.8C-358.2,180.6-228.5,174.8-228.5,174.8z"/>
</svg>
