<?xml version="1.0" encoding="utf-8"?>
<!-- Generator: Adobe Illustrator 25.0.0, SVG Export Plug-In . SVG Version: 6.00 Build 0)  -->
<svg version="1.1" id="Lag_1" xmlns="http://www.w3.org/2000/svg" xmlns:xlink="http://www.w3.org/1999/xlink" x="0px" y="0px"
	 viewBox="0 0 1920 1080" style="enable-background:new 0 0 1920 1080;" xml:space="preserve">
<style type="text/css">
	.st0{fill:none;stroke:#F7DFE1;stroke-width:5;stroke-miterlimit:10;}
	.st1{fill:none;stroke:#F7DFE1;stroke-width:3;stroke-miterlimit:10;}
	.st2{fill:none;stroke:#F7DFE1;stroke-width:2;stroke-miterlimit:10;}
</style>
<path class="st0" d="M904.4,540.4c0-5.2,0.4-10.2,1.1-15.2c0.7-5.4,2.4-10.6,5-15.4c2.5-4.6,6-8.6,10.1-11.9s9.1-4.9,15.1-4.9
	c9,0,18,0.4,26.9,1c8.8,0.6,17.4,2.2,25.8,4.4c8.2,2.3,15,5.9,20.3,10.8c5.3,4.9,7.9,12,7.8,21.2c0,15.8-6.7,29.8-20.3,42
	s-30,18.2-49.3,18.2c-15,0-25.8-5-32.5-15.2C907.7,565.2,904.4,553.5,904.4,540.4z"/>
<path class="st1" d="M977.5,511.3c2.5,2.5,3.8,7.3,3,9.4c-0.8,2-4.2,6.4-6.5,6.1c-2.3-0.2-6.7-4.8-6.1-7.7c0.7-2.9,1.1-3.6,2.9-4.7
	C972.6,513.3,977.5,511.3,977.5,511.3z"/>
<path class="st1" d="M932.8,515.9c1.6,1.3,3.8,3.4,4.6,5.3c0.7,1.9,1,4.7-0.8,5.5s-5,1.6-6.1,1.2c-1.1-0.4-4.7-2.3-5.3-4.3
	s-0.1-5.4,1.4-5.9S932.8,515.9,932.8,515.9z"/>
<path class="st2" d="M960.1,536.4c1.7,0.8,1.9,4.1,0.8,5s-1.6,4.7-4.6,4s-9.2-4.7-8.9-6.6s2.5-5,4.1-5.2"/>
<path class="st1" d="M972.8,536.9c1.6,1.3,5.2,6.8,5.3,9.1c0.2,2.3-3,18.2-6.4,21.4c-3.5,3.1-9.1,4.8-12.4,4.4
	c-4.3-0.7-8.4-2.5-11.9-5c-2.9-2.4-7.9-15-9-17.3s-2.8-4.9-1.9-7.1"/>
<path class="st0" d="M637.9,393.7c0-5.2,0.4-10.2,1.1-15.2c0.7-5.4,2.4-10.6,5-15.4c2.5-4.6,6-8.6,10.1-11.9
	c4.1-3.2,9.1-4.9,15.1-4.9c9,0,18,0.4,26.9,1c8.8,0.6,17.4,2.2,25.8,4.4c8.2,2.3,15,5.9,20.3,10.8s7.9,12,7.8,21.2
	c0,15.8-6.7,29.8-20.3,42s-30,18.2-49.3,18.2c-15,0-25.8-5-32.5-15.2C641.1,418.5,637.9,406.7,637.9,393.7z"/>
<path class="st1" d="M710.9,364.6c2.5,2.5,3.8,7.3,3,9.4c-0.8,2-4.2,6.4-6.5,6.1c-2.3-0.2-6.7-4.8-6.1-7.7c0.7-2.9,1.1-3.6,2.9-4.7
	C706,366.5,710.9,364.6,710.9,364.6z"/>
<path class="st1" d="M666.2,369.2c1.6,1.3,3.8,3.4,4.6,5.3c0.7,1.9,1,4.7-0.8,5.5s-5,1.6-6.1,1.2s-4.7-2.3-5.3-4.3s-0.1-5.4,1.4-5.9
	C661.5,370.5,666.2,369.2,666.2,369.2z"/>
<path class="st2" d="M693.5,389.7c1.7,0.8,1.9,4.1,0.8,5c-1.1,1-1.6,4.7-4.6,4s-9.2-4.7-8.9-6.6c0.4-1.9,2.5-5,4.1-5.2"/>
<path class="st1" d="M706.3,390.2c1.6,1.3,5.2,6.8,5.3,9.1c0.2,2.3-3,18.2-6.4,21.4c-3.5,3.1-9.1,4.8-12.4,4.4
	c-4.3-0.7-8.4-2.5-11.9-5c-2.9-2.4-7.9-15-9-17.3s-2.8-4.9-1.9-7.1"/>
<path class="st0" d="M358.9,651.7c0-5.2,0.4-10.2,1.1-15.2c0.7-5.4,2.4-10.6,5-15.4c2.5-4.6,6-8.6,10.1-11.9
	c4.1-3.2,9.1-4.9,15.1-4.9c9,0,18,0.4,26.9,1c8.8,0.6,17.4,2.2,25.8,4.4c8.2,2.3,15,5.9,20.3,10.8c5.3,4.9,7.9,12,7.8,21.2
	c0,15.8-6.7,29.8-20.3,42s-30,18.2-49.3,18.2c-15,0-25.8-5-32.5-15.2S358.9,664.7,358.9,651.7z"/>
<path class="st1" d="M431.9,622.6c2.5,2.5,3.8,7.3,3,9.4c-0.8,2-4.2,6.4-6.5,6.1c-2.3-0.2-6.7-4.8-6.1-7.7c0.7-2.9,1.1-3.6,2.9-4.7
	C427,624.5,431.9,622.6,431.9,622.6z"/>
<path class="st1" d="M387.2,627.2c1.6,1.3,3.8,3.4,4.6,5.3c0.7,1.9,1,4.7-0.8,5.5s-5,1.6-6.1,1.2c-1.1-0.4-4.7-2.3-5.3-4.3
	c-0.6-2-0.1-5.4,1.4-5.9C382.5,628.5,387.2,627.2,387.2,627.2z"/>
<path class="st2" d="M414.5,647.7c1.7,0.8,1.9,4.1,0.8,5c-1.1,1-1.6,4.7-4.6,4s-9.2-4.7-8.9-6.6c0.4-1.9,2.5-5,4.1-5.2"/>
<path class="st1" d="M427.3,648.2c1.6,1.3,5.2,6.8,5.3,9.1c0.2,2.3-3,18.2-6.4,21.4c-3.5,3.1-9.1,4.8-12.4,4.4
	c-4.3-0.7-8.4-2.5-11.9-5c-2.9-2.4-7.9-15-9-17.3s-2.8-4.9-1.9-7.1"/>
<path class="st0" d="M743.9,741.7c0-5.2,0.4-10.2,1.1-15.2c0.7-5.4,2.4-10.6,5-15.4c2.5-4.6,6-8.6,10.1-11.9
	c4.1-3.2,9.1-4.9,15.1-4.9c9,0,18,0.4,26.9,1c8.8,0.6,17.4,2.2,25.8,4.4c8.2,2.3,15,5.9,20.3,10.8c5.3,4.9,7.9,12,7.8,21.2
	c0,15.8-6.7,29.8-20.3,42s-30,18.2-49.3,18.2c-15,0-25.8-5-32.5-15.2C747.1,766.5,743.9,754.7,743.9,741.7z"/>
<path class="st1" d="M816.9,712.6c2.5,2.5,3.8,7.3,3,9.4c-0.8,2-4.2,6.4-6.5,6.1c-2.3-0.2-6.7-4.8-6.1-7.7c0.7-2.9,1.1-3.6,2.9-4.7
	C812,714.5,816.9,712.6,816.9,712.6z"/>
<path class="st1" d="M772.2,717.2c1.6,1.3,3.8,3.4,4.6,5.3c0.7,1.9,1,4.7-0.8,5.5s-5,1.6-6.1,1.2s-4.7-2.3-5.3-4.3s-0.1-5.4,1.4-5.9
	C767.5,718.5,772.2,717.2,772.2,717.2z"/>
<path class="st2" d="M799.5,737.7c1.7,0.8,1.9,4.1,0.8,5c-1.1,1-1.6,4.7-4.6,4s-9.2-4.7-8.9-6.6c0.4-1.9,2.5-5,4.1-5.2"/>
<path class="st1" d="M812.3,738.2c1.6,1.3,5.2,6.8,5.3,9.1c0.2,2.3-3,18.2-6.4,21.4c-3.5,3.1-9.1,4.8-12.4,4.4
	c-4.3-0.7-8.4-2.5-11.9-5c-2.9-2.4-7.9-15-9-17.3s-2.8-4.9-1.9-7.1"/>
<path class="st0" d="M406.9,305.7c0-5.2,0.4-10.2,1.1-15.2c0.7-5.4,2.4-10.6,5-15.4c2.5-4.6,6-8.6,10.1-11.9
	c4.1-3.2,9.1-4.9,15.1-4.9c9,0,18,0.4,26.9,1c8.8,0.6,17.4,2.2,25.8,4.4c8.2,2.3,15,5.9,20.3,10.8c5.3,4.9,7.9,12,7.8,21.2
	c0,15.8-6.7,29.8-20.3,42c-13.6,12.2-30,18.2-49.3,18.2c-15,0-25.8-5-32.5-15.2C410.1,330.5,406.9,318.7,406.9,305.7z"/>
<path class="st1" d="M479.9,276.6c2.5,2.5,3.8,7.3,3,9.4c-0.8,2-4.2,6.4-6.5,6.1c-2.3-0.2-6.7-4.8-6.1-7.7c0.7-2.9,1.1-3.6,2.9-4.7
	C475,278.5,479.9,276.6,479.9,276.6z"/>
<path class="st1" d="M435.2,281.2c1.6,1.3,3.8,3.4,4.6,5.3c0.7,1.9,1,4.7-0.8,5.5s-5,1.6-6.1,1.2s-4.7-2.3-5.3-4.3
	c-0.6-2-0.1-5.4,1.4-5.9C430.5,282.5,435.2,281.2,435.2,281.2z"/>
<path class="st2" d="M462.5,301.7c1.7,0.8,1.9,4.1,0.8,5c-1.1,1-1.6,4.7-4.6,4s-9.2-4.7-8.9-6.6c0.4-1.9,2.5-5,4.1-5.2"/>
<path class="st1" d="M475.3,302.2c1.6,1.3,5.2,6.8,5.3,9.1c0.2,2.3-3,18.2-6.4,21.4c-3.5,3.1-9.1,4.8-12.4,4.4
	c-4.3-0.7-8.4-2.5-11.9-5c-2.9-2.4-7.9-15-9-17.3s-2.8-4.9-1.9-7.1"/>
<path class="st0" d="M832.9,185.7c0-5.2,0.4-10.2,1.1-15.2c0.7-5.4,2.4-10.6,5-15.4c2.5-4.6,6-8.6,10.1-11.9
	c4.1-3.2,9.1-4.9,15.1-4.9c9,0,18,0.4,26.9,1c8.8,0.6,17.4,2.2,25.8,4.4c8.2,2.3,15,5.9,20.3,10.8c5.3,4.9,7.9,12,7.8,21.2
	c0,15.8-6.7,29.8-20.3,42s-30,18.2-49.3,18.2c-15,0-25.8-5-32.5-15.2C836.1,210.5,832.9,198.7,832.9,185.7z"/>
<path class="st1" d="M905.9,156.6c2.5,2.5,3.8,7.3,3,9.4c-0.8,2-4.2,6.4-6.5,6.1c-2.3-0.2-6.7-4.8-6.1-7.7c0.7-2.9,1.1-3.6,2.9-4.7
	C901,158.5,905.9,156.6,905.9,156.6z"/>
<path class="st1" d="M861.2,161.2c1.6,1.3,3.8,3.4,4.6,5.3c0.7,1.9,1,4.7-0.8,5.5s-5,1.6-6.1,1.2c-1.1-0.4-4.7-2.3-5.3-4.3
	s-0.1-5.4,1.4-5.9C856.5,162.5,861.2,161.2,861.2,161.2z"/>
<path class="st2" d="M888.5,181.7c1.7,0.8,1.9,4.1,0.8,5c-1.1,1-1.6,4.7-4.6,4s-9.2-4.7-8.9-6.6c0.4-1.9,2.5-5,4.1-5.2"/>
<path class="st1" d="M901.3,182.2c1.6,1.3,5.2,6.8,5.3,9.1c0.2,2.3-3,18.2-6.4,21.4c-3.5,3.1-9.1,4.8-12.4,4.4
	c-4.3-0.7-8.4-2.5-11.9-5c-2.9-2.4-7.9-15-9-17.3s-2.8-4.9-1.9-7.1"/>
<path class="st0" d="M1200.9,258.7c0-5.2,0.4-10.2,1.1-15.2c0.7-5.4,2.4-10.6,5-15.4c2.5-4.6,6-8.6,10.1-11.9
	c4.1-3.2,9.1-4.9,15.1-4.9c9,0,18,0.4,26.9,1c8.8,0.6,17.4,2.2,25.8,4.4c8.2,2.3,15,5.9,20.3,10.8s7.9,12,7.8,21.2
	c0,15.8-6.7,29.8-20.3,42c-13.6,12.2-30,18.2-49.3,18.2c-15,0-25.8-5-32.5-15.2C1204.1,283.5,1200.9,271.7,1200.9,258.7z"/>
<path class="st1" d="M1273.9,229.6c2.5,2.5,3.8,7.3,3,9.4c-0.8,2-4.2,6.4-6.5,6.1c-2.3-0.2-6.7-4.8-6.1-7.7c0.7-2.9,1.1-3.6,2.9-4.7
	C1269,231.5,1273.9,229.6,1273.9,229.6z"/>
<path class="st1" d="M1229.2,234.2c1.6,1.3,3.8,3.4,4.6,5.3c0.7,1.9,1,4.7-0.8,5.5s-5,1.6-6.1,1.2c-1.1-0.4-4.7-2.3-5.3-4.3
	c-0.6-2-0.1-5.4,1.4-5.9C1224.5,235.5,1229.2,234.2,1229.2,234.2z"/>
<path class="st2" d="M1256.5,254.7c1.7,0.8,1.9,4.1,0.8,5c-1.1,1-1.6,4.7-4.6,4s-9.2-4.7-8.9-6.6c0.4-1.9,2.5-5,4.1-5.2"/>
<path class="st1" d="M1269.3,255.2c1.6,1.3,5.2,6.8,5.3,9.1c0.2,2.3-3,18.2-6.4,21.4c-3.5,3.1-9.1,4.8-12.4,4.4
	c-4.3-0.7-8.4-2.5-11.9-5c-2.9-2.4-7.9-15-9-17.3s-2.8-4.9-1.9-7.1"/>
<path class="st0" d="M1501.9,161.7c0-5.2,0.4-10.2,1.1-15.2c0.7-5.4,2.4-10.6,5-15.4c2.5-4.6,6-8.6,10.1-11.9
	c4.1-3.2,9.1-4.9,15.1-4.9c9,0,18,0.4,26.9,1c8.8,0.6,17.4,2.2,25.8,4.4c8.2,2.3,15,5.9,20.3,10.8s7.9,12,7.8,21.2
	c0,15.8-6.7,29.8-20.3,42s-30,18.2-49.3,18.2c-15,0-25.8-5-32.5-15.2C1505.1,186.5,1501.9,174.7,1501.9,161.7z"/>
<path class="st1" d="M1574.9,132.6c2.5,2.5,3.8,7.3,3,9.4c-0.8,2-4.2,6.4-6.5,6.1c-2.3-0.2-6.7-4.8-6.1-7.7c0.7-2.9,1.1-3.6,2.9-4.7
	C1570,134.5,1574.9,132.6,1574.9,132.6z"/>
<path class="st1" d="M1530.2,137.2c1.6,1.3,3.8,3.4,4.6,5.3c0.7,1.9,1,4.7-0.8,5.5s-5,1.6-6.1,1.2c-1.1-0.4-4.7-2.3-5.3-4.3
	c-0.6-2-0.1-5.4,1.4-5.9C1525.5,138.5,1530.2,137.2,1530.2,137.2z"/>
<path class="st2" d="M1557.5,157.7c1.7,0.8,1.9,4.1,0.8,5c-1.1,1-1.6,4.7-4.6,4s-9.2-4.7-8.9-6.6s2.5-5,4.1-5.2"/>
<path class="st1" d="M1570.3,158.2c1.6,1.3,5.2,6.8,5.3,9.1c0.2,2.3-3,18.2-6.4,21.4c-3.5,3.1-9.1,4.8-12.4,4.4
	c-4.3-0.7-8.4-2.5-11.9-5c-2.9-2.4-7.9-15-9-17.3s-2.8-4.9-1.9-7.1"/>
<path class="st0" d="M1666.9,346.7c0-5.2,0.4-10.2,1.1-15.2c0.7-5.4,2.4-10.6,5-15.4c2.5-4.6,6-8.6,10.1-11.9
	c4.1-3.2,9.1-4.9,15.1-4.9c9,0,18,0.4,26.9,1c8.8,0.6,17.4,2.2,25.8,4.4c8.2,2.3,15,5.9,20.3,10.8s7.9,12,7.8,21.2
	c0,15.8-6.7,29.8-20.3,42c-13.6,12.2-30,18.2-49.3,18.2c-15,0-25.8-5-32.5-15.2C1670.1,371.5,1666.9,359.7,1666.9,346.7z"/>
<path class="st1" d="M1739.9,317.6c2.5,2.5,3.8,7.3,3,9.4c-0.8,2-4.2,6.4-6.5,6.1c-2.3-0.2-6.7-4.8-6.1-7.7c0.7-2.9,1.1-3.6,2.9-4.7
	C1735,319.5,1739.9,317.6,1739.9,317.6z"/>
<path class="st1" d="M1695.2,322.2c1.6,1.3,3.8,3.4,4.6,5.3c0.7,1.9,1,4.7-0.8,5.5s-5,1.6-6.1,1.2s-4.7-2.3-5.3-4.3
	c-0.6-2-0.1-5.4,1.4-5.9C1690.5,323.5,1695.2,322.2,1695.2,322.2z"/>
<path class="st2" d="M1722.5,342.7c1.7,0.8,1.9,4.1,0.8,5c-1.1,1-1.6,4.7-4.6,4s-9.2-4.7-8.9-6.6c0.4-1.9,2.5-5,4.1-5.2"/>
<path class="st1" d="M1735.3,343.2c1.6,1.3,5.2,6.8,5.3,9.1c0.2,2.3-3,18.2-6.4,21.4c-3.5,3.1-9.1,4.8-12.4,4.4
	c-4.3-0.7-8.4-2.5-11.9-5c-2.9-2.4-7.9-15-9-17.3s-2.8-4.9-1.9-7.1"/>
<path class="st0" d="M1723.9,747.7c0-5.2,0.4-10.2,1.1-15.2c0.7-5.4,2.4-10.6,5-15.4c2.5-4.6,6-8.6,10.1-11.9
	c4.1-3.2,9.1-4.9,15.1-4.9c9,0,18,0.4,26.9,1c8.8,0.6,17.4,2.2,25.8,4.4c8.2,2.3,15,5.9,20.3,10.8c5.3,4.9,7.9,12,7.8,21.2
	c0,15.8-6.7,29.8-20.3,42s-30,18.2-49.3,18.2c-15,0-25.8-5-32.5-15.2S1723.9,760.7,1723.9,747.7z"/>
<path class="st1" d="M1796.9,718.6c2.5,2.5,3.8,7.3,3,9.4c-0.8,2-4.2,6.4-6.5,6.1c-2.3-0.2-6.7-4.8-6.1-7.7c0.7-2.9,1.1-3.6,2.9-4.7
	C1792,720.5,1796.9,718.6,1796.9,718.6z"/>
<path class="st1" d="M1752.2,723.2c1.6,1.3,3.8,3.4,4.6,5.3c0.7,1.9,1,4.7-0.8,5.5s-5,1.6-6.1,1.2s-4.7-2.3-5.3-4.3
	c-0.6-2-0.1-5.4,1.4-5.9C1747.5,724.5,1752.2,723.2,1752.2,723.2z"/>
<path class="st2" d="M1779.5,743.7c1.7,0.8,1.9,4.1,0.8,5c-1.1,1-1.6,4.7-4.6,4s-9.2-4.7-8.9-6.6c0.4-1.9,2.5-5,4.1-5.2"/>
<path class="st1" d="M1792.3,744.2c1.6,1.3,5.2,6.8,5.3,9.1c0.2,2.3-3,18.2-6.4,21.4c-3.5,3.1-9.1,4.8-12.4,4.4
	c-4.3-0.7-8.4-2.5-11.9-5c-2.9-2.4-7.9-15-9-17.3s-2.8-4.9-1.9-7.1"/>
<path class="st0" d="M1606.9,964.7c0-5.2,0.4-10.2,1.1-15.2c0.7-5.4,2.4-10.6,5-15.4c2.5-4.6,6-8.6,10.1-11.9
	c4.1-3.2,9.1-4.9,15.1-4.9c9,0,18,0.4,26.9,1c8.8,0.6,17.4,2.2,25.8,4.4c8.2,2.3,15,5.9,20.3,10.8c5.3,4.9,7.9,12,7.8,21.2
	c0,15.8-6.7,29.8-20.3,42s-30,18.2-49.3,18.2c-15,0-25.8-5-32.5-15.2S1606.9,977.7,1606.9,964.7z"/>
<path class="st1" d="M1679.9,935.6c2.5,2.5,3.8,7.3,3,9.4c-0.8,2-4.2,6.4-6.5,6.1c-2.3-0.2-6.7-4.8-6.1-7.7c0.7-2.9,1.1-3.6,2.9-4.7
	C1675,937.5,1679.9,935.6,1679.9,935.6z"/>
<path class="st1" d="M1635.2,940.2c1.6,1.3,3.8,3.4,4.6,5.3c0.7,1.9,1,4.7-0.8,5.5s-5,1.6-6.1,1.2s-4.7-2.3-5.3-4.3
	c-0.6-2-0.1-5.4,1.4-5.9C1630.5,941.5,1635.2,940.2,1635.2,940.2z"/>
<path class="st2" d="M1662.5,960.7c1.7,0.8,1.9,4.1,0.8,5c-1.1,1-1.6,4.7-4.6,4s-9.2-4.7-8.9-6.6c0.4-1.9,2.5-5,4.1-5.2"/>
<path class="st1" d="M1675.3,961.2c1.6,1.3,5.2,6.8,5.3,9.1c0.2,2.3-3,18.2-6.4,21.4c-3.5,3.1-9.1,4.8-12.4,4.4
	c-4.3-0.7-8.4-2.5-11.9-5c-2.9-2.4-7.9-15-9-17.3s-2.8-4.9-1.9-7.1"/>
<path class="st0" d="M1257.9,493.7c0-5.2,0.4-10.2,1.1-15.2c0.7-5.4,2.4-10.6,5-15.4c2.5-4.6,6-8.6,10.1-11.9
	c4.1-3.2,9.1-4.9,15.1-4.9c9,0,18,0.4,26.9,1c8.8,0.6,17.4,2.2,25.8,4.4c8.2,2.3,15,5.9,20.3,10.8s7.9,12,7.8,21.2
	c0,15.8-6.7,29.8-20.3,42s-30,18.2-49.3,18.2c-15,0-25.8-5-32.5-15.2S1257.9,506.7,1257.9,493.7z"/>
<path class="st1" d="M1330.9,464.6c2.5,2.5,3.8,7.3,3,9.4c-0.8,2-4.2,6.4-6.5,6.1c-2.3-0.2-6.7-4.8-6.1-7.7c0.7-2.9,1.1-3.6,2.9-4.7
	C1326,466.5,1330.9,464.6,1330.9,464.6z"/>
<path class="st1" d="M1286.2,469.2c1.6,1.3,3.8,3.4,4.6,5.3c0.7,1.9,1,4.7-0.8,5.5s-5,1.6-6.1,1.2s-4.7-2.3-5.3-4.3
	c-0.6-2-0.1-5.4,1.4-5.9C1281.5,470.5,1286.2,469.2,1286.2,469.2z"/>
<path class="st2" d="M1313.5,489.7c1.7,0.8,1.9,4.1,0.8,5c-1.1,1-1.6,4.7-4.6,4s-9.2-4.7-8.9-6.6c0.4-1.9,2.5-5,4.1-5.2"/>
<path class="st1" d="M1326.3,490.2c1.6,1.3,5.2,6.8,5.3,9.1c0.2,2.3-3,18.2-6.4,21.4c-3.5,3.1-9.1,4.8-12.4,4.4
	c-4.3-0.7-8.4-2.5-11.9-5c-2.9-2.4-7.9-15-9-17.3s-2.8-4.9-1.9-7.1"/>
<path class="st0" d="M1456.9,600.7c0-5.2,0.4-10.2,1.1-15.2c0.7-5.4,2.4-10.6,5-15.4c2.5-4.6,6-8.6,10.1-11.9
	c4.1-3.2,9.1-4.9,15.1-4.9c9,0,18,0.4,26.9,1c8.8,0.6,17.4,2.2,25.8,4.4c8.2,2.3,15,5.9,20.3,10.8c5.3,4.9,7.9,12,7.8,21.2
	c0,15.8-6.7,29.8-20.3,42s-30,18.2-49.3,18.2c-15,0-25.8-5-32.5-15.2S1456.9,613.7,1456.9,600.7z"/>
<path class="st1" d="M1529.9,571.6c2.5,2.5,3.8,7.3,3,9.4c-0.8,2-4.2,6.4-6.5,6.1c-2.3-0.2-6.7-4.8-6.1-7.7c0.7-2.9,1.1-3.6,2.9-4.7
	C1525,573.5,1529.9,571.6,1529.9,571.6z"/>
<path class="st1" d="M1485.2,576.2c1.6,1.3,3.8,3.4,4.6,5.3c0.7,1.9,1,4.7-0.8,5.5s-5,1.6-6.1,1.2s-4.7-2.3-5.3-4.3
	c-0.6-2-0.1-5.4,1.4-5.9C1480.5,577.5,1485.2,576.2,1485.2,576.2z"/>
<path class="st2" d="M1512.5,596.7c1.7,0.8,1.9,4.1,0.8,5c-1.1,1-1.6,4.7-4.6,4s-9.2-4.7-8.9-6.6c0.4-1.9,2.5-5,4.1-5.2"/>
<path class="st1" d="M1525.3,597.2c1.6,1.3,5.2,6.8,5.3,9.1c0.2,2.3-3,18.2-6.4,21.4c-3.5,3.1-9.1,4.8-12.4,4.4
	c-4.3-0.7-8.4-2.5-11.9-5c-2.9-2.4-7.9-15-9-17.3s-2.8-4.9-1.9-7.1"/>
<path class="st0" d="M1105.9,827.7c0-5.2,0.4-10.2,1.1-15.2c0.7-5.4,2.4-10.6,5-15.4c2.5-4.6,6-8.6,10.1-11.9
	c4.1-3.2,9.1-4.9,15.1-4.9c9,0,18,0.4,26.9,1c8.8,0.6,17.4,2.2,25.8,4.4c8.2,2.3,15,5.9,20.3,10.8c5.3,4.9,7.9,12,7.8,21.2
	c0,15.8-6.7,29.8-20.3,42s-30,18.2-49.3,18.2c-15,0-25.8-5-32.5-15.2S1105.9,840.7,1105.9,827.7z"/>
<path class="st1" d="M1178.9,798.6c2.5,2.5,3.8,7.3,3,9.4c-0.8,2-4.2,6.4-6.5,6.1c-2.3-0.2-6.7-4.8-6.1-7.7c0.7-2.9,1.1-3.6,2.9-4.7
	C1174,800.5,1178.9,798.6,1178.9,798.6z"/>
<path class="st1" d="M1134.2,803.2c1.6,1.3,3.8,3.4,4.6,5.3c0.7,1.9,1,4.7-0.8,5.5s-5,1.6-6.1,1.2s-4.7-2.3-5.3-4.3
	c-0.6-2-0.1-5.4,1.4-5.9C1129.5,804.5,1134.2,803.2,1134.2,803.2z"/>
<path class="st2" d="M1161.5,823.7c1.7,0.8,1.9,4.1,0.8,5c-1.1,1-1.6,4.7-4.6,4s-9.2-4.7-8.9-6.6c0.4-1.9,2.5-5,4.1-5.2"/>
<path class="st1" d="M1174.3,824.2c1.6,1.3,5.2,6.8,5.3,9.1c0.2,2.3-3,18.2-6.4,21.4c-3.5,3.1-9.1,4.8-12.4,4.4
	c-4.3-0.7-8.4-2.5-11.9-5c-2.9-2.4-7.9-15-9-17.3s-2.8-4.9-1.9-7.1"/>
<path class="st0" d="M922.9,951.7c0-5.2,0.4-10.2,1.1-15.2c0.7-5.4,2.4-10.6,5-15.4c2.5-4.6,6-8.6,10.1-11.9
	c4.1-3.2,9.1-4.9,15.1-4.9c9,0,18,0.4,26.9,1c8.8,0.6,17.4,2.2,25.8,4.4c8.2,2.3,15,5.9,20.3,10.8c5.3,4.9,7.9,12,7.8,21.2
	c0,15.8-6.7,29.8-20.3,42c-13.6,12.2-30,18.2-49.3,18.2c-15,0-25.8-5-32.5-15.2C926.1,976.5,922.9,964.7,922.9,951.7z"/>
<path class="st1" d="M995.9,922.6c2.5,2.5,3.8,7.3,3,9.4c-0.8,2-4.2,6.4-6.5,6.1c-2.3-0.2-6.7-4.8-6.1-7.7c0.7-2.9,1.1-3.6,2.9-4.7
	C991,924.5,995.9,922.6,995.9,922.6z"/>
<path class="st1" d="M951.2,927.2c1.6,1.3,3.8,3.4,4.6,5.3c0.7,1.9,1,4.7-0.8,5.5s-5,1.6-6.1,1.2s-4.7-2.3-5.3-4.3s-0.1-5.4,1.4-5.9
	C946.5,928.5,951.2,927.2,951.2,927.2z"/>
<path class="st2" d="M978.5,947.7c1.7,0.8,1.9,4.1,0.8,5c-1.1,1-1.6,4.7-4.6,4s-9.2-4.7-8.9-6.6c0.4-1.9,2.5-5,4.1-5.2"/>
<path class="st1" d="M991.3,948.2c1.6,1.3,5.2,6.8,5.3,9.1c0.2,2.3-3,18.2-6.4,21.4c-3.5,3.1-9.1,4.8-12.4,4.4
	c-4.3-0.7-8.4-2.5-11.9-5c-2.9-2.4-7.9-15-9-17.3s-2.8-4.9-1.9-7.1"/>
<path class="st0" d="M478.9,932.7c0-5.2,0.4-10.2,1.1-15.2c0.7-5.4,2.4-10.6,5-15.4c2.5-4.6,6-8.6,10.1-11.9
	c4.1-3.2,9.1-4.9,15.1-4.9c9,0,18,0.4,26.9,1c8.8,0.6,17.4,2.2,25.8,4.4c8.2,2.3,15,5.9,20.3,10.8c5.3,4.9,7.9,12,7.8,21.2
	c0,15.8-6.7,29.8-20.3,42s-30,18.2-49.3,18.2c-15,0-25.8-5-32.5-15.2S478.9,945.7,478.9,932.7z"/>
<path class="st1" d="M551.9,903.6c2.5,2.5,3.8,7.3,3,9.4c-0.8,2-4.2,6.4-6.5,6.1c-2.3-0.2-6.7-4.8-6.1-7.7c0.7-2.9,1.1-3.6,2.9-4.7
	C547,905.5,551.9,903.6,551.9,903.6z"/>
<path class="st1" d="M507.2,908.2c1.6,1.3,3.8,3.4,4.6,5.3c0.7,1.9,1,4.7-0.8,5.5c-1.8,0.8-5,1.6-6.1,1.2c-1.1-0.4-4.7-2.3-5.3-4.3
	c-0.6-2-0.1-5.4,1.4-5.9C502.5,909.5,507.2,908.2,507.2,908.2z"/>
<path class="st2" d="M534.5,928.7c1.7,0.8,1.9,4.1,0.8,5c-1.1,1-1.6,4.7-4.6,4s-9.2-4.7-8.9-6.6c0.4-1.9,2.5-5,4.1-5.2"/>
<path class="st1" d="M547.3,929.2c1.6,1.3,5.2,6.8,5.3,9.1c0.2,2.3-3,18.2-6.4,21.4c-3.5,3.1-9.1,4.8-12.4,4.4
	c-4.3-0.7-8.4-2.5-11.9-5c-2.9-2.4-7.9-15-9-17.3c-1.1-2.3-2.8-4.9-1.9-7.1"/>
<path class="st0" d="M103.9,844.7c0-5.2,0.4-10.2,1.1-15.2c0.7-5.4,2.4-10.6,5-15.4c2.5-4.6,6-8.6,10.1-11.9
	c4.1-3.2,9.1-4.9,15.1-4.9c9,0,18,0.4,26.9,1c8.8,0.6,17.4,2.2,25.8,4.4c8.2,2.3,15,5.9,20.3,10.8c5.3,4.9,7.9,12,7.8,21.2
	c0,15.8-6.7,29.8-20.3,42s-30,18.2-49.3,18.2c-15,0-25.8-5-32.5-15.2S103.9,857.7,103.9,844.7z"/>
<path class="st1" d="M176.9,815.6c2.5,2.5,3.8,7.3,3,9.4c-0.8,2-4.2,6.4-6.5,6.1c-2.3-0.2-6.7-4.8-6.1-7.7c0.7-2.9,1.1-3.6,2.9-4.7
	C172,817.5,176.9,815.6,176.9,815.6z"/>
<path class="st1" d="M132.2,820.2c1.6,1.3,3.8,3.4,4.6,5.3c0.7,1.9,1,4.7-0.8,5.5s-5,1.6-6.1,1.2c-1.1-0.4-4.7-2.3-5.3-4.3
	c-0.6-2-0.1-5.4,1.4-5.9C127.5,821.5,132.2,820.2,132.2,820.2z"/>
<path class="st2" d="M159.5,840.7c1.7,0.8,1.9,4.1,0.8,5c-1.1,1-1.6,4.7-4.6,4s-9.2-4.7-8.9-6.6c0.4-1.9,2.5-5,4.1-5.2"/>
<path class="st1" d="M172.3,841.2c1.6,1.3,5.2,6.8,5.3,9.1c0.2,2.3-3,18.2-6.4,21.4c-3.5,3.1-9.1,4.8-12.4,4.4
	c-4.3-0.7-8.4-2.5-11.9-5c-2.9-2.4-7.9-15-9-17.3s-2.8-4.9-1.9-7.1"/>
<path class="st0" d="M105.9,390.7c0-5.2,0.4-10.2,1.1-15.2c0.7-5.4,2.4-10.6,5-15.4c2.5-4.6,6-8.6,10.1-11.9
	c4.1-3.2,9.1-4.9,15.1-4.9c9,0,18,0.4,26.9,1c8.8,0.6,17.4,2.2,25.8,4.4c8.2,2.3,15,5.9,20.3,10.8s7.9,12,7.8,21.2
	c0,15.8-6.7,29.8-20.3,42s-30,18.2-49.3,18.2c-15,0-25.8-5-32.5-15.2C109.1,415.5,105.9,403.7,105.9,390.7z"/>
<path class="st1" d="M178.9,361.6c2.5,2.5,3.8,7.3,3,9.4c-0.8,2-4.2,6.4-6.5,6.1c-2.3-0.2-6.7-4.8-6.1-7.7c0.7-2.9,1.1-3.6,2.9-4.7
	C174,363.5,178.9,361.6,178.9,361.6z"/>
<path class="st1" d="M134.2,366.2c1.6,1.3,3.8,3.4,4.6,5.3c0.7,1.9,1,4.7-0.8,5.5s-5,1.6-6.1,1.2s-4.7-2.3-5.3-4.3
	c-0.6-2-0.1-5.4,1.4-5.9C129.5,367.5,134.2,366.2,134.2,366.2z"/>
<path class="st2" d="M161.5,386.7c1.7,0.8,1.9,4.1,0.8,5c-1.1,1-1.6,4.7-4.6,4s-9.2-4.7-8.9-6.6c0.4-1.9,2.5-5,4.1-5.2"/>
<path class="st1" d="M174.3,387.2c1.6,1.3,5.2,6.8,5.3,9.1c0.2,2.3-3,18.2-6.4,21.4c-3.5,3.1-9.1,4.8-12.4,4.4
	c-4.3-0.7-8.4-2.5-11.9-5c-2.9-2.4-7.9-15-9-17.3s-2.8-4.9-1.9-7.1"/>
<path class="st0" d="M220.9,125.7c0-5.2,0.4-10.2,1.1-15.2c0.7-5.4,2.4-10.6,5-15.4c2.5-4.6,6-8.6,10.1-11.9s9.1-4.9,15.1-4.9
	c9,0,18,0.4,26.9,1c8.8,0.6,17.4,2.2,25.8,4.4c8.2,2.3,15,5.9,20.3,10.8s7.9,12,7.8,21.2c0,15.8-6.7,29.8-20.3,42
	s-30,18.2-49.3,18.2c-15,0-25.8-5-32.5-15.2C224.1,150.5,220.9,138.7,220.9,125.7z"/>
<path class="st1" d="M293.9,96.6c2.5,2.5,3.8,7.3,3,9.4c-0.8,2-4.2,6.4-6.5,6.1c-2.3-0.2-6.7-4.8-6.1-7.7c0.7-2.9,1.1-3.6,2.9-4.7
	C289,98.5,293.9,96.6,293.9,96.6z"/>
<path class="st1" d="M249.2,101.2c1.6,1.3,3.8,3.4,4.6,5.3s1,4.7-0.8,5.5s-5,1.6-6.1,1.2s-4.7-2.3-5.3-4.3s-0.1-5.4,1.4-5.9
	C244.5,102.5,249.2,101.2,249.2,101.2z"/>
<path class="st2" d="M276.5,121.7c1.7,0.8,1.9,4.1,0.8,5s-1.6,4.7-4.6,4s-9.2-4.7-8.9-6.6c0.4-1.9,2.5-5,4.1-5.2"/>
<path class="st1" d="M289.3,122.2c1.6,1.3,5.2,6.8,5.3,9.1c0.2,2.3-3,18.2-6.4,21.4c-3.5,3.1-9.1,4.8-12.4,4.4
	c-4.3-0.7-8.4-2.5-11.9-5c-2.9-2.4-7.9-15-9-17.3s-2.8-4.9-1.9-7.1"/>
<path class="st0" d="M1441.9,794.7c0-5.2,0.4-10.2,1.1-15.2c0.7-5.4,2.4-10.6,5-15.4c2.5-4.6,6-8.6,10.1-11.9
	c4.1-3.2,9.1-4.9,15.1-4.9c9,0,18,0.4,26.9,1c8.8,0.6,17.4,2.2,25.8,4.4c8.2,2.3,15,5.9,20.3,10.8c5.3,4.9,7.9,12,7.8,21.2
	c0,15.8-6.7,29.8-20.3,42s-30,18.2-49.3,18.2c-15,0-25.8-5-32.5-15.2S1441.9,807.7,1441.9,794.7z"/>
<path class="st1" d="M1514.9,765.6c2.5,2.5,3.8,7.3,3,9.4c-0.8,2-4.2,6.4-6.5,6.1c-2.3-0.2-6.7-4.8-6.1-7.7c0.7-2.9,1.1-3.6,2.9-4.7
	C1510,767.5,1514.9,765.6,1514.9,765.6z"/>
<path class="st1" d="M1470.2,770.2c1.6,1.3,3.8,3.4,4.6,5.3c0.7,1.9,1,4.7-0.8,5.5s-5,1.6-6.1,1.2s-4.7-2.3-5.3-4.3
	c-0.6-2-0.1-5.4,1.4-5.9C1465.5,771.5,1470.2,770.2,1470.2,770.2z"/>
<path class="st2" d="M1497.5,790.7c1.7,0.8,1.9,4.1,0.8,5c-1.1,1-1.6,4.7-4.6,4s-9.2-4.7-8.9-6.6c0.4-1.9,2.5-5,4.1-5.2"/>
<path class="st1" d="M1510.3,791.2c1.6,1.3,5.2,6.8,5.3,9.1c0.2,2.3-3,18.2-6.4,21.4c-3.5,3.1-9.1,4.8-12.4,4.4
	c-4.3-0.7-8.4-2.5-11.9-5c-2.9-2.4-7.9-15-9-17.3s-2.8-4.9-1.9-7.1"/>
<path class="st0" d="M1294.9,998.7c0-5.2,0.4-10.2,1.1-15.2c0.7-5.4,2.4-10.6,5-15.4c2.5-4.6,6-8.6,10.1-11.9
	c4.1-3.2,9.1-4.9,15.1-4.9c9,0,18,0.4,26.9,1c8.8,0.6,17.4,2.2,25.8,4.4c8.2,2.3,15,5.9,20.3,10.8c5.3,4.9,7.9,12,7.8,21.2
	c0,15.8-6.7,29.8-20.3,42c-13.6,12.2-30,18.2-49.3,18.2c-15,0-25.8-5-32.5-15.2C1298.1,1023.5,1294.9,1011.7,1294.9,998.7z"/>
<path class="st1" d="M1367.9,969.6c2.5,2.5,3.8,7.3,3,9.4c-0.8,2-4.2,6.4-6.5,6.1c-2.3-0.2-6.7-4.8-6.1-7.7c0.7-2.9,1.1-3.6,2.9-4.7
	C1363,971.5,1367.9,969.6,1367.9,969.6z"/>
<path class="st1" d="M1323.2,974.2c1.6,1.3,3.8,3.4,4.6,5.3c0.7,1.9,1,4.7-0.8,5.5s-5,1.6-6.1,1.2s-4.7-2.3-5.3-4.3
	c-0.6-2-0.1-5.4,1.4-5.9C1318.5,975.5,1323.2,974.2,1323.2,974.2z"/>
<path class="st2" d="M1350.5,994.7c1.7,0.8,1.9,4.1,0.8,5c-1.1,1-1.6,4.7-4.6,4s-9.2-4.7-8.9-6.6c0.4-1.9,2.5-5,4.1-5.2"/>
<path class="st1" d="M1363.3,995.2c1.6,1.3,5.2,6.8,5.3,9.1c0.2,2.3-3,18.2-6.4,21.4c-3.5,3.1-9.1,4.8-12.4,4.4
	c-4.3-0.7-8.4-2.5-11.9-5c-2.9-2.4-7.9-15-9-17.3s-2.8-4.9-1.9-7.1"/>
</svg>
