<?xml version="1.0" encoding="utf-8"?>
<!-- Generator: Adobe Illustrator 25.0.0, SVG Export Plug-In . SVG Version: 6.00 Build 0)  -->
<svg version="1.1" id="Lag_1" xmlns="http://www.w3.org/2000/svg" xmlns:xlink="http://www.w3.org/1999/xlink" x="0px" y="0px"
	 viewBox="0 0 1080 1920" style="enable-background:new 0 0 1080 1920;" xml:space="preserve">
<style type="text/css">
	.st0{fill:none;stroke:#F7DFE1;stroke-width:5;stroke-miterlimit:10;}
	.st1{fill:none;stroke:#F7DFE1;stroke-width:3;stroke-miterlimit:10;}
	.st2{fill:none;stroke:#F7DFE1;stroke-width:2;stroke-miterlimit:10;}
</style>
<g>
	<path class="st0" d="M702,521.5c0-11.9,0.9-23.3,2.5-34.8c1.6-12.4,5.5-24.3,11.4-35.3c5.7-10.5,13.7-19.7,23.1-27.2
		c9.4-7.3,20.8-11.2,34.6-11.2c20.6,0,41.2,0.9,61.6,2.3c20.1,1.4,39.8,5,59.1,10.1c18.8,5.3,34.3,13.5,46.5,24.7
		s18.1,27.5,17.9,48.5c0,36.2-15.3,68.2-46.5,96.1c-31.1,27.9-68.7,41.7-112.8,41.7c-34.3,0-59.1-11.4-74.4-34.8
		C709.4,578.2,702,551.2,702,521.5z"/>
	<path class="st1" d="M869.1,454.9c5.7,5.7,8.7,16.7,6.9,21.5c-1.8,4.6-9.6,14.6-14.9,14c-5.3-0.5-15.3-11-14-17.6
		c1.6-6.6,2.5-8.2,6.6-10.8C857.9,459.2,869.1,454.9,869.1,454.9z"/>
	<path class="st1" d="M766.8,465.4c3.7,3,8.7,7.8,10.5,12.1c1.6,4.3,2.3,10.8-1.8,12.6c-4.1,1.8-11.4,3.7-14,2.7
		c-2.5-0.9-10.8-5.3-12.1-9.8c-1.4-4.6-0.2-12.4,3.2-13.5C756.1,468.4,766.8,465.4,766.8,465.4z"/>
	<path class="st2" d="M829.3,512.3c3.9,1.8,4.3,9.4,1.8,11.4c-2.5,2.3-3.7,10.8-10.5,9.2c-6.9-1.6-21.1-10.8-20.4-15.1
		c0.9-4.3,5.7-11.4,9.4-11.9"/>
	<path class="st1" d="M858.6,513.5c3.7,3,11.9,15.6,12.1,20.8c0.5,5.3-6.9,41.7-14.6,49c-8,7.1-20.8,11-28.4,10.1
		c-9.8-1.6-19.2-5.7-27.2-11.4c-6.6-5.5-18.1-34.3-20.6-39.6c-2.5-5.3-6.4-11.2-4.3-16.3"/>
</g>
<g>
	<path class="st0" d="M265.6,1580.5c0-9.7,0.7-19,2-28.3c1.3-10.1,4.5-19.7,9.3-28.7c4.7-8.6,11.2-16,18.8-22.2
		c7.6-6,16.9-9.1,28.1-9.1c16.8,0,33.5,0.7,50.1,1.9c16.4,1.1,32.4,4.1,48,8.2c15.3,4.3,27.9,11,37.8,20.1
		c9.9,9.1,14.7,22.3,14.5,39.5c0,29.4-12.5,55.5-37.8,78.2c-25.3,22.7-55.9,33.9-91.8,33.9c-27.9,0-48-9.3-60.5-28.3
		C271.6,1626.7,265.6,1604.7,265.6,1580.5z"/>
	<path class="st1" d="M401.5,1526.3c4.7,4.7,7.1,13.6,5.6,17.5c-1.5,3.7-7.8,11.9-12.1,11.4c-4.3-0.4-12.5-8.9-11.4-14.3
		c1.3-5.4,2-6.7,5.4-8.8C392.4,1529.8,401.5,1526.3,401.5,1526.3z"/>
	<path class="st1" d="M318.3,1534.9c3,2.4,7.1,6.3,8.6,9.9c1.3,3.5,1.9,8.8-1.5,10.2s-9.3,3-11.4,2.2s-8.8-4.3-9.9-8
		c-1.1-3.7-0.2-10.1,2.6-11S318.3,1534.9,318.3,1534.9z"/>
	<path class="st2" d="M369.1,1573c3.2,1.5,3.5,7.6,1.5,9.3c-2,1.9-3,8.8-8.6,7.4s-17.1-8.8-16.6-12.3c0.7-3.5,4.7-9.3,7.6-9.7"/>
	<path class="st1" d="M393,1574c3,2.4,9.7,12.7,9.9,16.9c0.4,4.3-5.6,33.9-11.9,39.9c-6.5,5.8-16.9,8.9-23.1,8.2
		c-8-1.3-15.6-4.7-22.2-9.3c-5.4-4.5-14.7-27.9-16.8-32.2c-2-4.3-5.2-9.1-3.5-13.2"/>
</g>
<g>
	<path class="st0" d="M746.9,1746.5c0-9.7,0.7-19,2-28.3c1.3-10.1,4.5-19.7,9.3-28.7c4.7-8.6,11.2-16,18.8-22.2
		c7.6-6,16.9-9.1,28.1-9.1c16.8,0,33.5,0.7,50.1,1.9c16.4,1.1,32.4,4.1,48,8.2c15.3,4.3,27.9,11,37.8,20.1
		c9.9,9.1,14.7,22.3,14.5,39.5c0,29.4-12.5,55.5-37.8,78.2c-25.3,22.7-55.9,33.9-91.8,33.9c-27.9,0-48-9.3-60.5-28.3
		C752.8,1792.7,746.9,1770.8,746.9,1746.5z"/>
	<path class="st1" d="M882.8,1692.4c4.7,4.7,7.1,13.6,5.6,17.5c-1.5,3.7-7.8,11.9-12.1,11.4c-4.3-0.4-12.5-8.9-11.4-14.3
		c1.3-5.4,2-6.7,5.4-8.8C873.7,1695.9,882.8,1692.4,882.8,1692.4z"/>
	<path class="st1" d="M799.6,1700.9c3,2.4,7.1,6.3,8.6,9.9c1.3,3.5,1.9,8.8-1.5,10.2c-3.4,1.5-9.3,3-11.4,2.2c-2-0.7-8.8-4.3-9.9-8
		c-1.1-3.7-0.2-10.1,2.6-11S799.6,1700.9,799.6,1700.9z"/>
	<path class="st2" d="M850.4,1739.1c3.2,1.5,3.5,7.6,1.5,9.3c-2,1.9-3,8.8-8.6,7.4c-5.6-1.3-17.1-8.8-16.6-12.3
		c0.7-3.5,4.7-9.3,7.6-9.7"/>
	<path class="st1" d="M874.3,1740c3,2.4,9.7,12.7,9.9,16.9c0.4,4.3-5.6,33.9-11.9,39.9c-6.5,5.8-16.9,8.9-23.1,8.2
		c-8-1.3-15.6-4.7-22.2-9.3c-5.4-4.5-14.7-27.9-16.8-32.2s-5.2-9.1-3.5-13.2"/>
</g>
<g>
	<path class="st0" d="M225.2,956.8c0-11.9,0.9-23.3,2.5-34.8c1.6-12.4,5.5-24.3,11.4-35.3c5.7-10.5,13.7-19.7,23.1-27.2
		c9.4-7.3,20.8-11.2,34.6-11.2c20.6,0,41.2,0.9,61.6,2.3c20.1,1.4,39.8,5,59.1,10.1c18.8,5.3,34.3,13.5,46.5,24.7
		c12.1,11.2,18.1,27.5,17.9,48.5c0,36.2-15.3,68.2-46.5,96.1c-31.1,27.9-68.7,41.7-112.8,41.7c-34.3,0-59.1-11.4-74.4-34.8
		C232.5,1013.6,225.2,986.6,225.2,956.8z"/>
	<path class="st1" d="M392.3,890.2c5.7,5.7,8.7,16.7,6.9,21.5c-1.8,4.6-9.6,14.6-14.9,14c-5.3-0.5-15.3-11-14-17.6
		c1.6-6.6,2.5-8.2,6.6-10.8C381.1,894.5,392.3,890.2,392.3,890.2z"/>
	<path class="st1" d="M290,900.7c3.7,3,8.7,7.8,10.5,12.1c1.6,4.3,2.3,10.8-1.8,12.6c-4.1,1.8-11.4,3.7-14,2.7
		c-2.5-0.9-10.8-5.3-12.1-9.8c-1.4-4.6-0.2-12.4,3.2-13.5C279.2,903.7,290,900.7,290,900.7z"/>
	<path class="st2" d="M352.5,947.6c3.9,1.8,4.3,9.4,1.8,11.4c-2.5,2.3-3.7,10.8-10.5,9.2s-21.1-10.8-20.4-15.1
		c0.9-4.3,5.7-11.4,9.4-11.9"/>
	<path class="st1" d="M381.8,948.8c3.7,3,11.9,15.6,12.1,20.8c0.5,5.3-6.9,41.7-14.6,49c-8,7.1-20.8,11-28.4,10.1
		c-9.8-1.6-19.2-5.7-27.2-11.4c-6.6-5.5-18.1-34.3-20.6-39.6c-2.5-5.3-6.4-11.2-4.3-16.3"/>
</g>
<g>
	<path class="st0" d="M694.5,1249.3c0-3.9,0.3-7.6,0.8-11.4c0.5-4,1.8-7.9,3.7-11.5c1.9-3.4,4.5-6.4,7.6-8.9
		c3.1-2.4,6.8-3.7,11.3-3.7c6.7,0,13.5,0.3,20.2,0.7c6.6,0.4,13,1.6,19.3,3.3c6.1,1.7,11.2,4.4,15.2,8.1c4,3.7,5.9,9,5.8,15.9
		c0,11.8-5,22.3-15.2,31.5c-10.2,9.1-22.5,13.6-37,13.6c-11.2,0-19.3-3.7-24.4-11.4C696.9,1267.9,694.5,1259,694.5,1249.3z"/>
	<path class="st1" d="M749.3,1227.5c1.9,1.9,2.8,5.5,2.2,7c-0.6,1.5-3.1,4.8-4.9,4.6c-1.7-0.1-5-3.6-4.6-5.8
		c0.5-2.2,0.8-2.7,2.2-3.5C745.6,1228.9,749.3,1227.5,749.3,1227.5z"/>
	<path class="st1" d="M715.8,1230.9c1.2,1,2.8,2.5,3.4,4c0.5,1.4,0.7,3.5-0.6,4.1s-3.7,1.2-4.6,0.9c-0.8-0.3-3.5-1.7-4-3.2
		c-0.4-1.5-0.1-4,1-4.4C712.2,1231.9,715.8,1230.9,715.8,1230.9z"/>
	<path class="st2" d="M736.2,1246.3c1.3,0.6,1.4,3.1,0.6,3.7c-0.8,0.7-1.2,3.5-3.4,3s-6.9-3.5-6.7-4.9c0.3-1.4,1.9-3.7,3.1-3.9"/>
	<path class="st1" d="M745.8,1246.7c1.2,1,3.9,5.1,4,6.8c0.1,1.7-2.2,13.6-4.8,16c-2.6,2.3-6.8,3.6-9.3,3.3
		c-3.2-0.5-6.3-1.9-8.9-3.7c-2.2-1.8-5.9-11.2-6.7-13c-0.8-1.7-2.1-3.7-1.4-5.3"/>
</g>
<g>
	<path class="st0" d="M936.5,247.8c0-3.9,0.3-7.6,0.8-11.4c0.5-4,1.8-7.9,3.7-11.5c1.9-3.4,4.5-6.4,7.6-8.9
		c3.1-2.4,6.8-3.7,11.3-3.7c6.7,0,13.5,0.3,20.2,0.7c6.6,0.4,13,1.6,19.3,3.3c6.1,1.7,11.2,4.4,15.2,8.1c4,3.7,5.9,9,5.8,15.9
		c0,11.8-5,22.3-15.2,31.5c-10.2,9.1-22.5,13.6-37,13.6c-11.2,0-19.3-3.7-24.4-11.4C938.9,266.4,936.5,257.5,936.5,247.8z"/>
	<path class="st1" d="M991.2,226c1.9,1.9,2.8,5.5,2.2,7c-0.6,1.5-3.1,4.8-4.9,4.6c-1.7-0.1-5-3.6-4.6-5.8c0.5-2.2,0.8-2.7,2.2-3.5
		C987.5,227.4,991.2,226,991.2,226z"/>
	<path class="st1" d="M957.7,229.4c1.2,1,2.8,2.5,3.4,4c0.5,1.4,0.7,3.5-0.6,4.1s-3.7,1.2-4.6,0.9c-0.8-0.3-3.5-1.7-4-3.2
		c-0.4-1.5-0.1-4,1-4.4C954.1,230.4,957.7,229.4,957.7,229.4z"/>
	<path class="st2" d="M978.1,244.8c1.3,0.6,1.4,3.1,0.6,3.7c-0.8,0.7-1.2,3.5-3.4,3c-2.2-0.5-6.9-3.5-6.7-4.9
		c0.3-1.4,1.9-3.7,3.1-3.9"/>
	<path class="st1" d="M987.7,245.1c1.2,1,3.9,5.1,4,6.8c0.1,1.7-2.2,13.6-4.8,16c-2.6,2.3-6.8,3.6-9.3,3.3c-3.2-0.5-6.3-1.9-8.9-3.7
		c-2.2-1.8-5.9-11.2-6.7-13c-0.8-1.7-2.1-3.7-1.4-5.3"/>
</g>
<g>
	<path class="st0" d="M182.3,162c0-5.2,0.4-10.2,1.1-15.2c0.7-5.4,2.4-10.6,5-15.4c2.5-4.6,6-8.6,10.1-11.9s9.1-4.9,15.1-4.9
		c9,0,18,0.4,26.9,1c8.8,0.6,17.4,2.2,25.8,4.4c8.2,2.3,15,5.9,20.3,10.8c5.3,4.9,7.9,12,7.8,21.2c0,15.8-6.7,29.8-20.3,42
		s-30,18.2-49.3,18.2c-15,0-25.8-5-32.5-15.2C185.5,186.8,182.3,175,182.3,162z"/>
	<path class="st1" d="M255.3,132.9c2.5,2.5,3.8,7.3,3,9.4c-0.8,2-4.2,6.4-6.5,6.1c-2.3-0.2-6.7-4.8-6.1-7.7c0.7-2.9,1.1-3.6,2.9-4.7
		C250.4,134.8,255.3,132.9,255.3,132.9z"/>
	<path class="st1" d="M210.6,137.5c1.6,1.3,3.8,3.4,4.6,5.3c0.8,1.9,1,4.7-0.8,5.5s-5,1.6-6.1,1.2c-1.1-0.4-4.7-2.3-5.3-4.3
		s-0.1-5.4,1.4-5.9C205.9,138.8,210.6,137.5,210.6,137.5z"/>
	<path class="st2" d="M237.9,158c1.7,0.8,1.9,4.1,0.8,5c-1.1,0.9-1.6,4.7-4.6,4s-9.2-4.7-8.9-6.6c0.4-1.9,2.5-5,4.1-5.2"/>
	<path class="st1" d="M250.7,158.5c1.6,1.3,5.2,6.8,5.3,9.1c0.2,2.3-3,18.2-6.4,21.4c-3.5,3.1-9.1,4.8-12.4,4.4
		c-4.3-0.7-8.4-2.5-11.9-5c-2.9-2.4-7.9-15-9-17.3s-2.8-4.9-1.9-7.1"/>
</g>
</svg>
