<svg xmlns="http://www.w3.org/2000/svg" viewBox="0 0 120 120"><defs><style>.cls-1{fill:#85bdb3;}.cls-2{fill:#f76566;}.cls-3{fill:none;}</style></defs><g id="Lag_2" data-name="Lag 2"><g id="Lag_1-2" data-name="Lag 1"><g id="Lag_2-2" data-name="Lag 2"><g id="Lag_1-2-2" data-name="Lag 1-2"><path class="cls-1" d="M25.42,54.67q15.35.15,30.61,1.38c5.13.42,10.25,1,15.35,1.54,4.8.56,9.6,1.28,14.43,1.55a41.33,41.33,0,0,0,15.88-1.84L99.88,56c.66,5.52-2.53,10.65-3.35,16-.89,5.75-.43,11.6-1.12,17.39a63.49,63.49,0,0,1-4.31,16.1c-.49,1.22-1,2.4-1.64,3.59a2.74,2.74,0,0,1-2.33,1.84c-3,.33-6,.43-9.11.56q-9.17.44-18.34.29c-3.06-.06-6.12-.16-9.17-.33-2.9-.16-5.82-.29-8.68-.65a13.78,13.78,0,0,1-6.84-2.4A14.47,14.47,0,0,1,31,103a70.46,70.46,0,0,1-2.86-7.2q-1.48-4.2-2.86-8.45c-3.06-9.8-6.54-21.83.1-31a15.9,15.9,0,0,1,2.3-2.5c1.38-1.21-.66-3.22-2-2-3.94,3.48-6,8.54-6.64,13.67-.79,6,.53,12.1,2.17,17.88S24.77,95.13,27,100.85a28.71,28.71,0,0,0,3.42,6.77,14,14,0,0,0,6.18,4.84,28.69,28.69,0,0,0,8.18,1.44c3.19.23,6.41.43,9.6.53,6.35.26,12.69.26,19,.06,3.18-.09,6.41-.26,9.59-.46,1.58-.09,3.16-.16,4.74-.39a5,5,0,0,0,3.61-2.17,19.52,19.52,0,0,0,1.84-3.65c.6-1.38,1.19-2.76,1.71-4.17a62.49,62.49,0,0,0,2.4-8.45,64.92,64.92,0,0,0,1.29-8.84c.23-3,.19-6,.32-9a34.71,34.71,0,0,1,1.35-8.78,63.07,63.07,0,0,0,2.34-8.31,16.2,16.2,0,0,0,.16-4.34,1.42,1.42,0,0,0-1.81-1.35c-9,3.12-18.77,1.51-28,.36Q57.78,53.09,42.52,52.3c-5.72-.3-11.41-.46-17.13-.53a1.45,1.45,0,0,0,0,2.9Z"/><path class="cls-2" d="M59.09,51.64c.26-6,.69-11.86,1.34-17.81.3-2.93.69-5.82,1.12-8.78a50.65,50.65,0,0,1,1.58-8.35c.76-2.3,2.23-4.54,4.6-5.29l-1.64-.66C69,16,70,21.86,71.68,27.51A155,155,0,0,0,77.86,45c1.34,3.19,2.79,6.31,4.33,9.4.83,1.65,3.29.2,2.44-1.44a142.87,142.87,0,0,1-7.23-16.9c-1-2.89-2-5.78-2.86-8.71S73,21.53,72.17,18.61a48.14,48.14,0,0,0-3.65-9.37,1.45,1.45,0,0,0-1.61-.66,10,10,0,0,0-5.56,4.9A27.23,27.23,0,0,0,59.05,22c-.95,6.25-1.71,12.53-2.23,18.81-.3,3.58-.53,7.13-.66,10.71a1.47,1.47,0,0,0,2.93.1Z"/><path class="cls-1" d="M31.54,52.76C31.74,68,32,83.5,35.75,98.39a88.36,88.36,0,0,0,4,12.19,1.42,1.42,0,0,0,2.73-.75c-5.85-14-7.4-29.23-7.86-44.22-.16-4.3-.2-8.54-.26-12.85a1.43,1.43,0,0,0-2.86,0Z"/><path class="cls-1" d="M44.36,54q.09,12.92,1.35,25.8c.42,4.21.88,8.42,1.48,12.63a58.42,58.42,0,0,0,2.17,10.06,27.58,27.58,0,0,0,5.75,10.32c1.25,1.35,3.22-.66,2-2C52.58,105.85,51,99,50.05,92.5c-1.22-8.08-1.94-16.24-2.44-24.42-.26-4.7-.42-9.37-.46-14A1.4,1.4,0,0,0,44.36,54Z"/><path class="cls-1" d="M58.49,56.34a143.29,143.29,0,0,0,10.85,43.3c1.71,3.94,3.55,7.82,5.06,11.83a1.44,1.44,0,0,0,1.75,1,1.42,1.42,0,0,0,1-1.75c-1.35-3.58-3-7.1-4.53-10.61s-2.86-6.81-4.08-10.29a138.29,138.29,0,0,1-5.59-21.24c-.72-4-1.25-8.12-1.61-12.19A1.47,1.47,0,0,0,59.91,55a1.35,1.35,0,0,0-1.42,1.38Z"/><path class="cls-1" d="M75.65,55.59a181.19,181.19,0,0,0,10.82,37c1.41,3.41,2.89,6.77,4.5,10a1.42,1.42,0,1,0,2.47-1.41A176.64,176.64,0,0,1,80.65,65.42q-1.28-5.23-2.2-10.56a1.45,1.45,0,0,0-2.8.73Z"/><path class="cls-1" d="M24.18,61.54c4.79-1.09,9.73-.36,14.46.65s9.7,2.14,14.59,2.86a147.24,147.24,0,0,0,30,1.42,154.41,154.41,0,0,0,16.93-1.94,1.39,1.39,0,0,0,1-1.74,1.43,1.43,0,0,0-1.75-1,140.15,140.15,0,0,1-29.71,2,139.67,139.67,0,0,1-14.86-1.31c-4.93-.69-9.76-1.78-14.63-2.86-5.52-1.19-11.24-2.07-16.8-.82-1.8.42-1,3.15.76,2.76Z"/><path class="cls-1" d="M22.2,71a105.58,105.58,0,0,0,30.25,4.08A108.24,108.24,0,0,0,67.7,73.73q3.8-.58,7.49-1.48c2.5-.56,4.93-1.34,7.43-2,4.47-1.12,10.06-1.77,13.55,2,1.24,1.35,3.25-.65,2-2C95,66.8,90.05,66.17,85.61,66.76A56.33,56.33,0,0,0,78,68.6c-2.47.7-5,1.25-7.46,1.75A101,101,0,0,1,39.92,71.6a103.45,103.45,0,0,1-17-3.36A1.42,1.42,0,0,0,22.2,71Z"/><path class="cls-1" d="M26.05,86.26l28.2-5c4.67-.82,9.34-1.74,14-2.4a45.28,45.28,0,0,1,13.15-.29,22.94,22.94,0,0,1,11.83,5,1.42,1.42,0,1,0,2-2c-6.74-5.82-15.94-6.84-24.46-5.92-4.9.53-9.7,1.48-14.53,2.3L41.76,80.54l-16.5,2.92a1.43,1.43,0,0,0-1,1.75,1.46,1.46,0,0,0,1.78,1.05Z"/><path class="cls-1" d="M32.1,95.1a168.29,168.29,0,0,0,49.73-1.94c3.85-.72,8.25-1.64,12,0a1.41,1.41,0,0,0,1.94-.53,1.4,1.4,0,0,0-.52-1.93c-3.69-1.65-7.6-1.45-11.48-.79-4,.65-8,1.48-12.06,2A167.27,167.27,0,0,1,46.4,93.23c-4.77-.14-9.54-.43-14.3-1a1.43,1.43,0,0,0-1.42,1.41A1.48,1.48,0,0,0,32.1,95.1Z"/><path class="cls-1" d="M92.68,101.38c-7.86-2.4-16.07-.82-23.93.66a90.67,90.67,0,0,1-12.2,1.71,75.34,75.34,0,0,1-12.75-.56c-4.87-.63-9.7-1.58-14.46-2.57a1.5,1.5,0,0,0-1.75,1,1.42,1.42,0,0,0,1,1.74c8.48,1.71,17.09,3.42,25.74,3.32,8.25-.1,16.17-2.5,24.32-3.35a32.71,32.71,0,0,1,13.25.85c1.81.53,2.53-2.23.79-2.79Z"/></g></g><rect class="cls-3" width="120" height="120"/></g></g></svg>