<svg xmlns="http://www.w3.org/2000/svg" viewBox="0 0 63.36 91.33"><defs><style>.cls-1{fill:#f76566;}.cls-1,.cls-2,.cls-7{stroke:#f76566;}.cls-1,.cls-3,.cls-6,.cls-7{stroke-linecap:round;stroke-linejoin:round;}.cls-1,.cls-2,.cls-6{stroke-width:2px;}.cls-2,.cls-4{fill:#ffc498;}.cls-2{stroke-miterlimit:10;}.cls-3{fill:#85bdb3;stroke-width:4px;}.cls-3,.cls-6{stroke:#85bdb3;}.cls-5{fill:#fff;}.cls-6{fill:#ffa999;}.cls-7{fill:none;}</style></defs><g id="Lag_2" data-name="Lag 2"><g id="Lag_1-2" data-name="Lag 1"><path class="cls-1" d="M26.16,43.48c.11,0,.44-.59.46-.58a4.15,4.15,0,0,1,.75.64s.08,0,.14.05h.11c.28.25.64.17.94.28a1.83,1.83,0,0,0,1.66.14.44.44,0,0,1,.22.58c0,.06,0,.08-.05.14s-.23.72-.25.86a5.75,5.75,0,0,0-.2,1.38c0,.25-.11.47-.13.72a9.52,9.52,0,0,0-.12,1c.14,0,.09.14,0,.25,0,.33-.09.69-.14,1.05A28.6,28.6,0,0,0,29.47,53a5.73,5.73,0,0,0,.14.91c.06.42.08.83.14,1.25a2.74,2.74,0,0,1,0,.5,2,2,0,0,1-.09.83c0,.08-.05.16,0,.22s0,.33-.09.5a3.51,3.51,0,0,0-.16.6c-.08.45-.14.92-.2,1.36,0,.17-.08.33-.11.5-.08.47-.13.91-.22,1.38a7,7,0,0,1-.11.78c0,.13,0,.22.17.3a14.15,14.15,0,0,0,2.18,1c.11,0,.94.52,1,.52a19.27,19.27,0,0,1,2.74,1.66c.44.34,3.4,2.22,3.38,2.33A16.66,16.66,0,0,0,39.6,69c.36.3.69.61,1,.91s.53.36.78.55.41.34.61.5a1.94,1.94,0,0,0,.38.2c.06,0,.22.22.31.3a6.68,6.68,0,0,0,.74.64c.31.19.58.47.89.69,0,0,0,.08.08.11a2,2,0,0,0,.47.63l.31.42a.48.48,0,0,0,.11.17,6.9,6.9,0,0,1,.77,1.21,5.2,5.2,0,0,1,.56,1.36,1,1,0,0,0,.27.47c.28.41.53.83.78,1.24s.58,1.11.91,1.66.69,1.06,1,1.61a8,8,0,0,0,.88,1.3,4.48,4.48,0,0,0,.36-.42c.22-.27.42-.58.64-.85,0-.06.72-1.11,1-1.55.13-.28.33-.5.47-.78a3,3,0,0,0,.19-.5,8.28,8.28,0,0,1,.53-1.13,10,10,0,0,0,.63-1.27c.2-.45.39-.86.56-1.3.24-.69.47-1.36.72-2a.18.18,0,0,1,0-.11,12.17,12.17,0,0,0,.72-1.61c.3-.69,1.8-4,1.8-4.34,0-.11,1-3.87,1-4.23s0-.58.06-.86a1.55,1.55,0,0,1,.08-.36s0-.08,0-.11a2.22,2.22,0,0,1,.19-1.19.72.72,0,0,0,0-.25c.05-.39.14-.75.19-1.13a.78.78,0,0,1,0-.14,1.82,1.82,0,0,1,.14-.92c.08-.33.11-.66.19-1s.53-2.24.56-2.46a2.76,2.76,0,0,1,.13-1.06c.09-.16,0-.36.06-.55a1.39,1.39,0,0,1,.22-.55.35.35,0,0,0,.06-.36,1.09,1.09,0,0,1,0-.83,1.88,1.88,0,0,0,.08-1c0-.06,0-.14,0-.17a1.32,1.32,0,0,0,.08-.94,3.34,3.34,0,0,1,.17-1.44.94.94,0,0,0,.06-.47,3.38,3.38,0,0,1,0-1.27c0-.19,0-.39.06-.58a.26.26,0,0,1,0-.19.32.32,0,0,0,0-.36c0-.06-.08-.09-.08-.11a1.32,1.32,0,0,0-.06-.48c0-.52-.08-1.05-.13-1.6a3.59,3.59,0,0,0-.2-.69c-.11-.33-.3-1.74-.36-2.1s-.14-.56-.19-.83l-.17-.64c0-.17-.08-.36-.11-.53a3.46,3.46,0,0,0-.22-.91,5.47,5.47,0,0,1-.22-.75,5.08,5.08,0,0,1-.22-.52c-.25-.56-.44-1.14-.72-1.66-.17-.31-.31-.64-.47-1a5.45,5.45,0,0,1-.39-.66c-.19-.42-.5-.72-.69-1.14l0,0c-.19-.5-.64-.8-.88-1.24a9.66,9.66,0,0,0-1.06-1.33c-.41-.5-.83-1-1.24-1.47a15,15,0,0,0-2.08-2.13,7,7,0,0,0-.69-.47c-.52-.33-1-.63-1.6-.94a2.25,2.25,0,0,0-.22-.11.62.62,0,0,1-.47-.39,2,2,0,0,1,.58-.33,2.55,2.55,0,0,1,1.1-.08s.09,0,.11,0a2.41,2.41,0,0,1,1,0,.7.7,0,0,0,.25,0,7,7,0,0,0,2-.44,11.55,11.55,0,0,0,2-1.17c.5-.38,1-.72,1.53-1.08a6.73,6.73,0,0,0,.8-.69c.39-.44.33.17-.2.5-.16.11-.27.25-.44.36s0,.08-.11.11a11.35,11.35,0,0,0-1.58,1.14c-.33.22-.72.41-1.08.6a3,3,0,0,1-.69.36,10.2,10.2,0,0,1-1,.36c-.14.06-.31,0-.47.11a.85.85,0,0,1-.61.06h-.14a2.64,2.64,0,0,1-1,.11h-.44a1.22,1.22,0,0,1-.33,0,1.89,1.89,0,0,0-.92.14c.25.11.45.17.64.25s.58.33.86.5c.49.3,1,.6,1.46.91a2.27,2.27,0,0,1,.31.25c.36.3.72.61,1.05.91a3,3,0,0,1,.36.44.47.47,0,0,0,.14.14,5.76,5.76,0,0,1,.94,1,9.79,9.79,0,0,0,.72.85L57,29.51l.16.28.53.66c.22.31.42.61.64.94l1.24,2.08c.17.3.28.61.44.91s.25.53.36.78c.2.49.36,1,.53,1.49s.33,1,.5,1.49c0,.14,0,.31.08.47.11.45.53,2.33.55,2.52s.09.31.12.47a5.24,5.24,0,0,1,0,.56,3,3,0,0,0,.09.72,4.91,4.91,0,0,1,.13,1.57,3.39,3.39,0,0,0,0,.45,5.28,5.28,0,0,1-.09,1c0,.14.09.25,0,.36a1.25,1.25,0,0,0-.08.42s0,.08,0,.13.11.28,0,.42,0,.08,0,.11a.8.8,0,0,1,0,.53s0,.13,0,.19a3,3,0,0,1-.06,1.22,4.07,4.07,0,0,0,0,.61V50c-.06.47-.09.94-.17,1.41a.6.6,0,0,1-.11.3,2.3,2.3,0,0,0-.28,1c0,.38-.11.77-.14,1.16a6.69,6.69,0,0,1-.16.75,1.22,1.22,0,0,0,0,.33,12.62,12.62,0,0,1-.31,1.58l-.36.08v.08c.09,0-.08.5,0,.5s.14,0,.14.06a2.64,2.64,0,0,1-.09,1.43c0,.06,0,.17,0,.25s0,.31,0,.45c-.06.36-.14.74-.22,1.1v.2s0,.11,0,.13c-.11.39-.25.78-.36,1.17,0,.08-.09.16,0,.27a.33.33,0,0,1-.06.31,1,1,0,0,0-.08.58,16.93,16.93,0,0,1-.8,2.74c-.11.11-.09.22-.11.36a1.07,1.07,0,0,0-.06.3c0,.06-.11.11-.19.2s0,0,.13,0a1.53,1.53,0,0,1-.22.8s0,.09,0,.14c0,.25-.91,2-1,2.3s-.12.33-.17.5-.19.49-.25.74-.14.34-.33.39c.14.36-.28.28-.39.47a.48.48,0,0,1-.22.64c-.14.08-.08.25-.19.33a.27.27,0,0,0,0,.33.53.53,0,0,1-.08.44c-.14.11-.12.25-.14.36a3.32,3.32,0,0,1-.25.83c0,.06-.09.11-.11.17a1.46,1.46,0,0,0-.2.25.69.69,0,0,1-.41.47c-.06.3-.11.61-.17.94,0,.08,0,.17-.08.22-.19.36-.39.69-.58,1a3.5,3.5,0,0,0-.44.86c-.09.25-.56.94-.59,1.08a15.15,15.15,0,0,1-.88,1.52,4.54,4.54,0,0,0-.42.56,5.66,5.66,0,0,0-.38.8c0,.14-.17.25-.28.39s.19.38.42.44c.11.3-.23.41-.28.64-.28,0-.36-.14-.47-.31s-.06-.14-.09-.22-.22-.22-.35-.11a1.14,1.14,0,0,0-.23.3c0,.09-.08.17-.11.23-.16.24-.16.24-.49.16,0-.16,0-.33.05-.5-.14,0-.22,0-.3.09s-.17,0-.25-.06a1,1,0,0,1,.47-.36c.08,0,.19,0,.27-.11a.36.36,0,0,0,.2-.61,3.73,3.73,0,0,0-.39-.41,1.87,1.87,0,0,1-.39-.61c-.08-.2-.55-1.11-.63-1.33a1.4,1.4,0,0,0-.22-.44c-.06-.06,0-.22-.09-.31s-.19-.16-.19-.27a2.32,2.32,0,0,0-.19-.42c-.09-.19-.92-1.47-1-1.6a7.94,7.94,0,0,1-.33-.78,3.41,3.41,0,0,0-.22-.66s0-.06-.05-.09c-.25-.16-.31-.44-.45-.66a8.24,8.24,0,0,0-1.13-1.44,3.37,3.37,0,0,1-.42-.5,4.39,4.39,0,0,0-.47-.66,1.21,1.21,0,0,0-.52-.39,1.77,1.77,0,0,1-.53-.36c-.05,0-.08-.11-.14-.14l-.61-.41c.06-.06-.33-.31-.52-.5s-.28-.25-.42-.39-.88-.55-1-.69a1.1,1.1,0,0,0-.5-.41,2.43,2.43,0,0,0-.2-.14,2.1,2.1,0,0,0-.85-.67.2.2,0,0,1-.11-.08,15.34,15.34,0,0,0-1.94-1.38c-.22-.25-3.85-2.44-3.9-2.49s-2.33-1.5-2.58-1.61-1.21-.38-1.21-.19-.06.19-.17.25-.19.11-.28,0a.31.31,0,0,1,0-.25,5.73,5.73,0,0,0,.2-1.36c.05-.41.08-.8.11-1.21s.14-1,.22-1.5A7,7,0,0,0,29,58c.05-.25.08-.5.11-.75s.11-.55.14-.86.08-.47.08-.71c0-.47,0-.95.06-1.47,0,0-.09-.06-.17-.14a.87.87,0,0,1,.08-.14c0,.09,0,.14.09.14a.06.06,0,0,0,.05,0c0-.12-.08-.09-.14-.09-.41-.19-.5-.36-.44-.94.05,0,.14,0,.17-.11a.8.8,0,0,0,0-.22v-.55c0-.5,0-1,0-1.53A4,4,0,0,0,29,50a9.4,9.4,0,0,1,.11-1.19.55.55,0,0,1,.25-.53c-.05-.08-.08-.19-.14-.28a.59.59,0,0,0,.17-.11.63.63,0,0,0-.11-.08l.19-.28c0-.05-.08-.08-.13-.14s.05-.16,0-.19a1.07,1.07,0,0,1,0-.77c0-.14-.05-.36.2-.42-.2-.41.14-.69.19-1.08-.11-.11-.28-.25-.41-.39a2.44,2.44,0,0,0-1-.58,13.49,13.49,0,0,0-2.13-.33S26.16,43.48,26.16,43.48ZM29,53.28a1.29,1.29,0,0,0,.06.22s.05,0,.08,0,0-.09,0-.11ZM61.49,50c0-.06,0-.11.08-.2C61.43,49.79,61.4,49.82,61.49,50Zm-26.7,16.3.05,0S34.81,66.23,34.79,66.26Z"/><path class="cls-2" d="M16.3,46.2a1.18,1.18,0,0,0-.72,0,1.45,1.45,0,0,1-1.05-.11,4.25,4.25,0,0,0-.86-.33l-.19-.12a.68.68,0,0,0,.19-.08l-.05-.05c-.42.08-.69-.2-1-.42-.11-.08-.14-.3-.22-.5l-.19,0c-.11-.14-.2-.28-.28-.39s0-.09,0-.09.06-.24.06-.35a.34.34,0,0,0-.06-.25.23.23,0,0,1,0-.23c0-.16,0-.35.08-.52s.08-.06.17-.08c-.17,0-.28-.09-.23-.25s.11-.39.17-.56a2.47,2.47,0,0,1,.11-.36c.25-.52.5-1.05.75-1.55-1,0-1.3,0-1.61-.27,0-.06,0-.11.06-.17a.1.1,0,0,1-.06,0c-.11.09-.19.06-.33,0a2.7,2.7,0,0,1-1.33-1.21A4,4,0,0,1,9,36.84a2.58,2.58,0,0,1,.08-1.32c0-.09.05-.17.08-.28H9a1.79,1.79,0,0,1-1.6-.42c-.14-.11-.28-.25-.42-.38s0,0,0,0a1.34,1.34,0,0,1-.81-1A.77.77,0,0,0,6,33.11a1.26,1.26,0,0,1-.27-.69c0-.06,0-.11,0-.14a1.51,1.51,0,0,0,0-.67,1.2,1.2,0,0,1,.19-.91,7.94,7.94,0,0,0,.28-.77,2.45,2.45,0,0,1,.22-.5.47.47,0,0,0-.53-.11.35.35,0,0,1-.39-.06c-.22-.16-.44-.36-.66-.52a.14.14,0,0,1-.05-.11.53.53,0,0,0-.25-.47,3.29,3.29,0,0,1-.78-1.11,1.43,1.43,0,0,1-.14-.72,4.42,4.42,0,0,1,.5-1.72c.11-.16.22-.33.36-.52A1.28,1.28,0,0,0,4.18,24a1.92,1.92,0,0,1-.8-.22,3.06,3.06,0,0,0-.47-.08.25.25,0,0,1,0-.14H2.88c0,.06,0,.09.06.14s0,0-.06,0a3.61,3.61,0,0,1-.66-.44,1.49,1.49,0,0,1-.53-.86.22.22,0,0,0,0-.11c-.28-.22-.25-.52-.28-.8a1.44,1.44,0,0,1,.19-.11v-.08c-.22-.2-.13-.45-.13-.7a1.42,1.42,0,0,1,.27-.74,4.4,4.4,0,0,1,1.05-.92c.09-.05.17-.11.28-.16-.06-.06-.08-.11-.14-.17l-1.16-.83a2.48,2.48,0,0,1-.69-.91A.82.82,0,0,1,1,16.45a2.59,2.59,0,0,1,.72-2,2.45,2.45,0,0,1,.61-.36c.19.2.19.28,0,.39a2,2,0,0,0-.66.64,2,2,0,0,0-.39,1.32,1.55,1.55,0,0,0,.55,1,15.56,15.56,0,0,0,1.5,1,.74.74,0,0,0,.44.11,3,3,0,0,1,1.38.34s.09,0,.11.05c-.3.42-.58.5-1,.28a1.21,1.21,0,0,0-1.33.08,1.16,1.16,0,0,0-.58.72.2.2,0,0,1-.06.11,2.06,2.06,0,0,0-.25,1.74,2.08,2.08,0,0,0,1.22,1.44,2,2,0,0,0,1.22.2,1.8,1.8,0,0,0,.36-.06l-.31-.16a1.47,1.47,0,0,1,.67-.12V23c.11,0,.22,0,.27.09a.49.49,0,0,0,.48.13c.11,0,.19.14.13.28a.53.53,0,0,1-.16.28c-.14.22-.14.22,0,.41a3,3,0,0,0,.27.39c0,.08-.11.14-.19.25a1.83,1.83,0,0,0,.28.14c.25.11.25.14.08.36,0,0-.06.08-.08.08-.22-.05-.42-.14-.61-.19a.29.29,0,0,1-.22-.25c-.09-.25-.36-.31-.56-.39s-.22,0-.33.17a2.57,2.57,0,0,0-.27.49c0,.09-.12.14-.14.17a1.53,1.53,0,0,1,0,.36,1.9,1.9,0,0,0,.17,1.44,2.51,2.51,0,0,0,.3.47,7.38,7.38,0,0,1,.5.64,1.8,1.8,0,0,0,.56.47,1,1,0,0,0,.77.08,2.16,2.16,0,0,0,.91-.58.32.32,0,0,1,.31-.11.25.25,0,0,0,.14,0c.33-.11.38-.08.41.3-.16.11-.27.34-.55.28a.2.2,0,0,0-.11.06,5.59,5.59,0,0,0-.8,1.08,9.36,9.36,0,0,0-.36,1,2.86,2.86,0,0,0-.06,1.66,2.34,2.34,0,0,0,.42.89,2.91,2.91,0,0,0,1.32,1.11c.25.08.5.13.75.19a.36.36,0,0,0,.39-.17,1.6,1.6,0,0,1,.16-.19A1.23,1.23,0,0,0,9.58,34c.08-.22.14-.47.22-.72.08,0,.17,0,.28,0s0-.11,0-.16h0a.24.24,0,0,1,.16.33,2.9,2.9,0,0,0,0,.39,3.93,3.93,0,0,1,.36-.22,2.64,2.64,0,0,1,.36-.28c.13-.08.16-.08.3.17-.33.3-.69.63-1.05.94a2,2,0,0,0-.36.36,3.12,3.12,0,0,0-.17.49c-.05.14-.08.25-.14.39s0,.08,0,.11a3.06,3.06,0,0,0,.38,1.41c.12.14.17.36.28.5A3.65,3.65,0,0,0,12,39.14a1.6,1.6,0,0,0,.53.06c.28,0,.28,0,.36-.28a.62.62,0,0,1,.17-.22s.13,0,.27,0c-.08.11-.11.16-.16.19a.46.46,0,0,0,.61.25,4.37,4.37,0,0,0,.8-.42c.39-.22.75-.47,1.1-.71s.31-.09.39.11a1.12,1.12,0,0,1,0,.33,4.86,4.86,0,0,0-1.33.8,4.52,4.52,0,0,1-.66.33,3.78,3.78,0,0,0-.53.28s-.05.08-.08.11a1,1,0,0,1-.36.47c-.08.06-.11.19-.17.3a3.92,3.92,0,0,0-.49,2.44c0,.11,0,.19,0,.3a1.28,1.28,0,0,0,.47.92,3.39,3.39,0,0,0,.78.49,6.93,6.93,0,0,0,1.6.61c.06,0,.11,0,.17,0a2.64,2.64,0,0,0,1.16-.28h0c.28-.16.66,0,.88-.3a4.52,4.52,0,0,1,.81-.53l.16-.08a2.6,2.6,0,0,0,1-.55c.11-.09.25-.14.33-.22a.67.67,0,0,0,.14-.28,5.25,5.25,0,0,1,.19-1.49,1.33,1.33,0,0,1,.86-1l.39-.17.89-.25c-.06.12-.09.2-.14.28l.33.2c-.28.19-.39.52-.78.66-.08-.33.28-.44.28-.72a.93.93,0,0,0-.69.19.62.62,0,0,0-.28.64c-.14.11-.36.17-.33.33.19.17.36.31.53.44a.78.78,0,0,0,.3-.36c.06-.13.11-.27.3-.24a.43.43,0,0,1,.06-.09c.08.11.11.2,0,.31a2,2,0,0,0-.14.33s-.06.11-.08.11c-.22,0-.28.22-.39.33a4.41,4.41,0,0,1-.44.58.62.62,0,0,0-.17.69c.06.2.14.39.19.56a.56.56,0,0,1,0,.22,2.46,2.46,0,0,1,.28.28,1.5,1.5,0,0,0,1.52.52A2.26,2.26,0,0,0,24,44.89a8.76,8.76,0,0,1,.88-.83A6.07,6.07,0,0,0,26,42.93c.22-.33.36-.36.66,0-.08.11-.19.2-.27.31s-.11.19-.17.27h0c-.05,0-.16,0-.19,0a1.29,1.29,0,0,0-.28.38.7.7,0,0,1-.47.39.29.29,0,0,0-.19.11l-1.33,1.33a1,1,0,0,1-.64.3,7.53,7.53,0,0,1-.83.11,8.29,8.29,0,0,1-.86,0,.21.21,0,0,1-.13-.09,2,2,0,0,0-.47-.49,1.83,1.83,0,0,1-.36-.45l.13-.08a.13.13,0,0,0,0-.06c-.22,0-.25-.16-.31-.33a3.76,3.76,0,0,1-.11-.58,2.17,2.17,0,0,0-.72.42,1.86,1.86,0,0,1-.33.19,1.36,1.36,0,0,0-.25.11,2.91,2.91,0,0,1-.8.47l-.58.33a5.24,5.24,0,0,1-.53.28l-.11.08c-.08.34-.28.36-.5.34ZM5.68,24.59c.11-.09.16-.14.05-.23s-.05,0-.13,0A1.47,1.47,0,0,0,5.68,24.59ZM20.73,42.88a1.89,1.89,0,0,1,.25-.23,1.37,1.37,0,0,1-.25,0ZM5.15,23.48l0,0s0,0,.06,0l-.06-.06A.09.09,0,0,0,5.15,23.48Z"/><path class="cls-3" d="M20.9,87.84c.22.08.41.14.6.22a.74.74,0,0,1,.28.14.19.19,0,0,0,.11,0,13.16,13.16,0,0,1,1.72.36,5.65,5.65,0,0,0,1,.06c.5,0,1,0,1.47,0,.16,0,.33-.06.5-.06a16.36,16.36,0,0,1,2.32-.08c.55,0,1.11,0,1.63,0a6.4,6.4,0,0,0,2.16-.36,6.11,6.11,0,0,1,1.41-.3,1.51,1.51,0,0,0,.75-.2,1.42,1.42,0,0,1,.33-.11,2.34,2.34,0,0,1,.91,0s.09,0,.11,0a2.28,2.28,0,0,1,.83-.25,4.5,4.5,0,0,1,.83-.14c.36,0,.7-.16,1.06-.19s.94-.31,1.43-.39,1.22-.25,1.83-.36A8.48,8.48,0,0,0,43,85.9l1.3-.3c.39-.12.8-.25,1.19-.39L46,85c.5-.14,1-.36,1.5-.5a2.32,2.32,0,0,0,1.13-.49s.06,0,.11-.06.11.19.19.31a1.67,1.67,0,0,1-.24.16c-.36.14-.72.25-1.11.36l-.75.22c-.39.11-.75.25-1.13.39l-.28.08A12.44,12.44,0,0,0,44,86c-.53.22-1.11.25-1.66.45-.34.11-.69.16-1,.24h-.09a10,10,0,0,1-1.35.39,11.78,11.78,0,0,1-2.19.5,2.67,2.67,0,0,0-.66.17,6.23,6.23,0,0,1-1.11.22l-.83.16c-.64.14-1.24.28-1.88.45-.39.08-.75.25-1.11.3a15.77,15.77,0,0,1-2.82.22,5.86,5.86,0,0,0-.69.06,8.24,8.24,0,0,1-.86,0,.88.88,0,0,0-.28,0,3.32,3.32,0,0,1-1.3.11h0a13.85,13.85,0,0,1-1.94.11h-.25l-1.41-.25a6.87,6.87,0,0,1-.75-.19l-.25-.08-.77-.36a.34.34,0,0,0-.17,0,.3.3,0,0,1-.16,0c-.23,0-.36-.22-.59-.22a2.8,2.8,0,0,1-.58-.19A.3.3,0,0,0,19,88,3.47,3.47,0,0,1,18,87.67c-.19,0-.25-.22-.19-.47a2.18,2.18,0,0,1,.94.17.67.67,0,0,0,.19,0,3.09,3.09,0,0,1,1.08.14l.33.14c-.14-.33-.22-.61,0-.83v-.39c.06-.47.25-.88.28-1.35a1.38,1.38,0,0,1,.17-.45,1.17,1.17,0,0,0,.14-.63,2.66,2.66,0,0,1,.13-.78c.2-.63.39-1.27.59-1.91a3.05,3.05,0,0,1,.22-.5c.16-.38.36-.77.52-1.16a1.68,1.68,0,0,0,.17-.55,5.94,5.94,0,0,1,.61-1.94.86.86,0,0,0,.19-.69.08.08,0,0,1,0-.08c.16-.2.14-.45.22-.64s.14-.58.19-.69c.11-.28.2-.53.31-.8,0-.11.08-.22.11-.34a7.48,7.48,0,0,1,.75-1.77.86.86,0,0,0,.13-.52c0-.06,0-.14,0-.17.17-.27.11-.61.39-.83a.18.18,0,0,0,0-.16,1,1,0,0,1,.16-.83,7.38,7.38,0,0,0,.5-1.11c0-.06,0-.08.06-.14a1,1,0,0,0,.24-.72,1.08,1.08,0,0,1,.2-.47,1.13,1.13,0,0,0,.11-.22c.05-.17.17-.33.22-.53s.33-.49.33-.83c0-.13.14-.24.2-.38a3.42,3.42,0,0,1,.25-.47,4.85,4.85,0,0,0,.3-.86c.14-.33.14-.33.5-.31.11.12,0,.23,0,.34-.22.58-.42,1.13-.64,1.68s-.39.89-.55,1.36a13.22,13.22,0,0,0-.44,1.3,10,10,0,0,1-.45,1.22,6.52,6.52,0,0,0-.36.88c-.19.56-.36,1.11-.58,1.66s-.36,1-.55,1.44c0,.09,0,.17-.06.25s-.14.44-.19.64-.08.27-.11.38a6.85,6.85,0,0,1-.19.72l-.83,2.25c-.12.33-.2.69-.31,1a10.68,10.68,0,0,1-.47,1.27,4,4,0,0,0-.25.78c-.08.27-.22.52-.3.8A10.18,10.18,0,0,0,21.86,83c-.19.83-.36,1.66-.55,2.49,0,.2-.14.36-.17.53-.08.33-.11.66-.19,1v.16C21.06,87.5,21.06,87.5,20.9,87.84Z"/><path class="cls-2" d="M33.71,26.66a.51.51,0,0,1-.47.11c-.39-.05-.8-.14-1.19-.22s-5.37-2.88-5.89-3l-7.5-2.6C18,20.63,3.13,14.66,2.5,14.39c-.17-.06-.29-.24-.15-.35a5.61,5.61,0,0,1,2.07.44c.94.39,21.29,8.34,22.2,8.7.25.08,5.65,3.05,5.9,3.11s.58.11.86.19S33.46,26.63,33.71,26.66Z"/><path class="cls-4" d="M2.94,23.7c0-.05,0-.08-.06-.14h.06s0,.09,0,.14Z"/><path class="cls-5" d="M42,1.26s0,0,0-.05,0,0,.06,0l0,0S42,1.23,42,1.26Z"/><path class="cls-4" d="M20.73,42.88V42.6a1.37,1.37,0,0,0,.25,0A1.89,1.89,0,0,0,20.73,42.88Z"/><path class="cls-6" d="M33.18,27.15a.17.17,0,0,0,.14,0c.17-.09.3,0,.47,0s.22.11.25.25a3.21,3.21,0,0,0,.11.52c.05.2.11.2.36.08a3.52,3.52,0,0,1-.14-.6c0-.28,0-.28.19-.42a.81.81,0,0,0,.2-.14c.08-.08,0-.19-.08-.22h-.14c-.31,0-.34,0-.36-.28-.06-.49-.09-1-.11-1.46s0-1-.06-1.52c0-1.28,0-2.58,0-3.85,0-.66,0-1.3.05-2a.53.53,0,0,1,0-.28,1.11,1.11,0,0,0,.11-.66,8.67,8.67,0,0,1,.06-.89c0-.42.08-.86.14-1.27,0-.14,0-.28,0-.42.11-.5.23-1,.34-1.49a9.23,9.23,0,0,1,.36-1.3c.16-.39.24-.8.38-1.19s.22-.75.36-1.11c.31-.69.67-1.38,1-2A4,4,0,0,1,37.44,6c.39-.45.67-1,1.08-1.39s.53-.66.86-.91.61-.55.91-.8a5.83,5.83,0,0,1,1.72-1,4.43,4.43,0,0,1,1.19-.36c.47,0,.94-.08,1.41-.14a.47.47,0,0,1,.19.06,3.67,3.67,0,0,0,.53.22,1.61,1.61,0,0,1,.58.39c.25.27.52.55.8.8a2.31,2.31,0,0,1,.55.66s0,.06.06.09a3.89,3.89,0,0,1,.64,1A10.31,10.31,0,0,1,48.7,7a11.12,11.12,0,0,1,.17,1.91c.05.66.05,1.32.11,2,0,.22-.25,1.35-.19,1.44a1.53,1.53,0,0,1,.33.38c.11.25.08.25.36.25h.33A.29.29,0,0,1,50,13a4.33,4.33,0,0,1,.61.6,17.69,17.69,0,0,1,1.08,2c0,.25.33,1.36.16,1.61a8.36,8.36,0,0,0-.35,1.44h0A2.58,2.58,0,0,1,51.41,20c-.13.31-.33.58-.49.89-.09.16-.11.38-.25.49a.51.51,0,0,0-.22.42,5.84,5.84,0,0,1-.2.64.22.22,0,0,0,.06.3.51.51,0,0,0,0,.3c.39.81,3.73.23,6.33-1.52a11.74,11.74,0,0,0,2.69-2.71,20.37,20.37,0,0,0-1.58-2.38.5.5,0,0,0-.22-.19c-.17-.06-.22-.2-.33-.28a2.19,2.19,0,0,0-.2-.22,6.8,6.8,0,0,0-.74-.53c-.36-.22-.64-.58-1-.6-.14-.12-.19-.23-.27-.28a1.51,1.51,0,0,1-.58-.33.5.5,0,0,0-.2-.11c-.39-.2-.77-.42-1.16-.61a9.73,9.73,0,0,0-1.69-.89A9.76,9.76,0,0,1,50,11.71a.58.58,0,0,1-.39-.69v-.17c0-.64-.05-1.25-.08-1.88,0-.33,0-.69-.09-1a8.54,8.54,0,0,1-.16-1.13c0-.06,0-.08,0-.14-.16-.5-.3-1-.47-1.49a4.65,4.65,0,0,0-1-1.8,2.27,2.27,0,0,1-.22-.36c0-.06-.08-.11-.11-.17s-.25-.3-.39-.44-.25-.28-.38-.31A1.37,1.37,0,0,1,46,1.69a.7.7,0,0,0-.64-.27A.51.51,0,0,0,45,1.11,10.05,10.05,0,0,0,43.75,1a4.94,4.94,0,0,0-1.44.17c-.16.05-.3.11-.33.3-.25-.11-.36-.14-.55,0a8.64,8.64,0,0,0-.94.56,7.27,7.27,0,0,0-.78.55,4.82,4.82,0,0,0-.55.44c-.17.17-.33.39-.5.56a2.78,2.78,0,0,0-.53.49c-.13.22-.33.42-.47.64s-.22.14-.19.3-.08.09-.11.11-.11.06-.11.12-.17.3-.28.38a1.27,1.27,0,0,0-.44.56,7.14,7.14,0,0,0-.64,1.3s0,0-.08.08c-.14.25-.3.5-.42.77s-.13.56-.22.83a.24.24,0,0,1-.05.14,3.77,3.77,0,0,0-.31.81,2.76,2.76,0,0,1-.08.27,5.58,5.58,0,0,1-.3.75c-.06.22-.11.47-.17.69a2.58,2.58,0,0,0-.19,1.05.7.7,0,0,1-.06.36c-.22.36-.11.8-.3,1.16,0,.06,0,.14,0,.2a.36.36,0,0,1,0,.19,3.33,3.33,0,0,0-.14,1.44,1.51,1.51,0,0,1,0,.3c0,.34-.09.64-.12,1s0,.72,0,1.08v1a6.12,6.12,0,0,1,0,1.21c0,.06,0,.14,0,.2s0,.25,0,.36V22.5c0,.11.09.25.09.36v.77c0,.31,0,.61,0,.92a7.31,7.31,0,0,0,0,.8c0,.3.08.58.11.88v.31s0,0,0,0M42,1.61s0,0,0-.05,0,0,.06,0l0,0S42,1.58,42,1.61Zm9.82,14.08v-.16h.06v.16Z"/><path class="cls-7" d="M45,12.45c0,1.61-1,2.11-1.74,2.11s-.87-.5-.87-2.11,1-2.57,1.69-2.57S45,10.85,45,12.45Z"/></g></g></svg>