<?xml version="1.0" encoding="utf-8"?>
<!-- Generator: Adobe Illustrator 25.0.0, SVG Export Plug-In . SVG Version: 6.00 Build 0)  -->
<svg version="1.1" id="Lag_1" xmlns="http://www.w3.org/2000/svg" xmlns:xlink="http://www.w3.org/1999/xlink" x="0px" y="0px"
	 viewBox="0 0 120 120" style="enable-background:new 0 0 120 120;" xml:space="preserve">
<style type="text/css">
	.st0{fill:none;}
	.st1{fill:none;stroke:#D37983;stroke-width:5;stroke-miterlimit:10;}
	.st2{fill:none;stroke:#30809C;stroke-width:3;stroke-miterlimit:10;}
	.st3{fill:none;stroke:#D37983;stroke-width:2;stroke-miterlimit:10;}
	.st4{fill:none;stroke:#862E38;stroke-width:3;stroke-miterlimit:10;}
</style>
<rect class="st0" width="120" height="120"/>
<g id="Lag_1-2_1_">
	<path class="st1" d="M14.2,60.9c0-4.3,0.3-8.5,0.9-12.7c0.6-4.5,2-8.8,4.2-12.8c2.1-3.8,5-7.2,8.4-9.9c3.4-2.7,7.6-4.1,12.6-4.1
		c7.5,0,15,0.3,22.4,0.8c7.3,0.5,14.5,1.8,21.5,3.7c6.8,1.9,12.5,4.9,16.9,9s6.6,10,6.5,17.7c0,13.2-5.6,24.8-16.9,35
		s-25,15.2-41.1,15.2c-12.5,0-21.5-4.2-27.1-12.7S14.2,71.8,14.2,60.9z"/>
	<path class="st2" d="M75.1,36.7c2.1,2.1,3.2,6.1,2.5,7.8c-0.7,1.7-3.5,5.3-5.4,5.1c-1.9-0.2-5.6-4-5.1-6.4c0.6-2.4,0.9-3,2.4-3.9
		C71,38.3,75.1,36.7,75.1,36.7z"/>
	<path class="st2" d="M37.8,40.5c1.3,1.1,3.2,2.8,3.8,4.4c0.6,1.6,0.8,3.9-0.7,4.6c-1.5,0.7-4.2,1.3-5.1,1c-0.9-0.3-3.9-1.9-4.4-3.6
		s-0.1-4.5,1.2-4.9C33.9,41.6,37.8,40.5,37.8,40.5z"/>
	<path class="st3" d="M60.6,57.6c1.4,0.7,1.6,3.4,0.7,4.2s-1.3,3.9-3.8,3.3c-2.5-0.6-7.7-3.9-7.4-5.5s2.1-4.2,3.4-4.3"/>
	<path class="st4" d="M71.2,58c1.3,1.1,4.3,5.7,4.4,7.6c0.2,1.9-2.5,15.2-5.3,17.8c-2.9,2.6-7.6,4-10.3,3.7c-3.6-0.6-7-2.1-9.9-4.2
		c-2.4-2-6.6-12.5-7.5-14.4s-2.3-4.1-1.6-5.9"/>
</g>
</svg>
