<svg xmlns="http://www.w3.org/2000/svg" viewBox="0 0 534.28 417.7"><defs><style>.cls-1{fill:#f76566;}.cls-2,.cls-3{fill:#85bdb3;}.cls-2{stroke:#85bdb3;stroke-width:0.75px;}.cls-2,.cls-4{stroke-miterlimit:10;}.cls-4{fill:none;stroke:#f76566;stroke-width:3px;}</style></defs><g id="Lag_2" data-name="Lag 2"><g id="Lag_1-2" data-name="Lag 1"><path class="cls-1" d="M1.3,0A33.58,33.58,0,0,1,11.7,2.8a14.68,14.68,0,0,1,7,7.3c0,4.7.2,11.3.6,19.7s.8,18,1.3,29,.9,22.8,1.5,35.6S23.2,120,23.8,133s1.1,25.8,1.5,38.6.8,24.6,1.3,35.6.8,20.7,1.1,29.2.6,15,.9,19.5c0,.5-.1,1.4-.2,2.6s-.3,2.8-.4,4.5-.3,3.4-.4,5.1-.2,2.8-.2,3.6a28.34,28.34,0,0,0-.4,5.4,21.63,21.63,0,0,1-.9,6.2,15.46,15.46,0,0,1-2.8,5.4c-1.3,1.6-3.3,2.6-6.2,2.8l-7.2-7.9c-.3-.2-.6-4.9-1.1-14s-1-21-1.7-35.6-1.3-31.1-1.9-49.4S4,147.7,3.3,129,2,92.3,1.4,75.1.4,43,.1,30.5c0-1,.1-3,.2-6s.3-6.1.4-9.2.3-6.1.4-9S1.3,1.3,1.3,0Z"/><path class="cls-2" d="M83,75.2a95.06,95.06,0,0,1,.8-11.3,30.72,30.72,0,0,1,3.7-11.3A30,30,0,0,1,95,43.8a17.55,17.55,0,0,1,11.2-3.7c6.6,0,13.3.3,19.9.7a99,99,0,0,1,19.1,3.3,36,36,0,0,1,15,8c3.9,3.7,5.8,8.9,5.8,15.7,0,11.7-5,22.1-15,31.1s-22.2,13.5-36.6,13.5c-11.1,0-19.1-3.8-24.1-11.3A47,47,0,0,1,83,75.2Z"/><path class="cls-1" d="M116.5,145.7a72.69,72.69,0,0,0,8.7-.4c2.4-.2,4.5,1,6.2,3.7.9,11.2,1.8,22.7,3,34.3s2.3,23.3,3.4,35,1.9,23.5,2.3,35.4.5,23.4.2,34.6c0,1.5-.4,2.4-1.3,2.8a7.59,7.59,0,0,1-3.6.4c-1.6-.1-3.4-.3-5.5-.4a29.23,29.23,0,0,0-7,.6Z"/><path class="cls-1" d="M219.4,0a33.58,33.58,0,0,1,10.4,2.8,15.1,15.1,0,0,1,7,7.3c0,4.7.2,11.3.6,19.7s.8,18,1.3,29,.9,22.8,1.5,35.6,1.1,25.6,1.7,38.6,1.1,25.8,1.5,38.6.8,24.6,1.3,35.6.8,20.7,1.1,29.2.6,15,.9,19.5c0,.5-.1,1.4-.2,2.6s-.3,2.8-.4,4.5-.3,3.4-.4,5.1-.2,2.8-.2,3.6a28.34,28.34,0,0,0-.4,5.4,21.63,21.63,0,0,1-.9,6.2,15.46,15.46,0,0,1-2.8,5.4c-1.3,1.6-3.3,2.6-6.2,2.8l-7.2-7.9c-.3-.2-.6-4.9-1.1-14s-1-21-1.7-35.6-1.3-31.1-1.9-49.4-1.2-36.9-1.9-55.6-1.3-36.7-1.9-53.9-1-32.1-1.3-44.6c0-1,.1-3,.2-6s.3-6.1.4-9.2.3-6.1.4-9S219.4,1.3,219.4,0Z"/><path class="cls-1" d="M317.4,0a33.58,33.58,0,0,1,10.4,2.8,15.1,15.1,0,0,1,7,7.3c0,4.7.2,11.3.6,19.7s.8,18,1.3,29,.9,22.8,1.5,35.6,1.1,25.6,1.7,38.6,1.1,25.8,1.5,38.6.8,24.6,1.3,35.6.8,20.7,1.1,29.2.6,15,.9,19.5c0,.5-.1,1.4-.2,2.6s-.3,2.8-.4,4.5-.3,3.4-.4,5.1-.2,2.8-.2,3.6a28.34,28.34,0,0,0-.4,5.4,21.63,21.63,0,0,1-.9,6.2,15.46,15.46,0,0,1-2.8,5.4c-1.3,1.6-3.3,2.6-6.2,2.8l-7.2-7.9c-.3-.2-.6-4.9-1.1-14s-1-21-1.7-35.6-1.3-31.1-1.9-49.4-1.2-36.9-1.9-55.6-1.3-36.7-1.9-53.9-1-32.1-1.3-44.6c0-1,.1-3,.2-6s.3-6.1.4-9.2.3-6.1.4-9S317.4,1.3,317.4,0Z"/><path class="cls-1" d="M415.1,203.1c0-7.5,1.8-15.8,5.5-24.9a100.3,100.3,0,0,1,15.1-25.5,97.14,97.14,0,0,1,21.7-19.9c8.1-5.4,16.5-8.1,25.3-8.1a42,42,0,0,1,14.3,2.6,69.62,69.62,0,0,1,13.6,6.9,70.9,70.9,0,0,1,11.9,9.7,46,46,0,0,1,8.3,11.4,29.4,29.4,0,0,1,3.2,11.6,13.33,13.33,0,0,1-3.6,9.7l-89.9,14.6c-1.1.3-2.1,1.4-3,3.6a39.19,39.19,0,0,0-2.1,8.1c-.6,3.2-1.1,6.8-1.5,10.7s-.8,7.6-1.1,11.2-.4,6.9-.4,9.7v6.6c0,7,1.9,12.7,5.8,17a34.84,34.84,0,0,0,14.7,9.9,84.51,84.51,0,0,0,20.2,4.5c7.5.7,15,1.1,22.4,1.1s14.3-.2,20.9-.8,11.9-.7,16.2-.7a6.07,6.07,0,0,1-1.3,3.4,19.77,19.77,0,0,1-3,3.6c-1.1,1.1-2.3,2.1-3.4,3s-1.8,1.4-2.1,1.7c-2.3.5-5.8,1.2-10.4,2.1s-9.7,1.7-14.9,2.4-10.2,1.4-14.7,1.9-7.7.8-9.4.8c-8.8,1.5-16.5,1.4-23-.4a37.29,37.29,0,0,1-16.6-9,50.75,50.75,0,0,1-11.1-15.5,89.13,89.13,0,0,1-6.4-19.7,118.21,118.21,0,0,1-2.3-21.7A168.83,168.83,0,0,1,415.1,203.1ZM476.9,139c-2.6,0-5.9,1.2-10,3.6a54.3,54.3,0,0,0-11.5,9,56.93,56.93,0,0,0-8.9,11.6c-2.4,4.1-3.2,7.7-2.3,10.7a98.87,98.87,0,0,0,23-.4,119.9,119.9,0,0,0,21.7-4.7,64.37,64.37,0,0,0,16.2-7.5c4.3-2.9,6.3-5.8,6.2-8.8s-2.8-5.7-8.1-8.1S489.1,140.2,476.9,139Z"/><path class="cls-3" d="M6.1,413.2c-.1-2-.3-5-.6-9.2s-.7-8.8-1.1-13.9-.8-10.6-1.1-16.4-.7-11.3-1.1-16.4-.6-9.8-.9-13.9-.5-7.2-.6-9.2a41,41,0,0,1-.2-4.5c0-2.1-.1-4.4-.2-6.8s-.2-4.7-.2-6.8-.1-3.6-.1-4.5a8.63,8.63,0,0,1,3.6.8A6.49,6.49,0,0,1,6.2,315c.2,2,.4,4.8.6,8.5s.5,7.8.8,12.6.6,9.8.9,15.2.6,10.8.9,16.1a14.63,14.63,0,0,1,.9-1.3,6,6,0,0,1,.6-.7c1-1.1,2.3-2.5,3.7-4s2.9-3.1,4.5-4.7,3.1-3.2,4.7-4.8l4.3-4.3c1.3-1.3,2.3-2.3,3.2-3.1s1.4-1.1,1.6-1.1l5.4,2.7c-1.6,1.4-3.5,3.1-5.5,5s-4.1,3.9-6.1,6-3.9,4.4-5.8,6.7a45.06,45.06,0,0,0-4.5,6.9,1.76,1.76,0,0,1-.1.6c0,.3-.1.6-.1.8a1.76,1.76,0,0,0,.1.6,3.54,3.54,0,0,0,.1.6l32.8,38.2a1.76,1.76,0,0,0,.1.6c0,.3.1.5.1.7a4.34,4.34,0,0,1-2.8,4.1L11.1,376c-.1-.1-.2-.3-.4-.5a9.22,9.22,0,0,0-.5-.8l1.6,27.6c0,.5,0,1.4.1,2.7s.1,2.8.1,4.3.1,3,.1,4.4.1,2.3.1,2.8a7.73,7.73,0,0,1-3.4-.8A4.18,4.18,0,0,1,6.1,413.2Z"/><path class="cls-3" d="M70.5,361.9c0-.5.3-.9.9-1.4a5.48,5.48,0,0,1,2.3-1.1,13.78,13.78,0,0,1,2.6-.6c.9-.1,1.5,0,1.8.4.6,11.8,1.7,21.1,3.3,28.1s3.6,12.1,5.7,15.3,4.4,4.9,6.9,4.9a11,11,0,0,0,7.3-3.1,31,31,0,0,0,6.6-8.7,66.34,66.34,0,0,0,5-11.9,52.27,52.27,0,0,0,2.3-12.8,31.61,31.61,0,0,0-1.1-11.4l8.5-1c.1,1.4.4,3.8.8,7s.9,7,1.4,11.1,1.1,8.4,1.8,12.9,1.2,8.6,1.7,12.4.9,7.1,1.3,9.8.6,4.4.6,5h-6.1l-6.7-24.6a56.42,56.42,0,0,1-4.8,9.5,51.36,51.36,0,0,1-6.2,8,25.9,25.9,0,0,1-7,5.3,13.14,13.14,0,0,1-7.3,1.6,11.94,11.94,0,0,1-7-3.3c-2.3-2-4.4-5.1-6.3-9.5a84.13,84.13,0,0,1-5-16.7A153.55,153.55,0,0,1,70.5,361.9Z"/><path class="cls-3" d="M152.3,416.4c-.2-1.5-.4-3.7-.5-6.6s-.3-6.2-.4-9.8-.3-7.5-.4-11.4-.2-7.8-.3-11.4-.2-6.8-.4-9.7a63.14,63.14,0,0,0-.6-6.6,2.64,2.64,0,0,0-.1-.7c0-.4-.1-.8-.1-1.3s-.1-.9-.1-1.2v-.8c1.4-1.1,2.6-1.5,3.6-1.1a5,5,0,0,1,2.5,2.5,15.13,15.13,0,0,1,1.4,4.8,55.09,55.09,0,0,1,.6,5.7c.1,1.9.2,3.6.2,5.2v3.3q.3-2.4.9-5.7a43.91,43.91,0,0,1,1.7-6.7,65,65,0,0,1,2.8-6.8,22.26,22.26,0,0,1,4.1-5.9,18.08,18.08,0,0,1,5.5-4,14.38,14.38,0,0,1,7-1.1,17.61,17.61,0,0,1,10.3,3.4,21.87,21.87,0,0,1,6.4,8.4,45.35,45.35,0,0,1,3.4,12.1,129.65,129.65,0,0,1,1.4,14.5c.2,5.1.3,10.3.2,15.6s-.1,10.3-.1,15.1a13.38,13.38,0,0,0-2.6.9,5.68,5.68,0,0,1-2.1.6c-.6,0-1-.5-1.2-1.3a13.62,13.62,0,0,1,.2-4.8c.1-1.7.3-4.3.5-7.9s.3-7.5.3-11.9a125.18,125.18,0,0,0-.8-13.5,59.43,59.43,0,0,0-2.6-12.7,24.13,24.13,0,0,0-5.5-9.4,12.51,12.51,0,0,0-9.2-3.6c-3.9,1.6-7.1,4.6-9.7,9.1a65.17,65.17,0,0,0-6.3,15.6,120.18,120.18,0,0,0-3.4,19.4q-1.05,10.5-1.2,20.4a2.81,2.81,0,0,0-1.1-.1,10.28,10.28,0,0,1-1.7-.1,8.81,8.81,0,0,1-1.7-.2A4.18,4.18,0,0,0,152.3,416.4Z"/><path class="cls-3" d="M229.8,405.5a11.17,11.17,0,0,1,4.8,1c1.5.7,2.9,1.4,4.3,2.2a42.5,42.5,0,0,0,4.3,2.1,12.8,12.8,0,0,0,4.8.9,19.79,19.79,0,0,0,6.2-1.1,21.9,21.9,0,0,0,5.9-3,15.17,15.17,0,0,0,4.4-4.7,11.58,11.58,0,0,0,1.7-6,17.72,17.72,0,0,0,.1-2.4,6.92,6.92,0,0,0-.9-2.9,9.29,9.29,0,0,0-2.8-2.8,15.38,15.38,0,0,0-5.8-2.1,59.19,59.19,0,0,0-9.5-.8,100.54,100.54,0,0,0-14.1,1.1,7.79,7.79,0,0,1-4.1-1.2,16.89,16.89,0,0,1-3.6-3,23.29,23.29,0,0,1-2.6-3.8,8.68,8.68,0,0,1-1-3.9,16.22,16.22,0,0,1,2.3-9,17.52,17.52,0,0,1,6-5.5,27.55,27.55,0,0,1,8.2-2.9,47,47,0,0,1,9.2-.9c1.4,0,3.1.1,4.9.2a16.53,16.53,0,0,1,5.1,1.1,9.62,9.62,0,0,1,4,2.9,8.38,8.38,0,0,1,1.6,5.5,6.29,6.29,0,0,1-.8,2.9c-.3.3-.8.2-1.4-.3a22.6,22.6,0,0,1-2.2-2.2,28.92,28.92,0,0,0-3.1-2.8,13.27,13.27,0,0,0-4.3-2.1,10.61,10.61,0,0,0-5.6,0,34.93,34.93,0,0,0-6.5.6,19,19,0,0,0-5.9,2.2,11.82,11.82,0,0,0-4.3,4.3,12.92,12.92,0,0,0-1.6,6.8,2.83,2.83,0,0,0,1.9,2.9,14.34,14.34,0,0,0,5.1.8c2.1,0,4.5-.1,7.3-.2s5.5-.2,8.3-.2a54.55,54.55,0,0,1,8.2.6,17.28,17.28,0,0,1,7,2.6,13.63,13.63,0,0,1,4.8,5.5,18.51,18.51,0,0,1,1.3,9.2,14.5,14.5,0,0,1-2.3,7.8,26.4,26.4,0,0,1-6,6.5,29.38,29.38,0,0,1-8,4.3,19.6,19.6,0,0,1-8.5,1.1,30.11,30.11,0,0,1-4.6-.9,33.4,33.4,0,0,1-5.7-2.2,18.51,18.51,0,0,1-4.8-3.5A7.07,7.07,0,0,1,229.8,405.5Z"/><path class="cls-3" d="M310.3,365.5a11.21,11.21,0,0,0-3.5-.4,39.56,39.56,0,0,0-4.7.3c-1.7.1-3.2.3-4.8.5a30,30,0,0,1-3.8.3q-.75,0-.9-2.1c-.1-1.4-.4-3.2-.6-5.6l20-1.4c.3-3.3.5-5.7.6-7.1s.1-2.6.1-3.6-.1-2.1-.1-3.4-.1-3.3-.1-6a24.82,24.82,0,0,1,5.6-.4,3.34,3.34,0,0,1,2.6,1.1,3.25,3.25,0,0,1,.6,2.5,39.7,39.7,0,0,1-.4,4.1c-.2,1.6-.4,3.6-.6,5.8a51.35,51.35,0,0,0,.2,7.7l17.1-.6v7c-.8,0-1.9,0-3.6.1l-5.2.3c-1.8.1-3.6.2-5.1.3a12.39,12.39,0,0,0-3.5.6c-.8,3.4-1.6,7.1-2.4,10.9a77.91,77.91,0,0,0-1.7,11.5,46.16,46.16,0,0,0,.3,10.6A14.05,14.05,0,0,0,328.1,411c3.5.8,8.2.5,13.9-.8a6,6,0,0,1-1.6,3.5,9.45,9.45,0,0,1-3.1,2.1,15.23,15.23,0,0,1-3.8,1.1,24.73,24.73,0,0,1-3.6.4c-4.8,0-8.7-.9-11.5-2.6a17.62,17.62,0,0,1-6.4-6.9,28.87,28.87,0,0,1-2.7-9.7,82.69,82.69,0,0,1-.4-11.2c.1-3.8.4-7.5.8-11.2A98.48,98.48,0,0,0,310.3,365.5Z"/><path class="cls-3" d="M363.6,416.4c-.2-1.5-.4-3.7-.5-6.6s-.3-6.2-.4-9.8-.3-7.5-.4-11.4-.2-7.8-.3-11.4-.2-6.8-.4-9.7a63.14,63.14,0,0,0-.6-6.6,2.64,2.64,0,0,0-.1-.7c0-.4-.1-.8-.1-1.3s-.1-.9-.1-1.2v-.8c1.4-1.1,2.6-1.5,3.6-1.1a5,5,0,0,1,2.5,2.5,15.13,15.13,0,0,1,1.4,4.8,55.09,55.09,0,0,1,.6,5.7c.1,1.9.2,3.6.2,5.2v3.3q.3-2.4.9-5.7a43.91,43.91,0,0,1,1.7-6.7,65,65,0,0,1,2.8-6.8,22.26,22.26,0,0,1,4.1-5.9,18.08,18.08,0,0,1,5.5-4,14.38,14.38,0,0,1,7-1.1,17.61,17.61,0,0,1,10.3,3.4,21.87,21.87,0,0,1,6.4,8.4,45.35,45.35,0,0,1,3.4,12.1,127.38,127.38,0,0,1,1.4,14.5c.2,5.1.3,10.3.2,15.6s-.1,10.3-.1,15.1a13.38,13.38,0,0,0-2.6.9,5.68,5.68,0,0,1-2.1.6c-.6,0-1-.5-1.2-1.3a13.62,13.62,0,0,1,.2-4.8c.1-1.7.3-4.3.5-7.9s.3-7.5.3-11.9a125.18,125.18,0,0,0-.8-13.5,59.43,59.43,0,0,0-2.6-12.7,24.13,24.13,0,0,0-5.5-9.4,12.51,12.51,0,0,0-9.2-3.6c-3.9,1.6-7.1,4.6-9.7,9.1a65.17,65.17,0,0,0-6.3,15.6,122.17,122.17,0,0,0-3.4,19.4q-1.05,10.5-1.2,20.4a2.81,2.81,0,0,0-1.1-.1,10.28,10.28,0,0,1-1.7-.1,8.81,8.81,0,0,1-1.7-.2A7.78,7.78,0,0,0,363.6,416.4Z"/><path class="cls-3" d="M434.6,383.7a29.77,29.77,0,0,1,1.8-9.5,38.77,38.77,0,0,1,5-9.7,30.67,30.67,0,0,1,7.3-7.5,14.13,14.13,0,0,1,8.5-3.1,11.82,11.82,0,0,1,4.8,1,20.25,20.25,0,0,1,4.5,2.6,23.42,23.42,0,0,1,4,3.7,18.61,18.61,0,0,1,2.8,4.3,12.38,12.38,0,0,1,1.1,4.4,5.86,5.86,0,0,1-1.2,3.7l-30,5.5c-.4.1-.7.5-1,1.4a16.06,16.06,0,0,0-.7,3.1c-.2,1.2-.4,2.6-.5,4.1s-.3,2.9-.4,4.3-.1,2.6-.1,3.7v2.5a10.25,10.25,0,0,0,1.9,6.5,12.28,12.28,0,0,0,4.9,3.8,22.6,22.6,0,0,0,6.8,1.7,62.82,62.82,0,0,0,7.5.4c2.5,0,4.8-.1,7-.3s4-.3,5.4-.3a2.42,2.42,0,0,1-.4,1.3,12.13,12.13,0,0,1-1,1.4l-1.1,1.1a6,6,0,0,0-.7.6c-.8.2-1.9.5-3.5.8s-3.2.6-5,.9-3.4.5-4.9.7a29.61,29.61,0,0,1-3.1.3,16.51,16.51,0,0,1-7.7-.1,12.5,12.5,0,0,1-5.5-3.4,20.45,20.45,0,0,1-3.7-5.9,34.4,34.4,0,0,1-2.1-7.5,55.56,55.56,0,0,1-.8-8.2A32.75,32.75,0,0,1,434.6,383.7Zm20.6-24.4a7,7,0,0,0-3.3,1.3,15.24,15.24,0,0,0-3.8,3.4,21.41,21.41,0,0,0-3,4.4,5.92,5.92,0,0,0-.8,4.1,33.19,33.19,0,0,0,7.7-.1,37.13,37.13,0,0,0,7.3-1.8,22.57,22.57,0,0,0,5.4-2.8q2.1-1.65,2.1-3.3c0-1.1-.9-2.2-2.7-3.1A31.33,31.33,0,0,0,455.2,359.3Z"/><path class="cls-3" d="M495.2,361.6a4,4,0,0,1,3-.3,3.75,3.75,0,0,1,2.1,1.6,7.94,7.94,0,0,1,1.3,2.6c.3,1,.5,2,.7,2.9a12.82,12.82,0,0,1,5.3-5,23.85,23.85,0,0,1,7.5-2.6,35.74,35.74,0,0,1,8-.3,18.84,18.84,0,0,1,6.8,1.7,8.27,8.27,0,0,1,3.9,3.7c.8,1.6.6,3.4-.6,5.5a37.62,37.62,0,0,0-7.7-3.4,19.68,19.68,0,0,0-7.9-.9,14.72,14.72,0,0,0-7.1,2.9,17.81,17.81,0,0,0-5.4,7.9,46.89,46.89,0,0,0-2.6,14.3,130.51,130.51,0,0,0,1.2,22.1h-5.4c-.3-3.1-.5-6-.6-8.5s-.3-5.4-.6-8.5-.5-6.3-.6-9.5-.4-6.3-.5-9.3-.3-5.6-.5-7.7a13.05,13.05,0,0,0-.1-1.7c0-.9-.1-1.8-.1-2.8v-2.8A15.77,15.77,0,0,1,495.2,361.6Z"/><path class="cls-4" d="M136,55.8c1.7,1.7,2.6,4.9,2,6.3s-2.9,4.3-4.4,4.1-4.5-3.3-4.1-5.2.7-2.4,1.9-3.2S136,55.8,136,55.8Z"/><path class="cls-4" d="M105.9,58.9c1,.9,2.6,2.2,3.1,3.5s.6,3.2-.5,3.7-3.4,1.1-4.2.8-3.1-1.6-3.5-2.9-.1-3.6,1-4C102.7,59.8,105.9,58.9,105.9,58.9Z"/><path class="cls-4" d="M124.3,72.7a2.45,2.45,0,0,1,.6,3.4c-.7.6-1.1,3.1-3.1,2.7s-6.2-3.1-6-4.5,1.7-3.4,2.8-3.5"/><path class="cls-4" d="M132.9,73c1.1.9,3.5,4.6,3.6,6.1s-2,12.3-4.3,14.4a12.71,12.71,0,0,1-8.3,3,19.41,19.41,0,0,1-8-3.4c-1.9-1.6-5.3-10.1-6.1-11.7s-1.9-3.3-1.3-4.7"/></g></g></svg>