<svg xmlns="http://www.w3.org/2000/svg" viewBox="0 0 120 120"><defs><style>.cls-1{fill:#5f3338;stroke:#692529;stroke-linecap:round;stroke-linejoin:round;stroke-width:0.5px;}.cls-2{fill:#85bdb3;}.cls-3{fill:#f76566;}.cls-4{fill:none;}</style></defs><g id="Lag_2" data-name="Lag 2"><g id="Lag_1-2" data-name="Lag 1"><path class="cls-1" d="M85.5,35.19a1,1,0,0,1,.23-.84c-.15-.17-.15-.48-.3-.71v-.33c-.1-.43-.46-.71-.43-1.12,0-.1-.06-.15-.16-.17a1.18,1.18,0,0,1-.28-.51,2.09,2.09,0,0,0-.17-.28,4.83,4.83,0,0,1-.84-1.12.72.72,0,0,0-.23-.23.84.84,0,0,1-.18-.23,3.27,3.27,0,0,0-.79-1.06,4.32,4.32,0,0,1-.84-1.4,3.08,3.08,0,0,1-1-1,.56.56,0,0,0-.23-.23c-.15-.1-.23-.23-.17-.38a.14.14,0,0,1-.16-.16v-.05a2.86,2.86,0,0,1-.78-1A1.93,1.93,0,0,1,79,24a13.73,13.73,0,0,0-1.4-1.12.63.63,0,0,0-.28-.1,1.47,1.47,0,0,1-.79-.51.68.68,0,0,0-.56-.23c-.15.05-.18-.05-.28-.15a1.44,1.44,0,0,0-.94-.51s-.1,0-.1-.05c-.18-.28-.56-.33-.84-.51a3.27,3.27,0,0,0-.73-.22,2.24,2.24,0,0,1-.44-.23,1.81,1.81,0,0,0-.94-.33,4.06,4.06,0,0,1-1.22-.23,3,3,0,0,0-.66-.1,6.47,6.47,0,0,0-1-.23,1.06,1.06,0,0,0-.56,0s-.15,0-.15,0c-.18-.18-.43-.05-.61-.1a5,5,0,0,0-1.55-.06,1.54,1.54,0,0,1-.51-.1,3.21,3.21,0,0,0-1.4.16,1.79,1.79,0,0,1-.73,0,3,3,0,0,0-1.68,0,.42.42,0,0,1-.23.05,13.46,13.46,0,0,1-1.55-.11h-.15c-.28,0-.46.39-.71.18s-.51.1-.79,0a15.41,15.41,0,0,1-2.11.33,3.34,3.34,0,0,1-1.22-.05.27.27,0,0,1-.23.15A5.1,5.1,0,0,1,53.2,20a.59.59,0,0,0-.43.05,7.11,7.11,0,0,1-2.16.33,1.24,1.24,0,0,0-.79.23.63.63,0,0,1-.28.1c-.94.17-1.93.43-2.84.56l-1,.15a6.34,6.34,0,0,0-.72.33,1.09,1.09,0,0,1-.45.18,3.37,3.37,0,0,0-1.88.84,10.47,10.47,0,0,0-1.12.71A1.67,1.67,0,0,0,41,24c0,.1-.1.17-.18.17-.56.05-.84.56-1.27.84a3,3,0,0,0-.94,1,.56.56,0,0,1-.23.23,1.23,1.23,0,0,0-.66.74c0,.05-.1.1-.15.15a2.36,2.36,0,0,0-1,.74s0,.15-.16.1c-.33-.1-.5.18-.71.38a1.29,1.29,0,0,1-.43.46A.32.32,0,0,0,35,29c-.18.45-.61.73-.79,1.27a4.27,4.27,0,0,1-.55.89.29.29,0,0,1-.23.15v0a7,7,0,0,1-.61,1.6,9.3,9.3,0,0,0-.46,2c0,.15.1.23.1.38a9.43,9.43,0,0,1,0,1.68,12.52,12.52,0,0,1-.15,2,2.29,2.29,0,0,0,.15,1.17,3.63,3.63,0,0,0,.56,1.33,1.91,1.91,0,0,1,.05,1.06,1.48,1.48,0,0,0-.05.66,7.81,7.81,0,0,1,.05,1.07,13.48,13.48,0,0,0,0,2c0,.61.15,1.22.18,1.83a1.84,1.84,0,0,1,0,.74,1.22,1.22,0,0,1-.05.17c.1.56-.15,1.12-.1,1.68,0,.89-.16,1.73-.11,2.62a14.07,14.07,0,0,0,.33,2.16,2.38,2.38,0,0,1,.11,1.22,1.67,1.67,0,0,0-.05.51,7.88,7.88,0,0,0,.05,1.6,1.07,1.07,0,0,0,.1.38,1.16,1.16,0,0,1,.1.71,3.11,3.11,0,0,0,.18,1.27,12.69,12.69,0,0,1,.38,1.68c.1.71.23,1.35.38,2.06a5.22,5.22,0,0,1,.18.56,19.52,19.52,0,0,1,.51,2.84,9.21,9.21,0,0,0,.28,1.35c.15.66.28,1.32.38,2a3.41,3.41,0,0,0,.38,1,20.94,20.94,0,0,1,.61,2.11,2.37,2.37,0,0,0,.46,1,.49.49,0,0,1,.15.33,6.74,6.74,0,0,0,.38,1.07s0,.15.1.15c.33.18.23.51.23.79a3.65,3.65,0,0,0,.33,1.17c.15.28.38.5.51.78a4.88,4.88,0,0,1,.38,1,.26.26,0,0,1,.28.22,1.42,1.42,0,0,1,.28.61c.23,0,.23.16.23.33a1.56,1.56,0,0,1,.28.72c.05,0,.15,0,.15.1v0l0,.1a.22.22,0,0,1,.23.23,1,1,0,0,1,.23.51c.28,0,.33,0,.28.43a1.52,1.52,0,0,0,.28.43.3.3,0,0,1,.28.23l.1.1a1.74,1.74,0,0,1,.66.71c.18,0,.23.18.38.33a.58.58,0,0,1,.46.23c.28.28.71.38.89.84a.63.63,0,0,0,.23.23c.33.18.5.51.78.66.05.05.16.15.16.18,0,.38.28.61.38.94a10.24,10.24,0,0,1,1.17,1.27,7,7,0,0,1,.5.71c.06,0,.11.15.18.18a4.07,4.07,0,0,1,1.07,1,1.21,1.21,0,0,0,.38.33s.1,0,.15.1c.18.43.61.66.84,1.07.1.18.33.28.46.46a8.39,8.39,0,0,0,1.35,1.45.51.51,0,0,1,.17.5c.28.1.61.1.56.51.18.1.28.28.44.43a.3.3,0,0,1,.38.23c.15.1.15.33.38.33s.18.16.15.23c.18.15.38.23.56.38s.51.23.56.56c-.28.28,2.34.51,2.16.79a1.84,1.84,0,0,0,1,0,6.28,6.28,0,0,1,2.49-.23,10,10,0,0,0,2.9-.18c-.1-.15.15-.28.38-.38a.19.19,0,0,0,.23,0l.1-.1s.15-.1.18-.15a2.3,2.3,0,0,1,.51-.23,2.66,2.66,0,0,0,1.16-.74,3.84,3.84,0,0,1,1.17-.79.79.79,0,0,1,.46-.15c.33-.23.46-.56.74-.79s.38-.23.46-.51a1.66,1.66,0,0,1,.43-.61,2.45,2.45,0,0,0,.66-.73s.1-.1.15-.15c.38-.28.61-.72,1-1,0-.22.18-.33.28-.43.43-.38.61-.84,1-1.22a4.9,4.9,0,0,1,.51-.51,1.18,1.18,0,0,1,.28-.5c.33-.67.74-1.22,1.12-1.88a5.9,5.9,0,0,1,.61-1,2.59,2.59,0,0,0,.56-.73c0-.16,0-.23.1-.39a.81.81,0,0,1,.38-.66c.15-.1.18-.33.38-.33H77a.94.94,0,0,1,.39-.89.45.45,0,0,0,.1-.17.92.92,0,0,1,.23-.33v-.18c0-.15,0-.23.15-.23a.57.57,0,0,0,.18-.33,1.4,1.4,0,0,1,.1-.46.21.21,0,0,1,.23-.18,3,3,0,0,1,.17-.28c0-.28.23-.38.44-.5v-.11c0-.15,0-.22.15-.22,0-.16.1-.23.18-.33a.3.3,0,0,1,.23-.34c0-.15.17-.22.17-.43s-.1-.28.18-.43c0-.1,0-.18.1-.23a.84.84,0,0,0,.1-.33,1,1,0,0,1,.34-.56,2,2,0,0,0,.38-.45c0-.06,0-.16.1-.18s.28-.28.1-.51v-.1a2.62,2.62,0,0,0,.18-1.27,7.46,7.46,0,0,1,.1-1,6,6,0,0,1,.61-1.72,3.38,3.38,0,0,0,.38-1.12c0-.18.1-.33.15-.51a1.7,1.7,0,0,0,.1-.71c0-.18.28-.33.28-.56,0-.43.16-.79.18-1.22a.77.77,0,0,1,.33-.61c.1-.1.15-.15.1-.28a.28.28,0,0,1,0-.28,1.84,1.84,0,0,0,0-.74,1,1,0,0,1,.16-.89.59.59,0,0,0,.1-.28c0-.33.1-.61.18-.94a.69.69,0,0,0,0-.45,3.08,3.08,0,0,1,0-1.17,1.84,1.84,0,0,0,0-.74c0-.1,0-.15,0-.18.23-.33.15-.79.33-1.12.05-.1,0-.33,0-.43.18-.33.05-.71.18-1v-.15a8.83,8.83,0,0,1,.15-1.6,1.18,1.18,0,0,1,.15-.56.63.63,0,0,0,0-.66,1.15,1.15,0,0,1,0-.71,5.59,5.59,0,0,0,.15-1.28.74.74,0,0,0-.33-.71.25.25,0,0,1-.1-.17.43.43,0,0,1-.1-.23c0-.33,0-.38.33-.44a12.17,12.17,0,0,0,.1-1.93c0-.43-.1-.89-.1-1.32a12.46,12.46,0,0,0,0-1.35,6.93,6.93,0,0,1,0-1.44c0-.56.1-1.17.15-1.73a13.54,13.54,0,0,0,.1-2A9.17,9.17,0,0,1,85,41.52a.18.18,0,0,1,0-.15,2.13,2.13,0,0,0,.17-1.32.84.84,0,0,0-.1-.33,8.88,8.88,0,0,0-.61-.84c-.15-.15-.1-.33-.1-.51a.22.22,0,0,1,.23-.23l.28-.43c0-.15,0-.23.15-.23v-.23c.1-.18,0-.43.23-.51v-.15c-.1-.1,0-.15.1-.18v-.23c0-.15-.1-.33.15-.43C85.55,35.57,85.45,35.37,85.5,35.19ZM83.17,52c-.16-.1-.21,0-.16.18s0,.27-.1.38v.17a.9.9,0,0,1,.18.72c-.1.28-.23.56,0,.83v.16c0,.18-.23.38-.1.56a.56.56,0,0,1,0,.56,1.24,1.24,0,0,0,0,.43,3.39,3.39,0,0,1,0,1.22,4,4,0,0,1-.16,1.12c0,.15-.1.22.11.27a.12.12,0,0,1,.1.11c-.18.17,0,.5-.23.71a.55.55,0,0,0-.18.38.76.76,0,0,1-.1.56v0a2.38,2.38,0,0,1,0,.84,3.94,3.94,0,0,1,0,.79.52.52,0,0,0,.15.38.62.62,0,0,0-.61.61,2.39,2.39,0,0,1-.23.51v.17a.4.4,0,0,1,.1.23,1.74,1.74,0,0,1-.27,1.17c-.11.1-.06.18-.06.28a.91.91,0,0,1-.17.56v.23a.15.15,0,0,1,0,.1,2.87,2.87,0,0,1-.16,1.32c-.1.18,0,.43-.22.56v.15A2.24,2.24,0,0,1,80.62,70a.77.77,0,0,0-.15.46,3.64,3.64,0,0,1-.15.73.22.22,0,0,1,0,.11c.18.22,0,.43-.1.66s-.16.5-.23.78a.89.89,0,0,1-.23.44.84.84,0,0,0-.23.56,4.43,4.43,0,0,1-.33,1.16,13.58,13.58,0,0,0-.66,1.55c0,.18-.28.11-.28.28a.37.37,0,0,1-.1.39,2,2,0,0,0-.38,1.11,2,2,0,0,1-.56,1.35,2.1,2.1,0,0,0-.61,1.12s0,.1,0,.1c-.38.15-.33.61-.61.84a.28.28,0,0,0-.16.23,3,3,0,0,1-.88,1.62c-.06,0-.11.16-.16.18a7.91,7.91,0,0,1-1,1.78,7.23,7.23,0,0,0-.89,1.4,1.89,1.89,0,0,1-.23.28,1.34,1.34,0,0,0-.43.51,3.35,3.35,0,0,1-.43.84,4.72,4.72,0,0,1-.61.73,1.24,1.24,0,0,0-.33.51v0c-.28.46-.51.94-.74,1.4-.15.18-.38.28-.46.51-.23.33-.56.61-.78.94a3.59,3.59,0,0,1-.79.94,2.45,2.45,0,0,1-.71.43,1,1,0,0,0-.44.38,1.22,1.22,0,0,1-.55.51.54.54,0,0,0-.39.38,1,1,0,0,1-.83.56,1.15,1.15,0,0,0-.61.33,11.33,11.33,0,0,1-1.07.79.15.15,0,0,1-.1,0c-.56,0-1,.33-1.5.43a2.24,2.24,0,0,1-1.4,0,1,1,0,0,0-1,.15c-.16.1-.23.1-.33,0h-.16c-.05.15-.15.18-.27.1h-.23c-.23.16-.46,0-.66-.15a1.59,1.59,0,0,0-.39-.23,7.08,7.08,0,0,1-1.39-.66,2.7,2.7,0,0,1-.79-.66A6.36,6.36,0,0,0,54,95a4.22,4.22,0,0,1-1.4-1.45,7.48,7.48,0,0,0-.5-.71.16.16,0,0,0-.16-.18c-.17-.05-.33-.28-.45-.33-.34-.17-.51-.56-.94-.61a.26.26,0,0,1-.28-.28c-.06-.22-.28-.38-.23-.66,0,0,0-.1-.1-.1-.39,0-.28-.28-.34-.51a.94.94,0,0,1-.45-.17c-.46.1-.66,0-.84-.39v-.1c.1-.18,0-.23-.15-.23a.5.5,0,0,1-.44-.33.26.26,0,0,0-.22-.28.7.7,0,0,1-.39-.33,10.82,10.82,0,0,1-.66-.89.28.28,0,0,0-.17-.17c-.06,0-.16,0-.16-.11.05-.28-.28-.43-.38-.66a3.73,3.73,0,0,0-.66-.71c-.33-.28-.51-.66-.84-.89s-.28-.38-.51-.45c-.05,0-.1-.06-.15-.11-.15-.43-.56-.56-.84-.84a3.49,3.49,0,0,1-.61-.66,1.78,1.78,0,0,1-.28-.73c-.1,0-.23-.1-.1-.23v-.1a1.54,1.54,0,0,1-.74-.79c-.17-.33-.38-.66-.55-.94,0,0,0-.15-.11-.18a5.1,5.1,0,0,0-.45-1c-.1-.28-.18-.56-.28-.84,0,0,0-.18,0-.18-.33-.15-.28-.56-.46-.73a.47.47,0,0,1-.1-.61l0-.11c-.23-.15-.23-.38-.28-.56A7.44,7.44,0,0,1,38.26,74c0-.1-.1-.17-.15-.27a1.77,1.77,0,0,1-.46-1c0-.45-.1-.88-.18-1.32a1.73,1.73,0,0,0-.23-.45.53.53,0,0,1-.18-.51v-.56a.55.55,0,0,1-.1-.51v-.23a.72.72,0,0,1-.33-.71c-.05-.56-.15-1.17-.23-1.73S36.12,65.61,36,65a.85.85,0,0,0-.1-.38,1.34,1.34,0,0,1-.18-.94.85.85,0,0,0-.1-.51A3.21,3.21,0,0,1,35.41,62a3.4,3.4,0,0,0-.15-1,.18.18,0,0,1,.05-.22A3.46,3.46,0,0,1,35,59.46a.68.68,0,0,0,0-.45.17.17,0,0,1,0-.11c.18-.5-.1-1-.15-1.49,0-.16.1-.23.05-.34l-.15-1v0c-.39-.43-.16-.94-.16-1.4v-.5a.5.5,0,0,1,.05-.46.17.17,0,0,1,0-.1,8.76,8.76,0,0,1-.1-1.6,4.27,4.27,0,0,0-.1-.79.58.58,0,0,0,0-.18,5.4,5.4,0,0,0,.18-1,1.78,1.78,0,0,0,.15-.74,1.27,1.27,0,0,1,.05-.43.88.88,0,0,0,0-.79V46.93a.46.46,0,0,1,.43-.45.4.4,0,0,1,.33.15,2.26,2.26,0,0,1,.44.43l.71,1a5.52,5.52,0,0,0,.51.66c.28.39.66.67.94,1.05s.61.83.89,1.27c0,.05,0,.15.1.15.51.23.84.71,1.34.94a9.25,9.25,0,0,0,1.5.43.19.19,0,0,1,.16,0c.33.23.73.18,1.06.46a.39.39,0,0,0,.33.1c.44-.15.74.15,1.12.23.18.05.28-.18.51-.18l.05,0a12.28,12.28,0,0,1,1.45-.38,6.55,6.55,0,0,1,1.4,0,4.4,4.4,0,0,1,.79.15,4.81,4.81,0,0,1,1,.28,1.88,1.88,0,0,0,.43.16,2.88,2.88,0,0,1,1,.33c.46.22,1,.27,1.45.5a1.3,1.3,0,0,0,.66.11.77.77,0,0,1,.51.17c.43.38.94.61,1.35.94a6.13,6.13,0,0,0,1,.44c.15.05.38-.11.56.05a2.22,2.22,0,0,0,1,.28.85.85,0,0,1,.61.33,1.49,1.49,0,0,0,.71.38.28.28,0,0,0,.33-.05.8.8,0,0,1,.61-.1,1.06,1.06,0,0,0,.56,0,3.3,3.3,0,0,1,.79-.06h1a9.22,9.22,0,0,1,1.22.11h.1a5.13,5.13,0,0,1,1.32-.16c.18-.33.56-.17.84-.23a5.63,5.63,0,0,1,1.68-.15,1.37,1.37,0,0,0,.73-.18,1.79,1.79,0,0,1,1-.17,4.51,4.51,0,0,0,.89-.11s.15,0,.17.06h.84c0-.11.1-.18.18-.16.28.16.51-.15.79,0,.38-.28.79-.15,1.22-.15a1.58,1.58,0,0,0,.66-.15.3.3,0,0,0,.28-.23c.1-.38.38-.43.71-.38h.33s0-.16.1-.18a1.23,1.23,0,0,0,.43-.38,2.38,2.38,0,0,1,1.27-.84.25.25,0,0,0,.18-.1A1.07,1.07,0,0,1,78,53a1.15,1.15,0,0,0,.61-.38c.18-.21.46-.28.61-.51s.18,0,.33,0a3,3,0,0,1,.74-1.45.18.18,0,0,1,.15,0c0-.18-.1-.43.23-.46l0-.1c0-.28.15-.56.23-.84s.23-.18.43-.23a2,2,0,0,1,.38-.73c0-.39.28-.46.46-.72,0-.05.1-.05.18,0s.28.33.43.51.1.15,0,.18c-.23.33,0,.66,0,1a12.18,12.18,0,0,1,0,1.35,3.4,3.4,0,0,0,.15,1c0,.1,0,.15.15.18S83.24,51.86,83.17,52Z"/><path class="cls-2" d="M81.57,44.61a21.9,21.9,0,0,0,.68-2.42c0-.79,2.76.12,2.91-.67a.18.18,0,0,1,0-.15,2.13,2.13,0,0,0,.18-1.32.84.84,0,0,0-.1-.33,8.88,8.88,0,0,0-.61-.84c-.15-.15-.1-.33-.1-.51a.22.22,0,0,1,.23-.23l.28-.43c0-.15,0-.23.15-.23v-.23c.1-.18,0-.43.23-.51v-.15c-.1-.1,0-.15.1-.18v-.23c0-.15-.1-.33.15-.43,0-.18-.1-.38,0-.56a1,1,0,0,1,.23-.84c-.15-.17-.15-.48-.31-.71v-.33c-.1-.43-.45-.71-.43-1.12A.16.16,0,0,0,85,32a1.18,1.18,0,0,1-.28-.51,1.47,1.47,0,0,0-.18-.28,5.13,5.13,0,0,1-.84-1.12.7.7,0,0,0-.22-.23.58.58,0,0,1-.18-.23,3.27,3.27,0,0,0-.79-1.06,4.32,4.32,0,0,1-.84-1.4,3,3,0,0,1-1-1,.56.56,0,0,0-.23-.23.33.33,0,0,1-.18-.38c-.1,0-.15-.05-.15-.16v-.05a3,3,0,0,1-.79-1,3.85,3.85,0,0,1-.23-.38,13.65,13.65,0,0,0-1.39-1.12.63.63,0,0,0-.28-.1,1.47,1.47,0,0,1-.79-.51.68.68,0,0,0-.56-.23c-.15.05-.18-.05-.28-.15a1.44,1.44,0,0,0-.94-.51c-.05,0-.1,0-.1-.05-.18-.28-.56-.33-.84-.51a3.2,3.2,0,0,0-.74-.22,2.44,2.44,0,0,1-.43-.23,1.81,1.81,0,0,0-.94-.33,4.06,4.06,0,0,1-1.22-.23,3,3,0,0,0-.66-.1,6.47,6.47,0,0,0-1-.23,1.06,1.06,0,0,0-.56,0s-.15,0-.15,0c-.18-.18-.44-.05-.61-.1A5.06,5.06,0,0,0,66,19.28a1.54,1.54,0,0,1-.51-.1,3.21,3.21,0,0,0-1.4.16,1.84,1.84,0,0,1-.74,0,3,3,0,0,0-1.67,0,.45.45,0,0,1-.23.05,13.46,13.46,0,0,1-1.55-.11h-.16c-.27,0-.45.39-.71.18s-.51.1-.78,0a15.65,15.65,0,0,1-2.11.33A3.34,3.34,0,0,1,55,19.74a.28.28,0,0,1-.23.15,5.1,5.1,0,0,1-1.35.06.59.59,0,0,0-.43.05,7.11,7.11,0,0,1-2.16.33,1.24,1.24,0,0,0-.79.23.63.63,0,0,1-.28.1c-.94.17-1.93.43-2.85.56l-1,.15a6.24,6.24,0,0,0-.71.33,1.08,1.08,0,0,1-.46.18,3.4,3.4,0,0,0-1.88.84,11.46,11.46,0,0,0-1.11.71,1.58,1.58,0,0,0-.56.56c0,.1-.11.17-.18.17-.56.05-.84.56-1.27.84a3,3,0,0,0-.94,1,.56.56,0,0,1-.23.23,1.23,1.23,0,0,0-.66.74c0,.05-.1.1-.15.15a2.39,2.39,0,0,0-1,.74c-.05,0-.05.15-.15.1-.33-.1-.51.18-.71.38a1.29,1.29,0,0,1-.43.46.32.32,0,0,0-.18.18c-.18.45-.61.73-.79,1.27a3.92,3.92,0,0,1-.56.89.27.27,0,0,1-.23.15v0a6.54,6.54,0,0,1-.61,1.6,9.28,9.28,0,0,0-.45,2c-.05.15.1.23.1.38a9.43,9.43,0,0,1,0,1.68,12.52,12.52,0,0,1-.15,2,2.29,2.29,0,0,0,.15,1.17,3.63,3.63,0,0,0,.56,1.33c.1.33,1,.1.94.45s.28.59.33.81c0,.39,1.57.89,1.57,1.25-.05.66,1.29.08,1.34.76s1.9,2,1.93,2.64c.05.22.6,1.37.1,1.63"/><path class="cls-3" d="M83.42,34.08a2,2,0,0,1-.15.71,1.62,1.62,0,0,0-.33,1.12,2,2,0,0,1-.38,1.34,4.23,4.23,0,0,1-.89,1.35.38.38,0,0,0-.11.23.5.5,0,0,1-.28.51c-.1,0-.1.22-.1.33a.34.34,0,0,1-.28.28c-.38.15-.78.15-1.06.45a2.56,2.56,0,0,1-.33.16.54.54,0,0,0-.39.22l-.05.06c-.28-.06-.43.15-.66.17s-.23.05-.33.1a.74.74,0,0,1-.38.11,1.12,1.12,0,0,0-.94.17c-.15.11-.33.06-.46.11a5.24,5.24,0,0,1-1.62.43.63.63,0,0,0-.28.1,2.3,2.3,0,0,1-1.45.28s-.1,0-.1,0c-.16.28-.38.23-.61.18h-.1a9.14,9.14,0,0,1-1.63.23,5.79,5.79,0,0,1-1.27.28c-.28.05-.56,0-.79.15,0,0-.1,0-.15-.05-.51-.43-1.07-.23-1.63-.18a4.21,4.21,0,0,1-1.12.05,1.25,1.25,0,0,0-.73.1,1.15,1.15,0,0,1-.71.05,4,4,0,0,0-1.4-.15,1.74,1.74,0,0,1-1.07-.23.78.78,0,0,0-.74,0,1.14,1.14,0,0,1-.71,0,3,3,0,0,0-.94.05,4.55,4.55,0,0,1-2.67-.33l-.45-.15a9.47,9.47,0,0,0-2.24-.23c-.28,0-.56,0-.84.1a.36.36,0,0,1-.38-.1.62.62,0,0,0-.46-.23c-.51-.15-1.07-.33-1.6-.51,0,0-.1,0-.1,0-.1-.38-.46-.33-.71-.45a2,2,0,0,1-.74-.74,3.44,3.44,0,0,0-.71-.84.77.77,0,0,1-.15-.46,6.67,6.67,0,0,0,.1-1,2,2,0,0,1,.33-.84.49.49,0,0,0,0-.45,1.13,1.13,0,0,1,.15-1.12c.05,0,.1-.16.1-.1.51,0,.56-.46.79-.74a3.83,3.83,0,0,1,.51-.61c.46-.38.84-.74,1.32-1.17.23-.18.56-.28.74-.51s.23-.05.33-.05a.79.79,0,0,0,.74-.38,2.07,2.07,0,0,0,.43-.71c.1-.28.43-.43.66-.61a10.1,10.1,0,0,0,1.07-.89c0-.05.1-.1.17-.05s.28-.1.38-.1c.51-.06.89-.56,1.45-.46a1.28,1.28,0,0,0,.56-.18.68.68,0,0,1,.66-.1h.18a12.83,12.83,0,0,1,2.21.18.24.24,0,0,1,.23.17.53.53,0,0,1,.38.16,2.51,2.51,0,0,0,.33.28.36.36,0,0,1,.33.38V30a.18.18,0,0,1,.15.05.25.25,0,0,1,.18.33.26.26,0,0,1-.28.23c-.15.05-.28,0-.43.1s-.15,0-.18-.05a.8.8,0,0,0-.51-.28A3.61,3.61,0,0,1,60.22,30a.73.73,0,0,0-.51.18c-.23.17-.51.23-.74.43a.2.2,0,0,1-.23.05.49.49,0,0,0-.56.23.66.66,0,0,1-.23.18c-.22.15-.5.28-.61.61-.05.17-.33.28-.5.43a5.28,5.28,0,0,0-.84.71c-.28.43-.61.79-.89,1.22a.74.74,0,0,0,0,.84,8.78,8.78,0,0,0,.56,1.27,1.61,1.61,0,0,0,.66.66c.28.15.46.43.79.51a.72.72,0,0,1,.23.23c.17.56.73.66,1.16.89a.39.39,0,0,0,.34,0,3.64,3.64,0,0,1,1,0,2.38,2.38,0,0,0,.84,0l.71-.16a.6.6,0,0,0,.45-.27.33.33,0,0,1,.34-.23,2.69,2.69,0,0,0,1.06-.51,4,4,0,0,1,.56-.51c.66-.38.84-1.12,1.12-1.73.1-.23.33-.43.23-.71,0-.05.1-.1.15-.18a.55.55,0,0,0,.23-.79v0a.17.17,0,0,0,0-.1v-.1c.38-.18.1-.61.38-.79a.36.36,0,0,0,.23-.38,6,6,0,0,1,.1-.94,4.2,4.2,0,0,0-.28-1.5.27.27,0,0,0-.28-.18.5.5,0,0,1-.51-.22c0-.06-.1-.11-.15-.11a1.76,1.76,0,0,1-1-1.06c0-.16-.15-.18-.28-.23a.34.34,0,0,1-.33-.33.35.35,0,0,0-.46-.28,2.77,2.77,0,0,1-1-.23c-.51-.23-1-.23-1.55-.43h-.05c-.23.17-.51,0-.74-.05a2.39,2.39,0,0,0-1.73.22.35.35,0,0,1-.22.06c-.51-.11-1,.27-1.4.38a6.07,6.07,0,0,0-1.45.5,2.39,2.39,0,0,1-.89.23,1.39,1.39,0,0,0-.79.46,2.63,2.63,0,0,1-.74.56,12.27,12.27,0,0,0-1.11.94,2,2,0,0,0-.79.66.37.37,0,0,1-.23.1c-.08,0-.18.1-.23.18a2.41,2.41,0,0,1-1.35.94,1.59,1.59,0,0,0-.43.23,1,1,0,0,1-.84.43.65.65,0,0,0-.38.18c-.15.15-.28.28-.46.43s-.1,0-.1.1a.93.93,0,0,1-.56.72c-.1,0-.1.15,0,.22s0,.23,0,.38-.15.56-.33.79,0,.18,0,.28.06.23-.17.33c-.61-.1-.61-.1-.46.23a.19.19,0,0,1,0,.23c-.05.1,0,.18.1.28.15.28.28.61.43.94a14.56,14.56,0,0,1,.23,1.45.27.27,0,0,0,.1.18c.1.1.16.23.1.33A.7.7,0,0,0,46,40a.18.18,0,0,1,0,.22l-.06.06a2.42,2.42,0,0,0-.27.28.72.72,0,0,0-.06.88.29.29,0,0,0,.39.11,1.29,1.29,0,0,1,.66-.16c.15,0,.23-.1.33-.17s.23-.16.28,0A.85.85,0,0,0,48,42a1.49,1.49,0,0,1,.38.18,1.52,1.52,0,0,0,.56.51l.15.15a1.93,1.93,0,0,0,.56.71.51.51,0,0,0,.38.18.4.4,0,0,1,.23.1,2.39,2.39,0,0,0,1.5.28c.15-.05.33,0,.46,0a1.49,1.49,0,0,1,1-.05,1.27,1.27,0,0,0,.43.05,1.28,1.28,0,0,1,.74.1,1.6,1.6,0,0,0,.73.11c.34,0,.67,0,.84.38a.28.28,0,0,0,.23.15,10.39,10.39,0,0,0,1.07.23,1.4,1.4,0,0,1,.46.1l.43.1c.15-.23.23-.28.46-.23s.17.16.28.16l.33.1.15-.16a2.29,2.29,0,0,1,1,.06,1.23,1.23,0,0,1,.66,0c.18-.06.38.1.56.1a1.84,1.84,0,0,0,.74,0c.33-.1.61-.28.89-.33A.72.72,0,0,1,64,45a.21.21,0,0,0,.28.05.94.94,0,0,1,.89,0c.1.05.15.1.28.05A8.54,8.54,0,0,1,66.8,45a1.84,1.84,0,0,1,.56-.18c.56-.05,1.17-.17,1.73-.22a.75.75,0,0,1,.66.22c0,.06.1.11.15.11.23-.16.46,0,.71,0h.23c.61-.33,1.35-.38,1.88-.89,0-.16-.18-.16-.15-.33a.3.3,0,0,1,.28-.18c.1.51.33.61.89.43a5,5,0,0,1,1.62-.43c.56,0,1.12-.15,1.68-.15a1.24,1.24,0,0,0,.79-.23.28.28,0,0,1,.18-.05c.45.17.73-.16,1-.44a1.41,1.41,0,0,1,.56-.28,2.93,2.93,0,0,0,1.32-.45c.15-.15.43-.15.51-.38a.09.09,0,0,1,.15,0h0c.18.17.43.33.46.61a1.77,1.77,0,0,1-.33,1.27c-.16.17-.11.45-.38.61,0,.38-.34.71-.23,1.12a.35.35,0,0,1-.11.38c-.38.5-.45,1.11-.83,1.6a.18.18,0,0,0,0,.15,2.05,2.05,0,0,1-.56,1,1.51,1.51,0,0,0-.23.43,2.55,2.55,0,0,1-1,1.45,1,1,0,0,0-.38.43c-.16.28-.46.39-.67.56a3.78,3.78,0,0,1-1.32.79,5.25,5.25,0,0,1-.84.23,1.1,1.1,0,0,0-.5.33,1.11,1.11,0,0,1-.44.38c-.28.15-.71.1-.94.38-.45,0-.89.16-1.39.1a1.19,1.19,0,0,0-1.12.18,2,2,0,0,0-.79.05A3,3,0,0,0,68.6,54a.23.23,0,0,1-.17.06.29.29,0,0,0-.39.15c-.05.1-.15.15-.22,0a1.57,1.57,0,0,0-1.12-.18,3.16,3.16,0,0,0-1,.15,2,2,0,0,1-.79,0c-.28,0-.38.18-.61.23s-.38-.18-.61-.1c-.56.15-1.07-.1-1.6-.05-.05,0-.1,0-.16,0a.47.47,0,0,0-.61,0,.71.71,0,0,1-.55,0,.58.58,0,0,0-.56.1,2.31,2.31,0,0,1-1,.18h-.16c-.33-.28-.71-.1-1,0-.15,0-.18,0-.28-.1a1.18,1.18,0,0,0-.94-.43,3.12,3.12,0,0,1-1.4-.51,1.22,1.22,0,0,0-.61-.28,10.53,10.53,0,0,1-1.72-.84,1.14,1.14,0,0,0-.46-.18A1.55,1.55,0,0,1,52,52a1.92,1.92,0,0,0-1-.28,2.2,2.2,0,0,1-.56-.1.72.72,0,0,0-.46,0,.28.28,0,0,1-.28,0,.47.47,0,0,0-.51,0c-.1,0-.15,0-.23-.1a1.39,1.39,0,0,0-.38-.18c-.43,0-.73,0-1.12,0L46,51.13a1,1,0,0,0-.66,0,9.87,9.87,0,0,1-1.22.1h-.05c-.33-.38-.78-.18-1.22-.33s-.78-.28-1.17-.43a2.61,2.61,0,0,1-1.06-.74,1.14,1.14,0,0,0-.28-.23c-.43-.28-1.22-1.27-1.07-1.42a.34.34,0,0,0,0-.23c-.1-.1-.18,0-.28-.1a.36.36,0,0,1-.33-.23,3.66,3.66,0,0,0-.33-.46,13.67,13.67,0,0,0-.94-1.4,1.9,1.9,0,0,1-.43-1,.3.3,0,0,0-.1-.22c-.38-.18-.38-.56-.51-.89A7.06,7.06,0,0,0,35.44,42a.59.59,0,0,1-.1-.28v-.45a1,1,0,0,1,0-.94v-.18c-.11-.15-.16-.33.1-.43v-.16c0-.1,0-.17,0-.22-.46-.39-.46-1.07-1.07-1.35a.58.58,0,0,1-.23-.56c0-.61.1-1.17.1-1.78a2.94,2.94,0,0,0,0-.66,1.65,1.65,0,0,1,.23-1,4.77,4.77,0,0,0,.38-.89,6,6,0,0,1,.56-1.17c0-.05,0-.1.1-.15a1.22,1.22,0,0,1,.51-.84,3.32,3.32,0,0,0,.51-.66,1.1,1.1,0,0,1,.46-.33c.1-.05.17-.05.23-.1.43-.51,1.06-.79,1.44-1.35a.17.17,0,0,1,0-.1,3.22,3.22,0,0,0,1.12-.94,2,2,0,0,0,.46-.66,1.58,1.58,0,0,1,.56-.56c.18-.16.33-.43.61-.43.28-.46.94-.56,1.22-1.07.18-.28.51-.23.74-.38a2.1,2.1,0,0,0,.45-.23.28.28,0,0,1,.16-.1c.33.15.56-.16.78-.23s.56-.1.74-.33c0-.05.15,0,.18.05a1.05,1.05,0,0,0,.94-.15,1.71,1.71,0,0,1,.94-.23c.38-.05.71-.1,1.07-.18a.17.17,0,0,0,.17-.1.65.65,0,0,1,.74-.23,1.36,1.36,0,0,0,1.12-.38,1.48,1.48,0,0,1,1-.18,2.53,2.53,0,0,0,1.07-.1l1.07-.28h.15c.33.15.61-.1.94,0h.05c.43-.33.84-.15,1.32-.15a.84.84,0,0,0,.38-.06,1.26,1.26,0,0,1,.89-.17,2.81,2.81,0,0,0,.94-.16.73.73,0,0,1,.56,0,.53.53,0,0,0,.61-.1.37.37,0,0,1,.23-.1c.28.05.56-.1.84-.05a3.1,3.1,0,0,0,1.17-.1h.45a1.54,1.54,0,0,0,.95,0,4.13,4.13,0,0,1,1.11,0,8.2,8.2,0,0,0,1.93-.1.89.89,0,0,1,.51,0,.44.44,0,0,0,.23.05,1.09,1.09,0,0,1,.79.15c.18.1.46,0,.66.1h.1c.43.38,1,.15,1.5.38a3,3,0,0,0,.43.23c.23.1.46.18.72.28a6.56,6.56,0,0,1,1.32.43.24.24,0,0,1,.17.33h.11c.15,0,.28-.05.33.16l.28.05a.41.41,0,0,1,.61.23c.15.17.38.22.5.38.28.33.61.45.89.78a.66.66,0,0,0,.23.18,1,1,0,0,1,.43.28,1.36,1.36,0,0,0,.74.46c.23.05.28.23.43.38a3.78,3.78,0,0,1,.84.94.42.42,0,0,1,0,.23.76.76,0,0,1,.46.56v.1a1.35,1.35,0,0,1,.94.84,1.42,1.42,0,0,0,.46.56,1.69,1.69,0,0,1,.56.84,2.08,2.08,0,0,0,.79,1.12c.17.1.33.38.5.5a2,2,0,0,0,.61.56,1.08,1.08,0,0,1,.16.18c0,.33.22.43.38.56a.86.86,0,0,1,.28.66c0,.15,0,.28.1.38A.58.58,0,0,1,83.42,34.08Z"/><polyline class="cls-4" points="0 120 0 0 120 0"/></g></g></svg>