<svg xmlns="http://www.w3.org/2000/svg" viewBox="0 0 120 120"><defs><style>.cls-1{fill:#8c85a4;}.cls-2,.cls-7{fill:none;}.cls-2{stroke:#d37983;stroke-miterlimit:10;stroke-width:2px;}.cls-3{fill:#e0c2b2;}.cls-4{fill:#c82c37;}.cls-5{fill:#692529;}.cls-6{fill:#b07d7c;}</style></defs><g id="Lag_2" data-name="Lag 2"><g id="Lag_1-2" data-name="Lag 1"><polygon class="cls-1" points="63.44 108.03 63.44 108.04 63.45 108.04 63.44 108.03"/><path class="cls-1" d="M63.71,107.19a5.1,5.1,0,0,1,.93-1.15,1.24,1.24,0,0,0,.23-.32c0-.13-.39-.19-.89-.13s-.77.13-.72.22,0,.17-.1.26-.11,0-.32,0a6.94,6.94,0,0,0-1.27.24,10.06,10.06,0,0,0-2.09.94,8.89,8.89,0,0,0-1,.7,2,2,0,0,0-.78.86,1,1,0,0,0,.06.84.64.64,0,0,1,.16.41,7.81,7.81,0,0,0-.14,1,2.48,2.48,0,0,0,.06.77,2.87,2.87,0,0,0,.41.93,1.83,1.83,0,0,1,.38.54,1.73,1.73,0,0,0,.23.66,4.14,4.14,0,0,0,.53.58c.12.12.11.12-.6.18l-1.3.1c.55-.11.54-.11.41-.23s-.21-.18-.19-.29a1.22,1.22,0,0,0-.2-.74c-.06-.09.06-.2,0-.28a1.79,1.79,0,0,1-.22-.51c0-.34-.07-.69-.08-1a5.52,5.52,0,0,1,.1-.71c0-.23-.27-.66-.15-1s0-.48.1-.74a4.78,4.78,0,0,1,1.44-1.83,20.71,20.71,0,0,1,1.89-1.33c.24-.14.54-.3.59-.44l-.2,0a4.1,4.1,0,0,0-1.05.08.65.65,0,0,0-.2,0c-.4.31-1,.62-1.5.93-.07,0-.14.11-.06.15-.36,0-.47,0-.31-.11.59-.35,1.27-.7,2-1,.25-.13.11-.19-.33-.22l-.7,0-.29,0a3.35,3.35,0,0,1-.71,0,4.32,4.32,0,0,0-1.79,0,.75.75,0,0,0-.52.36A9.58,9.58,0,0,0,53.61,107c-.27.25-.62.51-.9.77s-.44.45-.66.68-.67.63-.95.94a1.84,1.84,0,0,0-.42.62,7.18,7.18,0,0,1-.32.81,8.78,8.78,0,0,0-.39.83.28.28,0,0,0,0,.29.27.27,0,0,1,0,.35c-.2.38-.48.76-.36,1.11v.08c-.17.26,0,.48-.06.73v.09c.21.1.17.22.15.35s0,.33.35.47.34.16.28.26.29.24,1.17.18a11.12,11.12,0,0,1,1.29,0l8.29-.64a10.39,10.39,0,0,1,1.36-.11,5.33,5.33,0,0,0,1.13-.09c.36-.08.19-.16.15-.23s-.14-.18-.14-.29c0-.36.37-.76.53-1.13a1.45,1.45,0,0,0-.1-1.37,7.43,7.43,0,0,1-.39-1.12,2,2,0,0,1,0-1c0-.14,0-.29,0-.43a.62.62,0,0,0-.14-.39c-.12-.12-.49-.07-.3-.15.36-.14.2-.24.16-.35h0c.07,0,.08-.07,0-.09-.3,0,0-.12,0-.19h0c.13-.06,0-.1.1-.15v-.06c.1-.11-.1-.22.12-.35Z"/><path class="cls-2" d="M101.23,104.62c-.18-.71-.22-1.44-.4-2.15-.11-.39-.38-.69-.5-1.08a11.24,11.24,0,0,0-1.11-3,3.61,3.61,0,0,1-.28-.68,6.23,6.23,0,0,0-.76-2.22,1.68,1.68,0,0,1-.09-.32c-.28-.67-.42-1.36-.66-2-.31-.93-.49-1.8-.73-2.71s-.43-2-.69-3.07c-.21-.86-.53-1.72-.73-2.59-.35-1.53-.91-3-1.31-4.52a13.05,13.05,0,0,0-.63-1.82,29.84,29.84,0,0,1-.88-3c-.15-.44-.22-.94-.33-1.35a.53.53,0,0,1-.12-.38,2.67,2.67,0,0,0-.35-1.12,1.42,1.42,0,0,1-.14-.36,11.08,11.08,0,0,0-.75-2.09h0a10.68,10.68,0,0,0-.41-1.47c-.7-1.62-1.27-3.29-1.91-4.94-.53-1.38-1.17-2.72-1.77-4.08L85.3,56.44c0-.18-.19-.34-.18-.54a2.55,2.55,0,0,0-.21-1c-.67-1.08-.9-2.35-1.77-3.34v-.11c-.13-.14-.08-.32-.12-.48a4.72,4.72,0,0,0-1.13-2.25c-.48-1.05-.9-2.12-1.43-3.14s-1-2.13-1.53-3.16c-.13-.37-.27-.74-.43-1.1a19,19,0,0,1-.95-2.24c-.41-.93-.76-1.81-1.17-2.71s-.85-1.73-1.31-2.66c-.13-.25-.2-.52-.36-.77-.62-1-1.12-2.1-1.78-3.12-.23-.34-.31-.77-.51-1.13a7.55,7.55,0,0,1-.8-2.4,9.37,9.37,0,0,1-.67-2.34,1.22,1.22,0,0,0-.59-1.16h0a1.49,1.49,0,0,1,.3-.75,1,1,0,0,0,.09-.63A2.06,2.06,0,0,0,69.87,20c-.69-.17-.74-.13-.92.51-.09.37-.24.74-.36,1.12a3.15,3.15,0,0,1-.68,1.68,15.6,15.6,0,0,0-1.17,2,6.37,6.37,0,0,1-.46.8,8.53,8.53,0,0,0-1,1.77l-.3-.09a.45.45,0,0,0-.25.09c-.31.84-.74,1.64-1.07,2.47-.79,2.1-1.59,4.25-2.5,6.33a1.63,1.63,0,0,0-.18,1c-.21.47-.42,1-.65,1.42-.1.09,0,.23-.1.32a5.64,5.64,0,0,0-.39.87c-.11.08,0,.24-.1.32a1.17,1.17,0,0,0-.44.84c-.09.12-.13.24-.23.35l-.56,1.07c-.06.34-.44.56-.42.93a.92.92,0,0,0-.36.6,1,1,0,0,1-.21.46,2.57,2.57,0,0,0-.45.83A.38.38,0,0,1,57,46c-.66.94-1.07,2-1.68,3-.43.71-.76,1.46-1.18,2.19-.75,1.34-1.52,2.69-2.38,4s-2,2.89-3,4.31S46.89,62.07,46,63.36c-.53.78-1,1.59-1.54,2.35-.67.92-1.27,1.87-1.89,2.8-.44.66-.67,1.39-1.13,2a29.28,29.28,0,0,0-2.29,3.9c-.36.72-.72,1.45-1.12,2.15a37.68,37.68,0,0,0-1.77,3.75c-.47,1.1-1,2.19-1.49,3.28a31.64,31.64,0,0,1-1.22,3.1c-.48,1-.79,2.15-1.27,3.19a1.82,1.82,0,0,0-.27.91h0c-.06.08-1,2.11-1.53,3s-.91,1.69-1.41,2.53a31.28,31.28,0,0,0-2.28,4.08,12.19,12.19,0,0,1-.84,1.6,15.47,15.47,0,0,0-.84,1.55,13.37,13.37,0,0,0-.69,1.21.46.46,0,0,0,.11.63h.08a3.55,3.55,0,0,0,.43.23c.54.23.8.16,1.05-.33a.75.75,0,0,1,.68-.42,5.73,5.73,0,0,1,1.8.11,16.93,16.93,0,0,0,2.56.24,3.88,3.88,0,0,1,2.3.58.86.86,0,0,0,.61.1l2.77-.22c.23.16.5,0,.75,0h0c.25.12.52,0,.76.05a2.15,2.15,0,0,0,.66.09,3.35,3.35,0,0,1,.77.13l.39.11c.11.07.26,0,.38.06a1.09,1.09,0,0,1,.39.11l3-.1H44c1.4,0,2.76.33,4.16.44s2.76.19,4.13.2a3.12,3.12,0,0,0,1-.07,5.58,5.58,0,0,1,1.91-.09c.22,0,.27.15.31.3a3.06,3.06,0,0,0,.49-1.37.68.68,0,0,0-.55-.32,5.65,5.65,0,0,0-2.13,0,17.72,17.72,0,0,1-6.12,0,3,3,0,0,0-.52-.11,16.15,16.15,0,0,0-3.26-.31c-.67-.09-1.34.1-2,0a35.86,35.86,0,0,0-4.85-.58,2.87,2.87,0,0,0-1.13.08,2.74,2.74,0,0,1-2.35-.2,3.12,3.12,0,0,0-1.75-.37,13.39,13.39,0,0,1-2.68-.27c-.34,0-.81-.06-1-.3s.26-.52.35-.81a17.72,17.72,0,0,1,1.85-3.82c.84-1.51,1.69-3,2.44-4.61.12-.26.52-1.13.62-1.33,1.1-2.31,1.87-4.78,2.87-7.17.75-1.78,1.55-3.54,2.32-5.32a67.19,67.19,0,0,1,3.86-7.44c.9-1.52,1.68-3.08,2.7-4.56C46,66,47.48,63.81,49,61.71c.59-.83,1.17-1.67,1.8-2.47a5.09,5.09,0,0,0,.39-.63c.26-.45.61-.85.87-1.27.2-.25.38-.51.56-.77a2,2,0,0,1,.45-.69,1.43,1.43,0,0,0,.15-.27,1,1,0,0,1,.27-.37c.68-1,1.3-2.16,1.91-3.25,1.68-3.1,3.36-6.2,4.93-9.35.07-.14.13-.17.25,0,.47-.13.4-.49.4-.77s.2-.43.54-.38a.28.28,0,0,0,.15-.08.32.32,0,0,0,0-.36.63.63,0,0,1-.06-.79c.64-1.32,1.16-2.66,1.72-4A12.68,12.68,0,0,1,64,34.53a2,2,0,0,1,.31-.74c.12-.34.24-.68.34-1a3.17,3.17,0,0,1,.4-1c.12-.3.22-.61.33-.9a1.27,1.27,0,0,1,.19-.5c0-.05,0-.09,0-.14a2,2,0,0,1,.42-.81,5.05,5.05,0,0,1,.24-.53h.06l.34-.66a1,1,0,0,0,.5-.47c.36-.54.76-1.08,1.08-1.66a14.45,14.45,0,0,1,1-1.59,1.09,1.09,0,0,1,.28.59A36.78,36.78,0,0,0,71,29.73a3.92,3.92,0,0,0,.7,1.18,1.33,1.33,0,0,1,.23.3.57.57,0,0,0,0,.13,1,1,0,0,1,.1.34,1.63,1.63,0,0,0,.39.64.73.73,0,0,1,.17.31,2.47,2.47,0,0,0,.29.53,1.2,1.2,0,0,1,.2.39,1.35,1.35,0,0,0,.15.26.9.9,0,0,1,.27.42.2.2,0,0,0,0,.13,1.06,1.06,0,0,1,.09.35,3.47,3.47,0,0,0,.58,1.09.81.81,0,0,1,.19.29.2.2,0,0,0,0,.13.72.72,0,0,1,.11.32,1.16,1.16,0,0,0,.14.24.94.94,0,0,1,.16.4,2.88,2.88,0,0,0,.28.59.92.92,0,0,1,.18.3.23.23,0,0,0,0,.14,1.85,1.85,0,0,1,.12.33,1.18,1.18,0,0,0,.11.19.64.64,0,0,1,.16.29.28.28,0,0,0,0,.13,1.76,1.76,0,0,1,.08.37,4.86,4.86,0,0,0,.65,1.6c.1.14.29.24.31.42a.35.35,0,0,0,.06.14,1,1,0,0,1,.1.34,5.1,5.1,0,0,0,.19.55,3.45,3.45,0,0,1,.14.34,3.18,3.18,0,0,0,.16.32,1.3,1.3,0,0,1,.16.31v.12a1.33,1.33,0,0,1,.1.34,4.11,4.11,0,0,0,.28.6A1.09,1.09,0,0,1,78,45a3.28,3.28,0,0,0,.75.95,1.63,1.63,0,0,1,.19.34,1.58,1.58,0,0,0,.16.35,1.07,1.07,0,0,1,.16.44,1.3,1.3,0,0,0,.14.32c.45.92.81,1.91,1.24,2.85,1.61,3.63,3.22,7.27,4.79,10.91.93,2.19,1.75,4.41,2.58,6.63.34.55.4,1.19.7,1.75.09.17.13.39.33.48v.07a1.29,1.29,0,0,0,0,.39c.64,1.87,1.14,3.7,1.71,5.55.37,1.16.66,2.34,1.06,3.5.61,1.79,1.06,3.63,1.65,5.43a10.12,10.12,0,0,1,.71,2.47.69.69,0,0,0,0,.35c.05.13.1.27.14.4a.5.5,0,0,0,0,.17,1,1,0,0,1,0,.65c0,.33-.07.69.19,1a.47.47,0,0,1,.2.34,13.47,13.47,0,0,0,.44,2,22.73,22.73,0,0,0,1.24,3.59c.62,1.52,1,3.1,1.65,4.68.5,1.24.54,2.59,1,3.85a5.31,5.31,0,0,1,.34,1.89c0,.3-.12.44-.49.45a15.81,15.81,0,0,1-2.38-.11,23.67,23.67,0,0,0-4.21-.19l-3,.23c-1.66,0-3.23-.45-4.9-.38-2.75.11-5.49-.21-8.25-.32L68,105.74c-2.79-.06-5.86.21-8.78.24a.64.64,0,0,0-.6.26c.23.16.54.19.77.37a.65.65,0,0,1,.22.87.36.36,0,0,0,.28.18c.43-.14.84.07,1.27.06,0-.36.26-.36.54-.4,1.6-.18,3.2-.15,4.79-.22a22.39,22.39,0,0,1,2.59.05c1,.07,1.92,0,2.83.06s2,.05,3,.08c1.33,0,2.64.13,4,.19s2.73.07,4.09.16a13.87,13.87,0,0,1,1.58,0c1.09.11,2.16.23,3.24.32a14.62,14.62,0,0,0,3,0l1.51-.12a8.9,8.9,0,0,1,1.93,0,13.88,13.88,0,0,0,2.5.16,7.51,7.51,0,0,1,1.5.09,18.57,18.57,0,0,0,2.57.3c.62,0,1-.41.88-.94A19.83,19.83,0,0,0,101.23,104.62Z"/><path class="cls-3" d="M82.39,16.32c-.19-.14-3-1.3-3.17-1.39a2,2,0,0,0-.42-.19c-.43-.19-5-1.45-5.42-1.87a2.84,2.84,0,0,0-.24-.26,19.85,19.85,0,0,1-1.41-2c-.24-.55-.49-1.09-.71-1.64a16.36,16.36,0,0,1-.73-2.28,1.6,1.6,0,0,0-.24-.59A.13.13,0,0,0,70,6h0c0-.37-.28-.49-.53-.64a.17.17,0,0,0-.23,0,.73.73,0,0,0-.33.42,2.45,2.45,0,0,1-.7,1.3c-.67.78-1.31,1.59-1.94,2.4a5.14,5.14,0,0,1-.79.89.28.28,0,0,0-.24.28h0a1.75,1.75,0,0,0-.28.33.27.27,0,0,0-.12.22h0a2.08,2.08,0,0,0-.32.54h0c-.2.13-.27.36-.39.54l0,.16h0a.08.08,0,0,0-.07,0c-.21.17-.48.26-.55.57l-.07.08c-.45.16-.45.16-.46.54l-.06.08a1,1,0,0,0-.47.6,4.22,4.22,0,0,1-.7.82.28.28,0,0,0-.2.09h0a20.25,20.25,0,0,1-3.3.41.41.41,0,0,0-.26.07h0a.67.67,0,0,1-.43.12.28.28,0,0,0-.2.08l-.35,0c-.15,0-.3,0-.42.09h-.06a1.87,1.87,0,0,0-.77.2h0a2.8,2.8,0,0,1-.64.13.57.57,0,0,0-.28.08h-.15a.44.44,0,0,0-.27.09h-.08a.22.22,0,0,0-.16.14h0l-.22.1a.3.3,0,0,0-.2.08h0a.57.57,0,0,0-.42.19.24.24,0,0,0-.21.08.9.9,0,0,1-.35.18.24.24,0,0,0-.2.15,6.34,6.34,0,0,0-.92.51c0,.1-.17.12-.2.23h0a1.23,1.23,0,0,0-.25.14,7.43,7.43,0,0,1-.91.68c-.23.18-.44.36-.65.56a.42.42,0,0,0-.11.57v0a.36.36,0,0,0,.11.1,1,1,0,0,0,.61.34,4.61,4.61,0,0,1,1.26.39,5.13,5.13,0,0,0,1.23.36,8.77,8.77,0,0,0,1.15.06.75.75,0,0,1,.62.29,1,1,0,0,0,.41.33.22.22,0,0,0,.2.07.46.46,0,0,1,.51.17l.19.2c.33.31.59.68.89,1a8.68,8.68,0,0,1,1.06,1.28A10.54,10.54,0,0,1,58.45,26a3.18,3.18,0,0,0,.74,1A13.09,13.09,0,0,1,60,28c.2.25.41.5.59.77s.44.33.54.61a.58.58,0,0,0,.23.21c.09.12.22.19.31.32l.16.14c.11.15.28.24.39.4h0c.06.05.1.13.16.19l.08.08a5.57,5.57,0,0,0,.94,1h0a.86.86,0,0,0,.3.27l.17.13a.45.45,0,0,0,.49-.11h0a.75.75,0,0,0,.33-.53A6.4,6.4,0,0,1,65,30.43c.36-.92.73-1.84,1.08-2.76,0-.15,1-1.91,1-2,.53-1.07,1.15-2.09,1.76-3.11a1.1,1.1,0,0,0,.22-.7h0c.12-.07.13-.23.16-.33a.65.65,0,0,1,.4-.53.63.63,0,0,0,.13.2.81.81,0,0,1,.17,1,.35.35,0,0,0,0,.37,3.33,3.33,0,0,1,.26.81A7,7,0,0,0,71,24.91a7.14,7.14,0,0,1,.53,1.16A5.74,5.74,0,0,0,72,27a13.85,13.85,0,0,0,.84,1.44.16.16,0,0,0,.06.13c.11.29.24.58.36.87h0a1.28,1.28,0,0,0,.25.51,1.92,1.92,0,0,1,.4.64,2.64,2.64,0,0,0,.23.44,4.16,4.16,0,0,1,.57.92.69.69,0,0,0,.48.4c.16,0,.18-1.13.23-1.35.13-.64.06-1.28.19-1.94s.16-1.26.23-1.89c0-.45.21-.87.27-1.33a6,6,0,0,1,.35-1.38,8.58,8.58,0,0,0,.36-1.41,20.68,20.68,0,0,0,.39-2.2,1,1,0,0,1,.21-.63h.06a1.86,1.86,0,0,0,.84-.45.61.61,0,0,1,.23-.11l1.58-.44a4.74,4.74,0,0,0,1.2-.52.65.65,0,0,0,.32-.16,10.29,10.29,0,0,0,1.23-1.24.52.52,0,0,0,0-.66A2.37,2.37,0,0,0,82.39,16.32Z"/><path class="cls-4" d="M72.59,51.12a2.78,2.78,0,0,0,.86-1.2.63.63,0,0,1,.76-.51,1,1,0,0,1,1,.75,1.16,1.16,0,0,1,0,.37c-.26,1.61-.29,3.24-.45,4.86a36.78,36.78,0,0,1-.85,3.74,2.12,2.12,0,0,1-.14.55,1,1,0,0,1-.1.62l0,.33A52.69,52.69,0,0,0,73,68.25c0,.4.13.58.57.67a12.74,12.74,0,0,1,1.75.09,1.47,1.47,0,0,1,1.07.28,6.57,6.57,0,0,1,2.85,2.84,4.31,4.31,0,0,1,.3,1.5l0,.53a9.73,9.73,0,0,0,.09,3,.87.87,0,0,1-.4,1.12c-.77-.33-.64-1-.58-1.6a3.58,3.58,0,0,0-.11-1.42,1.91,1.91,0,0,1,0-1.43c.08-.29.23-.62-.2-.8a.85.85,0,0,0-1,.18,2.4,2.4,0,0,0-.58,1.06,20.21,20.21,0,0,1-2.07,5.31,15.18,15.18,0,0,0-1.74,3.85,1,1,0,0,1-1,.91h-.16c-.53-.51-.4-1.22-.42-1.84s0-1.11,0-1.67A16.34,16.34,0,0,1,72,76.2a1.42,1.42,0,0,0-.27-1.41c-.72-.81-.61-2-1.23-2.76a.8.8,0,0,0-.93-.6,4.65,4.65,0,0,0-2.42.95A10.35,10.35,0,0,0,64.46,76a14.76,14.76,0,0,0-2,5.47,5.25,5.25,0,0,0,.7,3.33,16.68,16.68,0,0,0,2.63,3.77A32.77,32.77,0,0,1,69,92.86a3.32,3.32,0,0,0,.69,1.08c.26.28.59.57.39,1-.49.24-.84.5-.25,1a.81.81,0,0,1,.24.6c-.08.65.33.93.79,1.2a1.14,1.14,0,0,1-1.59.14l0,0a1.16,1.16,0,0,1-.25-.29,11.8,11.8,0,0,1-1-1.36,8.89,8.89,0,0,0-1.27-1.72,24.51,24.51,0,0,1-3.7-4.31A20.84,20.84,0,0,1,62,88.45c-.24-.21-.26-.59-.56-.77A21.46,21.46,0,0,1,60,84.32a7.8,7.8,0,0,1,.2-5.07,34.73,34.73,0,0,1,1.72-4.14,14.84,14.84,0,0,1,3.58-4.56,7.44,7.44,0,0,1,3.6-1.71c.71-.06.92-.29.88-1a27.08,27.08,0,0,1,.38-4,21,21,0,0,1,.79-3.42,34.29,34.29,0,0,0,1.38-8.77A2.42,2.42,0,0,1,72.59,51.12Z"/><path class="cls-5" d="M72.86,94.67c-.27-.07-.53.26-.79.06s0-.52-.07-.79a.84.84,0,0,0-.38-.78,1.16,1.16,0,0,1-.28-.26c-.21-.31-.11-.54.26-.59a1,1,0,0,1,.59.11h.08c.14,0,.12-.18.11-.31a17,17,0,0,1,.23-3.34,4.17,4.17,0,0,0,0-1.06,3,3,0,0,1,.26-1.29,9.39,9.39,0,0,0,.48-2.63l.08-.08c.45-.29.81-.61.7-1.21a.87.87,0,0,1,.25-.63,4.26,4.26,0,0,0,.77-1.55,9.67,9.67,0,0,1,1-1.76,3.59,3.59,0,0,0,.52-1.41.91.91,0,0,1,.19-.5.91.91,0,0,0,.25-.7,2.5,2.5,0,0,1,.49-1.4,1.16,1.16,0,0,1,1.63-.13h0a.46.46,0,0,1,0,.5,1.64,1.64,0,0,0,0,1.8.55.55,0,0,1,0,.45,2.75,2.75,0,0,0,0,1.63.46.46,0,0,1,.22.52c-.29.68-.2,1.44-.48,2.11a8.21,8.21,0,0,0-.45,1.77,11.18,11.18,0,0,1-1.55,3.34,6.69,6.69,0,0,0-1,2.21c-.29,1.18-.75,2.38-1.15,3.58a3.47,3.47,0,0,1-1.27,1.81c-.16.13-.38.18-.54.33Z"/><path class="cls-6" d="M85.21,81.26c-.21-.31-.12-.67-.21-1a1.18,1.18,0,0,1,.32.87Z"/><rect class="cls-7" width="120" height="120"/></g></g></svg>